STARTFONT 2.1
FONT -Adobe-New Century Schoolbook-Medium-I-Normal--34-240-100-100-P-182-ISO10646-1
SIZE 24 100 100
FONTBOUNDINGBOX 42 54 -7 -15
COMMENT $XFree86$
COMMENT ISO10646-1 extension by Markus Kuhn <mkuhn@acm.org>, 2001-03-20
COMMENT 
COMMENT +
COMMENT  Copyright 1984-1989, 1994 Adobe Systems Incorporated.
COMMENT  Copyright 1988, 1994 Digital Equipment Corporation.
COMMENT
COMMENT  Adobe is a trademark of Adobe Systems Incorporated which may be
COMMENT  registered in certain jurisdictions.
COMMENT  Permission to use these trademarks is hereby granted only in
COMMENT  association with the images described in this file.
COMMENT
COMMENT  Permission to use, copy, modify, distribute and sell this software
COMMENT  and its documentation for any purpose and without fee is hereby
COMMENT  granted, provided that the above copyright notices appear in all
COMMENT  copies and that both those copyright notices and this permission
COMMENT  notice appear in supporting documentation, and that the names of
COMMENT  Adobe Systems and Digital Equipment Corporation not be used in
COMMENT  advertising or publicity pertaining to distribution of the software
COMMENT  without specific, written prior permission.  Adobe Systems and
COMMENT  Digital Equipment Corporation make no representations about the
COMMENT  suitability of this software for any purpose.  It is provided "as
COMMENT  is" without express or implied warranty.
COMMENT -
STARTPROPERTIES 26
FOUNDRY "Adobe"
FAMILY_NAME "New Century Schoolbook"
WEIGHT_NAME "Medium"
SLANT "I"
SETWIDTH_NAME "Normal"
ADD_STYLE_NAME ""
PIXEL_SIZE 34
POINT_SIZE 240
RESOLUTION_X 100
RESOLUTION_Y 100
SPACING "P"
AVERAGE_WIDTH 182
CHARSET_REGISTRY "ISO10646"
CHARSET_ENCODING "1"
CAP_HEIGHT 25
X_HEIGHT 16
FONT_ASCENT 29
FONT_DESCENT 7
FACE_NAME "New Century Schoolbook Italic"
COPYRIGHT "Copyright (c) 1984, 1987 Adobe Systems Incorporated. All Rights Reserved. Copyright (c) 1988, 1991 Digital Equipment Corporation. All Rights Reserved."

STARTCHAR char0
ENCODING 0
SWIDTH 833 0
DWIDTH 27 0
BBX 31 25 -1 0
BITMAP
AAAAAAAA
00000000
80000002
00000000
80000002
00000000
80000002
00000000
80000002
00000000
80000002
00000000
80000002
00000000
80000002
00000000
80000002
00000000
80000002
00000000
80000002
00000000
80000002
00000000
AAAAAAAA
ENDCHAR
STARTCHAR space
ENCODING 32
SWIDTH 278 0
DWIDTH 9 0
BBX 1 1 1 0
BITMAP
00
ENDCHAR
STARTCHAR exclam
ENCODING 33
SWIDTH 333 0
DWIDTH 11 0
BBX 9 25 1 0
BITMAP
0380
0780
0780
0780
0780
0700
0700
0600
0E00
0E00
0C00
0C00
0800
1800
1800
1800
1000
1000
0000
0000
0000
6000
F000
F000
6000
ENDCHAR
STARTCHAR quotedbl
ENCODING 34
SWIDTH 400 0
DWIDTH 13 0
BBX 11 8 3 17
BITMAP
30C0
38E0
79E0
71C0
6180
E380
C300
8200
ENDCHAR
STARTCHAR numbersign
ENCODING 35
SWIDTH 606 0
DWIDTH 19 0
BBX 16 23 2 0
BITMAP
030C
030C
030C
030C
0618
0618
0618
7FFF
7FFF
0618
0C30
0C30
0C30
FFFE
FFFE
1860
1860
1860
1860
30C0
30C0
30C0
30C0
ENDCHAR
STARTCHAR dollar
ENCODING 36
SWIDTH 556 0
DWIDTH 18 0
BBX 18 31 0 -4
BITMAP
000400
000C00
000C00
000800
00FE00
039F80
061980
0C11C0
0C33C0
1C33C0
1C2380
1E2000
1F6000
0FE000
07F000
03F800
00FE00
00BE00
008F00
718F00
F18700
F10700
E30600
C30E00
621C00
3A7800
1FE000
060000
040000
0C0000
0C0000
ENDCHAR
STARTCHAR percent
ENCODING 37
SWIDTH 833 0
DWIDTH 27 0
BBX 25 23 1 0
BITMAP
03C03000
0E70E000
1C3FE000
3C10C000
7810C000
70318000
F0310000
E0230000
E0620000
E0660000
E0CC0000
738C1F00
3F187980
0010E080
0031E080
0063C180
00638180
00C78100
00870300
01870300
03070600
03039C00
0600F800
ENDCHAR
STARTCHAR ampersand
ENCODING 38
SWIDTH 852 0
DWIDTH 28 0
BBX 25 25 1 0
BITMAP
001F8000
003DC000
0070E000
00706000
00E06000
00E0E000
00E0E000
00E1C000
00E38000
00FF0000
00FC0000
01F00000
07F0FF80
1E783F00
38781C00
78781800
703C3000
F03C3000
F03E6000
F01EC000
F01F8100
F80F8300
7C1FC600
3FFBFC00
0FE1F800
ENDCHAR
STARTCHAR quotesingle
ENCODING 39
SWIDTH 278 0
DWIDTH 9 0
BBX 5 8 4 17
BITMAP
30
38
78
70
60
E0
C0
80
ENDCHAR
STARTCHAR parenleft
ENCODING 40
SWIDTH 333 0
DWIDTH 11 0
BBX 12 29 1 -4
BITMAP
0030
00F0
01C0
0300
0600
0C00
0C00
1800
3800
3000
7000
7000
6000
E000
E000
E000
C000
C000
C000
C000
C000
C000
4000
4000
6000
2000
3000
3000
1800
ENDCHAR
STARTCHAR parenright
ENCODING 41
SWIDTH 333 0
DWIDTH 11 0
BBX 12 29 -3 -4
BITMAP
0180
0080
00C0
0040
0060
0020
0020
0030
0030
0030
0030
0030
0030
0070
0070
0070
0060
00E0
00E0
00C0
01C0
0180
0380
0300
0600
0C00
1800
7000
C000
ENDCHAR
STARTCHAR asterisk
ENCODING 42
SWIDTH 500 0
DWIDTH 17 0
BBX 14 14 1 9
BITMAP
01C0
31C0
71C0
7980
1D0C
0F3C
07FC
FF80
F3C0
E2E0
0678
0E38
0E30
0400
ENDCHAR
STARTCHAR plus
ENCODING 43
SWIDTH 606 0
DWIDTH 20 0
BBX 16 16 2 0
BITMAP
0180
0180
0180
0180
0180
0180
0180
FFFF
FFFF
0180
0180
0180
0180
0180
0180
0180
ENDCHAR
STARTCHAR comma
ENCODING 44
SWIDTH 278 0
DWIDTH 9 0
BBX 6 9 -1 -5
BITMAP
18
3C
3C
3C
08
18
30
60
C0
ENDCHAR
STARTCHAR hyphen
ENCODING 45
SWIDTH 333 0
DWIDTH 11 0
BBX 8 3 1 7
BITMAP
FF
FF
FF
ENDCHAR
STARTCHAR period
ENCODING 46
SWIDTH 278 0
DWIDTH 9 0
BBX 4 4 1 0
BITMAP
60
F0
F0
60
ENDCHAR
STARTCHAR slash
ENCODING 47
SWIDTH 606 0
DWIDTH 20 0
BBX 11 28 5 -3
BITMAP
0060
00E0
00C0
00C0
01C0
0180
0180
0180
0300
0300
0300
0600
0600
0600
0C00
0C00
0C00
1800
1800
1800
3000
3000
3000
7000
6000
6000
6000
C000
ENDCHAR
STARTCHAR zero
ENCODING 48
SWIDTH 556 0
DWIDTH 18 0
BBX 16 24 2 0
BITMAP
00F8
03DC
070E
0E06
1C07
1C07
3807
7807
7807
7007
F00F
F00F
F00F
E00E
E01E
E01E
E01C
E03C
E038
E078
6070
70E0
3F80
1F00
ENDCHAR
STARTCHAR one
ENCODING 49
SWIDTH 556 0
DWIDTH 18 0
BBX 13 24 2 0
BITMAP
0018
0078
0FF8
0FF8
0070
0070
00F0
00F0
00E0
00E0
01E0
01C0
01C0
03C0
03C0
0380
0380
0780
0700
0700
0F00
0F00
1F80
FFF0
ENDCHAR
STARTCHAR two
ENCODING 50
SWIDTH 556 0
DWIDTH 18 0
BBX 18 24 0 0
BITMAP
007C00
01FF00
070780
0C03C0
0C03C0
1E01C0
1F03C0
1F03C0
1F03C0
0E0780
000F00
001E00
003C00
007800
00E000
038000
070000
0C0180
180300
300300
700600
FFFE00
FFFC00
FFFC00
ENDCHAR
STARTCHAR three
ENCODING 51
SWIDTH 556 0
DWIDTH 18 0
BBX 17 24 0 0
BITMAP
00F800
038E00
070700
0E0780
0F0780
0F0380
0F0780
060780
000700
000E00
003C00
03E000
003800
001C00
001E00
001E00
600E00
F01E00
F01E00
F01E00
E03C00
E07800
78F000
1FC000
ENDCHAR
STARTCHAR four
ENCODING 52
SWIDTH 556 0
DWIDTH 18 0
BBX 18 25 0 0
BITMAP
0000C0
0001C0
0003C0
000780
000F80
001B80
003700
006700
00C700
018F00
030E00
060E00
0C1E00
181E00
301C00
601C00
C03C00
FFFF80
FFFF80
003800
003800
007800
007000
01F800
07FE00
ENDCHAR
STARTCHAR five
ENCODING 53
SWIDTH 556 0
DWIDTH 18 0
BBX 19 25 1 0
BITMAP
018020
03FFE0
03FFC0
03FF00
030000
060000
060000
060000
0C0000
0CF000
0DFC00
0FFE00
1C1E00
380F00
300F00
000700
000700
000F00
600F00
F00E00
F01E00
F01C00
E07800
79F000
1FC000
ENDCHAR
STARTCHAR six
ENCODING 54
SWIDTH 556 0
DWIDTH 18 0
BBX 17 24 2 0
BITMAP
003C00
01E700
038380
070380
0F0780
0E0780
1C0300
3C0000
380000
780000
79F000
77FC00
FC3C00
F81E00
F00E00
F00E00
E00E00
E00E00
E01E00
E01C00
603C00
707800
3DE000
1F8000
ENDCHAR
STARTCHAR seven
ENCODING 55
SWIDTH 556 0
DWIDTH 18 0
BBX 17 24 3 0
BITMAP
1FFF80
3FFF00
3FFF00
700600
600C00
C00C00
801800
003000
007000
006000
00C000
01C000
038000
038000
070000
0F0000
0E0000
1E0000
3C0000
3C0000
7C0000
780000
780000
700000
ENDCHAR
STARTCHAR eight
ENCODING 56
SWIDTH 556 0
DWIDTH 18 0
BBX 18 24 1 0
BITMAP
00FC00
038F00
070380
0E0380
0E01C0
1C01C0
1E0380
1E0380
0F0700
0FCE00
07F800
03F800
0EFC00
383E00
701E00
700F00
E00F00
E00700
E00700
E00E00
700E00
701C00
3C7800
0FE000
ENDCHAR
STARTCHAR nine
ENCODING 57
SWIDTH 556 0
DWIDTH 18 0
BBX 17 24 1 0
BITMAP
01FC00
038E00
0F0700
0E0300
1C0380
3C0380
3C0380
380380
380780
380780
3C0F80
1E1F80
1FF700
07CF00
000F00
000E00
001E00
601E00
F01C00
F03C00
F07800
E07000
79E000
3F8000
ENDCHAR
STARTCHAR colon
ENCODING 58
SWIDTH 278 0
DWIDTH 9 0
BBX 7 16 1 0
BITMAP
0C
1E
1E
0C
00
00
00
00
00
00
00
00
60
F0
F0
60
ENDCHAR
STARTCHAR semicolon
ENCODING 59
SWIDTH 278 0
DWIDTH 9 0
BBX 9 21 -1 -5
BITMAP
0300
0780
0780
0300
0000
0000
0000
0000
0000
0000
0000
0000
1800
3C00
3C00
3C00
0800
1800
3000
6000
C000
ENDCHAR
STARTCHAR less
ENCODING 60
SWIDTH 606 0
DWIDTH 20 0
BBX 17 17 1 0
BITMAP
000180
000780
001F00
007C00
01F000
07C000
1F0000
7C0000
E00000
F00000
7C0000
1F0000
03E000
00F800
001F00
000780
000180
ENDCHAR
STARTCHAR equal
ENCODING 61
SWIDTH 606 0
DWIDTH 20 0
BBX 17 9 1 4
BITMAP
FFFF80
FFFF80
000000
000000
000000
000000
000000
FFFF80
FFFF80
ENDCHAR
STARTCHAR greater
ENCODING 62
SWIDTH 606 0
DWIDTH 20 0
BBX 17 17 2 0
BITMAP
C00000
F00000
7C0000
1F0000
07C000
01F000
007C00
001F00
000380
000780
001F00
007C00
03E000
0F8000
7C0000
F00000
C00000
ENDCHAR
STARTCHAR question
ENCODING 63
SWIDTH 444 0
DWIDTH 14 0
BBX 11 25 3 0
BITMAP
1F80
39C0
6060
4060
C060
C0E0
81E0
03C0
0FC0
1F00
3E00
3C00
7000
6000
C300
C300
6600
3C00
0000
0000
0000
6000
F000
F000
6000
ENDCHAR
STARTCHAR at
ENCODING 64
SWIDTH 747 0
DWIDTH 25 0
BBX 23 25 1 0
BITMAP
007E00
01FFC0
07E1E0
0E0070
1C0038
38001C
30000C
607DCE
61E7C6
E3C7C6
C3C386
C78386
C78386
C7078C
C7070C
C70F1C
E71F18
639F70
71F3E2
300186
38000C
1C0038
0F81F0
03FFC0
00FF00
ENDCHAR
STARTCHAR A
ENCODING 65
SWIDTH 704 0
DWIDTH 22 0
BBX 25 25 -3 0
BITMAP
0000C000
0001C000
0001C000
0003C000
0007C000
0007E000
000DE000
000DE000
0018E000
0018E000
0030F000
0070F000
0060F000
00C0F000
00C07000
01FFF800
01FFF800
03007800
03007800
06003800
0E003C00
0C003C00
1C003C00
3E007E00
FF81FF80
ENDCHAR
STARTCHAR B
ENCODING 66
SWIDTH 722 0
DWIDTH 23 0
BBX 23 25 -1 0
BITMAP
07FFF0
01F8F8
00F03C
00F01E
00E01E
01E01E
01E01E
01E01E
01C01E
03C03C
03C0F8
03FFF0
03FF80
0781E0
0780F8
078078
07003C
0F003C
0F003C
0F003C
0E007C
1E0078
1E00F0
3E07E0
FFFF80
ENDCHAR
STARTCHAR C
ENCODING 67
SWIDTH 722 0
DWIDTH 23 0
BBX 22 25 1 0
BITMAP
003F04
01F3CC
03C0FC
07803C
0F003C
1E0038
1E0018
3C0018
7C0010
780010
780000
F80000
F80000
F00000
F00000
F00000
F00000
F00000
F00020
780060
780040
3C01C0
3F0380
0FCF00
03FC00
ENDCHAR
STARTCHAR D
ENCODING 68
SWIDTH 778 0
DWIDTH 26 0
BBX 26 25 -1 0
BITMAP
07FFF000
00FC7C00
00781F00
00780700
00F00780
00F00380
00F003C0
00F003C0
01E003C0
01E003C0
01E003C0
01E003C0
03C007C0
03C007C0
03C00780
03C00F80
07800F80
07800F00
07801F00
07801E00
0F003C00
0F007800
0F01F000
1F1FE000
FFFF0000
ENDCHAR
STARTCHAR E
ENCODING 69
SWIDTH 722 0
DWIDTH 23 0
BBX 24 25 -1 0
BITMAP
07FFFF
00F83F
00F00F
00F007
00F007
00F003
01E042
01E0C2
01E0C0
01E1C0
03C380
03FF80
03FF80
038700
078700
078300
078200
070204
0F000C
0F0018
0F0018
1E0038
1E00F8
3F07F0
FFFFF0
ENDCHAR
STARTCHAR F
ENCODING 70
SWIDTH 667 0
DWIDTH 22 0
BBX 24 25 -1 0
BITMAP
07FFFF
01F83F
00F00F
00F007
00F006
01E002
01E042
01E0C2
01E0C0
03C1C0
03C380
03FF80
03FF80
078700
078300
078300
078200
0F0200
0F0000
0F0000
0F0000
1E0000
1E0000
3F0000
FFC000
ENDCHAR
STARTCHAR G
ENCODING 71
SWIDTH 778 0
DWIDTH 25 0
BBX 24 25 1 0
BITMAP
003FC2
00F9E6
03C07E
07803E
0F001E
1F001C
1E000C
3C000C
3C0008
7C0008
780000
780000
F80000
F007FF
F007FF
F00078
F00078
F00070
F000F0
7000F0
7801E0
3801E0
3C03E0
1F9E60
07FC40
ENDCHAR
STARTCHAR H
ENCODING 72
SWIDTH 833 0
DWIDTH 27 0
BBX 31 25 -1 0
BITMAP
07FF0FFE
01FC03F8
00F001E0
00F001E0
00F001C0
01E003C0
01E003C0
01E003C0
01E003C0
03C00780
03C00780
03FFFF80
03FFFF80
07800F00
07800F00
07800F00
07800F00
0F001E00
0F001E00
0F001E00
0F001E00
1E003C00
1E003C00
3F007E00
FFC1FF80
ENDCHAR
STARTCHAR I
ENCODING 73
SWIDTH 407 0
DWIDTH 13 0
BBX 15 25 -1 0
BITMAP
07FE
01F8
00F0
00F0
00E0
01E0
01E0
01E0
01C0
03C0
03C0
03C0
0380
0780
0780
0780
0700
0F00
0F00
0F00
0E00
1E00
1E00
3F00
FFC0
ENDCHAR
STARTCHAR J
ENCODING 74
SWIDTH 611 0
DWIDTH 20 0
BBX 23 25 -1 0
BITMAP
000FFE
0001F8
0000F0
0000F0
0001E0
0001E0
0001E0
0003C0
0003C0
0003C0
0003C0
000780
000780
000780
000780
3C0F00
7E0F00
7E0F00
FE0E00
CC1E00
C01E00
C03C00
607C00
39F000
1FE000
ENDCHAR
STARTCHAR K
ENCODING 75
SWIDTH 741 0
DWIDTH 24 0
BBX 28 25 -1 0
BITMAP
07FF3FF0
00F80FC0
00F00700
00F00E00
00F01C00
00E03800
01E07000
01E0E000
01E18000
01C30000
03CE0000
03DF0000
03FF0000
03F78000
07E78000
07C3C000
0783C000
0701C000
0F01E000
0F01E000
0F00F000
1E00F000
1E007800
3F007C00
FFC3FF00
ENDCHAR
STARTCHAR L
ENCODING 76
SWIDTH 667 0
DWIDTH 21 0
BBX 22 25 -1 0
BITMAP
07FF00
01FC00
00F000
00F000
00F000
00E000
01E000
01E000
01E000
01C000
03C000
03C000
03C000
038000
078000
078000
07800C
07000C
0F001C
0F0018
0F0038
0E0078
1F00F0
3F87F0
FFFFF0
ENDCHAR
STARTCHAR M
ENCODING 77
SWIDTH 944 0
DWIDTH 31 0
BBX 34 25 -1 0
BITMAP
07F8003FC0
00F8007E00
00F8007C00
00F800FC00
00FC00FC00
01BC01BC00
01BC03B800
01BC037800
01BC067800
033C067800
033C0C7000
031C18F000
031C18F000
061C30F000
061C30E000
061E61E000
041EC1E000
0C1EC1E000
0C1F81C000
0C1F83C000
1C1F03C000
180E038000
380E078000
7C0C0FC000
FF0C3FF800
ENDCHAR
STARTCHAR N
ENCODING 78
SWIDTH 815 0
DWIDTH 27 0
BBX 30 26 -2 -1
BITMAP
07F807FC
00F801F0
007800E0
007C00E0
00FC00C0
00DE00C0
00DE00C0
009F0080
018F0180
018F0180
01878180
03078100
0303C300
0303C300
0301E300
0601E200
0601E600
0600F600
0600F600
0C007C00
0C007C00
0C003C00
1C003C00
3E003800
FF801800
00001800
ENDCHAR
STARTCHAR O
ENCODING 79
SWIDTH 778 0
DWIDTH 26 0
BBX 24 25 1 0
BITMAP
001FC0
00FCF0
03E038
07C01C
0F801E
1F000E
1E000F
3E000F
3C000F
7C000F
78000F
78001F
F8001F
F8001E
F0001E
F0003E
F0003C
F0007C
F00078
7000F8
7801F0
3803E0
3C0780
0F3F00
03F800
ENDCHAR
STARTCHAR P
ENCODING 80
SWIDTH 667 0
DWIDTH 22 0
BBX 23 25 0 0
BITMAP
07FFE0
01F1F8
00F03C
00E01C
01E01E
01E01E
01E01E
01C01E
03C03C
03C03C
03C078
0381F0
078FC0
07FF00
078000
070000
0F0000
0F0000
0F0000
0E0000
1E0000
1E0000
1E0000
3E0000
FFC000
ENDCHAR
STARTCHAR Q
ENCODING 81
SWIDTH 778 0
DWIDTH 26 0
BBX 24 31 1 -6
BITMAP
001FC0
00FCF0
03F038
07C01C
0F801E
1F000E
1E000F
3E000F
3C000F
7C000F
78000F
78001F
F8001F
F8001E
F0001E
F0003E
F0F83C
F3BC7C
F30E78
760EF8
7406F0
3C07E0
3E0FC0
0F3F00
07FF00
000F00
000F08
000F18
000FF0
0007F0
0003C0
ENDCHAR
STARTCHAR R
ENCODING 82
SWIDTH 741 0
DWIDTH 24 0
BBX 24 26 -1 -1
BITMAP
07FFF0
01F8FC
00F81E
00F00E
00F00F
00E00F
01E00F
01E00F
01E01E
01C01E
03C07C
03C7F8
03FFC0
038380
0781C0
0781C0
0781E0
0701E0
0F01E0
0F01E0
0F01E0
0E01E2
1E01E6
3F01FC
FFC0FC
000078
ENDCHAR
STARTCHAR S
ENCODING 83
SWIDTH 667 0
DWIDTH 22 0
BBX 21 25 0 0
BITMAP
007F18
01E398
0380F8
070078
060070
0E0030
0E0030
0F0020
0F8020
0FE000
07F800
07FE00
01FF80
007FC0
001FC0
2007E0
2001E0
6000E0
6000E0
7000E0
7000C0
7801C0
FE0380
CF8F00
C1FC00
ENDCHAR
STARTCHAR T
ENCODING 84
SWIDTH 685 0
DWIDTH 22 0
BBX 23 25 1 0
BITMAP
3FFFFE
3F3E7E
3C3C1C
783C1C
703C1C
603818
607818
807810
807810
007000
00F000
00F000
00F000
01E000
01E000
01E000
01E000
03C000
03C000
03C000
038000
078000
078000
0FC000
7FF800
ENDCHAR
STARTCHAR U
ENCODING 85
SWIDTH 815 0
DWIDTH 27 0
BBX 26 25 3 0
BITMAP
7FE07FC0
1F801F00
0F000E00
0F000C00
1E000C00
1E000C00
1E001800
1E001800
3C001800
3C001800
3C003000
3C003000
78003000
78002000
78006000
78006000
F0006000
F0004000
F000C000
F000C000
F0018000
78038000
78070000
3E3E0000
07F80000
ENDCHAR
STARTCHAR V
ENCODING 86
SWIDTH 704 0
DWIDTH 23 0
BBX 25 25 1 0
BITMAP
FFC0FF80
3F003E00
1E001C00
1E003800
1E003000
0F003000
0F006000
0F00E000
0F00C000
07018000
07018000
07830000
07830000
07860000
03860000
038C0000
03CC0000
03D80000
03D80000
01F00000
01E00000
01E00000
01C00000
01C00000
01800000
ENDCHAR
STARTCHAR W
ENCODING 87
SWIDTH 926 0
DWIDTH 29 0
BBX 31 25 1 0
BITMAP
FF9FF3FE
3E07C0F8
1C078070
1C0380E0
1C0380C0
1E07C0C0
1E07C180
1E07C180
0E0FC100
0E0BC300
0E1BC300
0E19C600
0E31C600
0F31E400
0F21E400
0F61EC00
07E1F800
07C1F800
07C0F000
0780F000
0780F000
0700E000
0700E000
0600C000
0600C000
ENDCHAR
STARTCHAR X
ENCODING 88
SWIDTH 704 0
DWIDTH 23 0
BBX 29 25 -3 0
BITMAP
07FF1FF8
01FC07E0
00F803C0
00780700
003C0E00
003C0C00
003E1800
001E3000
001E6000
000FC000
000F8000
00078000
00078000
000F8000
001FC000
003BC000
0071E000
00E1E000
01C1F000
0380F000
0700F800
0E007800
1E007C00
3F00FE00
FFC3FF80
ENDCHAR
STARTCHAR Y
ENCODING 89
SWIDTH 685 0
DWIDTH 23 0
BBX 25 25 1 0
BITMAP
FFE1FF80
3F807E00
1F003800
0F003000
0F006000
0780E000
0780C000
03C18000
03C30000
03C70000
01E60000
01EC0000
00FC0000
00F80000
00F00000
00F00000
00F00000
01E00000
01E00000
01E00000
01E00000
03C00000
03C00000
0FE00000
3FF80000
ENDCHAR
STARTCHAR Z
ENCODING 90
SWIDTH 667 0
DWIDTH 22 0
BBX 23 25 -1 0
BITMAP
03FFFE
03F03E
07C07C
0700F8
0601F0
0E01E0
0C03E0
0807C0
000F80
000F00
001E00
003E00
007C00
00F800
00F000
01F000
03E008
07C018
0F8038
0F0030
1F0070
3E00F0
7C01E0
F807E0
FFFFE0
ENDCHAR
STARTCHAR bracketleft
ENCODING 91
SWIDTH 333 0
DWIDTH 11 0
BBX 14 29 -1 -4
BITMAP
01FC
0380
0380
0300
0300
0700
0700
0600
0600
0E00
0E00
0C00
0C00
1C00
1C00
1800
1800
3800
3000
3000
7000
7000
6000
6000
E000
E000
C000
C000
FE00
ENDCHAR
STARTCHAR backslash
ENCODING 92
SWIDTH 606 0
DWIDTH 20 0
BBX 14 25 3 0
BITMAP
C000
6000
6000
3000
3000
1800
1800
0C00
0C00
0E00
0600
0700
0300
0380
0180
01C0
00C0
00C0
0060
0060
0030
0030
0018
0018
000C
ENDCHAR
STARTCHAR bracketright
ENCODING 93
SWIDTH 333 0
DWIDTH 11 0
BBX 14 29 -2 -4
BITMAP
03FC
001C
0018
0018
0038
0038
0030
0030
0070
0070
0060
0060
00E0
00E0
00C0
00C0
01C0
01C0
0180
0180
0380
0380
0300
0300
0700
0700
0600
0600
FE00
ENDCHAR
STARTCHAR asciicircum
ENCODING 94
SWIDTH 606 0
DWIDTH 20 0
BBX 16 13 2 12
BITMAP
01C0
03E0
0360
0770
0630
0E38
1C18
1C18
380C
300C
700E
6006
E007
ENDCHAR
STARTCHAR underscore
ENCODING 95
SWIDTH 500 0
DWIDTH 16 0
BBX 16 2 0 -5
BITMAP
FFFF
FFFF
ENDCHAR
STARTCHAR grave
ENCODING 96
SWIDTH 333 0
DWIDTH 11 0
BBX 7 6 2 17
BITMAP
C0
E0
F0
38
0C
06
ENDCHAR
STARTCHAR a
ENCODING 97
SWIDTH 574 0
DWIDTH 18 0
BBX 17 16 0 0
BITMAP
03C300
0FE700
1E3700
3C1E00
381E00
781E00
701C00
F01C00
E01C00
E03800
E03800
E03800
E07880
F0F980
7BBF00
3E1C00
ENDCHAR
STARTCHAR b
ENCODING 98
SWIDTH 556 0
DWIDTH 18 0
BBX 15 25 1 0
BITMAP
0380
1F00
0700
0700
0E00
0E00
0E00
1E00
1C00
1CF8
1FFC
3E1C
3C1E
380E
780E
700E
700E
601E
E01C
E01C
E038
E038
E0F0
79E0
1F80
ENDCHAR
STARTCHAR c
ENCODING 99
SWIDTH 444 0
DWIDTH 14 0
BBX 13 16 0 0
BITMAP
03E0
0E30
1C18
3878
7878
7030
F000
E000
E000
E000
E000
E000
E030
7060
7DC0
1F00
ENDCHAR
STARTCHAR d
ENCODING 100
SWIDTH 611 0
DWIDTH 20 0
BBX 19 25 0 0
BITMAP
0000E0
0003E0
0000E0
0000E0
0001C0
0001C0
0001C0
0003C0
000380
01F380
0F1B80
1E0F00
3C0F00
380F00
780E00
700E00
F00E00
F00E00
E01C00
E01C00
E03C00
E03C40
7078C0
79DF80
3F8E00
ENDCHAR
STARTCHAR e
ENCODING 101
SWIDTH 444 0
DWIDTH 14 0
BBX 13 16 0 0
BITMAP
03E0
0E70
1C38
3838
3838
7070
70E0
F1C0
E700
FC00
E000
E000
E030
7060
7BC0
1F00
ENDCHAR
STARTCHAR f
ENCODING 102
SWIDTH 333 0
DWIDTH 10 0
BBX 17 31 -2 -6
BITMAP
001F00
003380
006380
00E380
00C100
01C000
01C000
018000
038000
1FF800
038000
030000
070000
070000
070000
0E0000
0E0000
0E0000
0E0000
1C0000
1C0000
1C0000
1C0000
380000
380000
380000
700000
700000
F00000
E00000
800000
ENDCHAR
STARTCHAR g
ENCODING 103
SWIDTH 537 0
DWIDTH 17 0
BBX 20 24 -3 -7
BITMAP
0000F0
007FF0
01E730
038380
0701C0
0701C0
0701C0
070380
070380
030700
018F00
0FFC00
180000
180000
1FF000
1FFE00
1FFF00
780F00
600700
E00300
E00700
E00E00
7C3C00
1FF000
ENDCHAR
STARTCHAR h
ENCODING 104
SWIDTH 611 0
DWIDTH 19 0
BBX 18 25 0 0
BITMAP
01C000
0FC000
03C000
038000
038000
038000
038000
070000
070000
071C00
0E7E00
0EC700
0F8700
1F0700
1E0700
1C0E00
3C0E00
380E00
381C00
381C00
701C40
7038C0
703980
E01F00
E01C00
ENDCHAR
STARTCHAR i
ENCODING 105
SWIDTH 333 0
DWIDTH 10 0
BBX 8 24 1 0
BITMAP
06
0F
0F
06
00
00
00
00
1C
7C
1C
38
38
38
70
70
70
F0
E1
E3
E6
CC
F8
60
ENDCHAR
STARTCHAR j
ENCODING 106
SWIDTH 315 0
DWIDTH 9 0
BBX 16 31 -7 -7
BITMAP
0006
000F
000F
0006
0000
0000
0000
0000
001C
007C
001C
001C
0038
0038
0038
0038
0070
0070
0070
0070
00E0
00E0
00E0
01C0
01C0
01C0
4180
E380
E300
E600
7C00
ENDCHAR
STARTCHAR k
ENCODING 107
SWIDTH 556 0
DWIDTH 17 0
BBX 16 25 0 0
BITMAP
01C0
0FC0
03C0
0380
0380
0380
0700
0700
0700
0F1E
0E7F
0EC7
1F87
1F07
1E0E
1C1C
3C70
3BC0
3860
7060
7061
7073
E076
E07C
E038
ENDCHAR
STARTCHAR l
ENCODING 108
SWIDTH 333 0
DWIDTH 9 0
BBX 9 25 0 0
BITMAP
0380
1F80
0780
0700
0700
0700
0700
0E00
0E00
0E00
1C00
1C00
1C00
3800
3800
3800
3000
7000
7000
7000
E100
E300
E600
FC00
7000
ENDCHAR
STARTCHAR m
ENCODING 109
SWIDTH 889 0
DWIDTH 29 0
BBX 26 16 1 0
BITMAP
0E3C1E00
7E7E7F00
1CCEE700
1D8EC700
1F0F8700
1E0F0E00
1C0E0E00
3C1E0E00
381C1C00
38381C00
70381C00
70383840
707038C0
E0703980
E0703F00
E0E01C00
ENDCHAR
STARTCHAR n
ENCODING 110
SWIDTH 611 0
DWIDTH 20 0
BBX 17 16 1 0
BITMAP
1C3800
7CFC00
1D8E00
1F0E00
1E0E00
3C1C00
381C00
381C00
783800
703800
703800
703080
E07180
E07300
E07E00
E03800
ENDCHAR
STARTCHAR o
ENCODING 111
SWIDTH 500 0
DWIDTH 16 0
BBX 15 16 0 0
BITMAP
03F0
0E38
1C1C
380C
780E
700E
700E
F00E
E01E
E01C
E01C
E038
E038
7070
38E0
1F80
ENDCHAR
STARTCHAR p
ENCODING 112
SWIDTH 574 0
DWIDTH 19 0
BBX 20 22 -3 -6
BITMAP
01C780
0FDFE0
01D8E0
01B070
01E070
01C070
038070
0380F0
0380F0
0700E0
0700E0
0701C0
0703C0
0F8780
0EDF00
0E7C00
0C0000
1C0000
1C0000
1C0000
380000
FF0000
ENDCHAR
STARTCHAR q
ENCODING 113
SWIDTH 556 0
DWIDTH 17 0
BBX 17 22 0 -6
BITMAP
03F180
0F1B00
1C0F00
3C0F00
380E00
700E00
700E00
F01E00
E01C00
E01C00
E03C00
E03800
E07800
70F800
7FF800
1E7000
007000
007000
00E000
00E000
01E000
07F800
ENDCHAR
STARTCHAR r
ENCODING 114
SWIDTH 444 0
DWIDTH 14 0
BBX 14 16 0 0
BITMAP
0E78
7EFC
0D9C
0D1C
1F08
1E00
1C00
1C00
3800
3800
3800
7000
7000
7000
F000
E000
ENDCHAR
STARTCHAR s
ENCODING 115
SWIDTH 444 0
DWIDTH 14 0
BBX 13 16 0 0
BITMAP
07E0
1C78
3838
3038
3818
3C00
1F00
1FC0
07E0
01F0
6070
E070
E070
E060
71C0
3F80
ENDCHAR
STARTCHAR t
ENCODING 116
SWIDTH 352 0
DWIDTH 11 0
BBX 10 22 1 0
BITMAP
0380
0300
0700
0700
0E00
0E00
7FC0
1C00
1C00
1C00
3800
3800
3800
7000
7000
7000
7080
E180
E300
F600
FC00
7000
ENDCHAR
STARTCHAR u
ENCODING 117
SWIDTH 611 0
DWIDTH 20 0
BBX 17 16 1 0
BITMAP
1E0700
7C0F00
1C0E00
1C0E00
381E00
381C00
381C00
703C00
703800
707800
E07800
E0F180
E1F300
E77700
FE7C00
783800
ENDCHAR
STARTCHAR v
ENCODING 118
SWIDTH 519 0
DWIDTH 17 0
BBX 14 16 1 0
BITMAP
1C38
FC7C
383C
381C
380C
700C
7008
7018
E018
E010
E030
E060
E060
71C0
7F80
1E00
ENDCHAR
STARTCHAR w
ENCODING 119
SWIDTH 778 0
DWIDTH 26 0
BBX 23 16 1 0
BITMAP
1C0E1C
7C0E1E
1C1E1E
181C0E
381C06
381C06
383C06
703804
70780C
707818
E0F818
E0B830
E1B860
E338C0
7E3F80
380F00
ENDCHAR
STARTCHAR x
ENCODING 120
SWIDTH 500 0
DWIDTH 16 0
BBX 17 16 -1 0
BITMAP
070700
0F8F80
1B9B00
339000
21F000
01E000
01E000
01C000
01C000
01E000
03E000
06E100
66E300
EC7600
F87C00
703800
ENDCHAR
STARTCHAR y
ENCODING 121
SWIDTH 500 0
DWIDTH 16 0
BBX 18 23 -3 -7
BITMAP
070180
0F83C0
0F83C0
1BC3C0
11C180
11C180
01C100
00E300
00E200
00E600
00E400
007C00
007800
007800
007000
006000
006000
00C000
60C000
E18000
E30000
E60000
7C0000
ENDCHAR
STARTCHAR z
ENCODING 122
SWIDTH 463 0
DWIDTH 15 0
BBX 16 16 -1 0
BITMAP
07C3
0FFF
19F6
300C
3018
0030
00E0
01C0
0780
0E00
1C00
3004
6C0C
7F98
DFF0
C3E0
ENDCHAR
STARTCHAR braceleft
ENCODING 123
SWIDTH 333 0
DWIDTH 11 0
BBX 10 31 2 -5
BITMAP
0080
01C0
0300
0300
0600
0600
0600
0E00
0C00
0C00
0C00
1C00
1800
1800
7000
E000
6000
3000
3000
3000
7000
6000
6000
6000
E000
C000
C000
C000
C000
E000
2000
ENDCHAR
STARTCHAR bar
ENCODING 124
SWIDTH 606 0
DWIDTH 20 0
BBX 2 25 9 0
BITMAP
C0
C0
C0
C0
C0
C0
C0
C0
C0
C0
C0
C0
C0
C0
C0
C0
C0
C0
C0
C0
C0
C0
C0
C0
C0
ENDCHAR
STARTCHAR braceright
ENCODING 125
SWIDTH 333 0
DWIDTH 11 0
BBX 10 31 -1 -5
BITMAP
0100
01C0
00C0
00C0
00C0
00C0
00C0
01C0
0180
0180
0180
0180
0380
0380
0180
01C0
0380
0700
0600
0600
0E00
0C00
0C00
0C00
1C00
1800
1800
3800
3000
F000
4000
ENDCHAR
STARTCHAR asciitilde
ENCODING 126
SWIDTH 606 0
DWIDTH 20 0
BBX 17 5 1 6
BITMAP
1E0100
3FC380
7FFF00
E1FE00
403C00
ENDCHAR
STARTCHAR space
ENCODING 160
SWIDTH 278 0
DWIDTH 9 0
BBX 1 1 1 0
BITMAP
00
ENDCHAR
STARTCHAR exclamdown
ENCODING 161
SWIDTH 333 0
DWIDTH 11 0
BBX 9 25 0 -7
BITMAP
0300
0780
0780
0300
0000
0000
0000
0400
0400
0C00
0C00
0C00
1800
1800
1800
3800
3800
3000
7000
7000
F000
F000
F000
F000
E000
ENDCHAR
STARTCHAR cent
ENCODING 162
SWIDTH 556 0
DWIDTH 19 0
BBX 14 24 2 -4
BITMAP
0004
000C
0008
0018
03F0
0E30
1C58
38F8
7878
70F0
F080
E080
E180
E100
E300
E230
F620
74E0
3F80
0F00
0800
1800
1000
3000
ENDCHAR
STARTCHAR sterling
ENCODING 163
SWIDTH 556 0
DWIDTH 19 0
BBX 18 24 0 0
BITMAP
000E00
007F00
00E180
01C0C0
01C1C0
0383C0
0383C0
038180
038000
038000
038000
1FF800
1FF800
038000
038000
038000
038000
030000
070080
7E0180
CF0300
87FF00
CDFE00
78F800
ENDCHAR
STARTCHAR currency
ENCODING 164
SWIDTH 606 0
DWIDTH 19 0
BBX 16 16 1 4
BITMAP
C7E3
FFFF
7C3E
700E
6006
E007
C003
C003
C003
C003
E007
6006
700E
7C3E
FFFF
C7E3
ENDCHAR
STARTCHAR yen
ENCODING 165
SWIDTH 556 0
DWIDTH 19 0
BBX 20 23 1 0
BITMAP
FF8FF0
3C03E0
1C0380
1C0300
0E0200
0E0600
0F0C00
071800
071800
07B000
03E000
3FFE00
3FFE00
03C000
038000
7FFC00
7FFC00
078000
070000
070000
070000
0F8000
3FE000
ENDCHAR
STARTCHAR brokenbar
ENCODING 166
SWIDTH 606 0
DWIDTH 20 0
BBX 2 25 9 0
BITMAP
C0
C0
C0
C0
C0
C0
C0
C0
C0
C0
00
00
00
00
00
C0
C0
C0
C0
C0
C0
C0
C0
C0
C0
ENDCHAR
STARTCHAR section
ENCODING 167
SWIDTH 500 0
DWIDTH 17 0
BBX 17 30 -1 -5
BITMAP
007E00
01C700
018380
038780
038780
038300
01C000
01E000
00E000
0FF000
1CF800
383C00
303C00
381E00
380E00
380E00
3C0600
1E0600
0F0E00
0F9C00
07F800
03C000
03C000
01E000
60E000
70E000
F0E000
60C000
71C000
3F0000
ENDCHAR
STARTCHAR dieresis
ENCODING 168
SWIDTH 333 0
DWIDTH 11 0
BBX 9 3 3 19
BITMAP
6300
F780
6300
ENDCHAR
STARTCHAR copyright
ENCODING 169
SWIDTH 747 0
DWIDTH 25 0
BBX 23 25 1 0
BITMAP
00FC00
03FF80
0783C0
0E00E0
180070
300038
307E18
61E70C
63830C
C3810E
C30106
C70006
C70006
C70006
C70006
C78006
63800C
63C10C
61F71C
30FC18
380030
1C0070
0F01C0
03FF80
00FC00
ENDCHAR
STARTCHAR ordfeminine
ENCODING 170
SWIDTH 422 0
DWIDTH 14 0
BBX 12 14 3 11
BITMAP
1F60
39C0
70C0
61C0
E180
C180
C380
C390
EFE0
7980
0000
0000
0000
FFC0
ENDCHAR
STARTCHAR guillemotleft
ENCODING 171
SWIDTH 426 0
DWIDTH 14 0
BBX 14 11 -1 2
BITMAP
0204
060C
0C38
3870
70E0
E1C0
60C0
3060
3060
1830
0810
ENDCHAR
STARTCHAR logicalnot
ENCODING 172
SWIDTH 606 0
DWIDTH 20 0
BBX 17 9 1 4
BITMAP
FFFF80
FFFF80
000180
000180
000180
000180
000180
000180
000180
ENDCHAR
STARTCHAR hyphen
ENCODING 173
SWIDTH 333 0
DWIDTH 11 0
BBX 8 3 1 7
BITMAP
FF
FF
FF
ENDCHAR
STARTCHAR registered
ENCODING 174
SWIDTH 747 0
DWIDTH 25 0
BBX 23 25 1 0
BITMAP
007C00
03FF80
0783C0
0E00E0
1C0070
380038
33FE18
60C70C
60C30C
E0C30E
C0C306
C0CE06
C0FC06
C0CC06
C0CE06
C0C606
60C70C
60C30C
60C38C
33F1D8
380038
1C0070
0F01E0
03FF80
00FE00
ENDCHAR
STARTCHAR macron
ENCODING 175
SWIDTH 333 0
DWIDTH 11 0
BBX 9 2 3 19
BITMAP
FF80
FF80
ENDCHAR
STARTCHAR degree
ENCODING 176
SWIDTH 400 0
DWIDTH 13 0
BBX 10 9 4 15
BITMAP
3F00
7380
C0C0
C0C0
8040
C0C0
C0C0
7380
3F00
ENDCHAR
STARTCHAR plusminus
ENCODING 177
SWIDTH 606 0
DWIDTH 20 0
BBX 16 16 2 0
BITMAP
0180
0180
0180
0180
0180
FFFF
FFFF
0180
0180
0180
0180
0180
0000
0000
FFFF
FFFF
ENDCHAR
STARTCHAR twosuperior
ENCODING 178
SWIDTH 333 0
DWIDTH 11 0
BBX 11 14 1 9
BITMAP
0F80
18C0
3060
3060
3860
30E0
01C0
0300
0600
1C00
3040
60C0
FF80
FF80
ENDCHAR
STARTCHAR threesuperior
ENCODING 179
SWIDTH 333 0
DWIDTH 11 0
BBX 11 14 0 9
BITMAP
0F80
18C0
3060
3860
00E0
01C0
0F00
0180
00C0
60C0
E0C0
C1C0
E380
7E00
ENDCHAR
STARTCHAR acute
ENCODING 180
SWIDTH 333 0
DWIDTH 11 0
BBX 7 6 4 17
BITMAP
06
0E
1E
38
60
C0
ENDCHAR
STARTCHAR mu
ENCODING 181
SWIDTH 611 0
DWIDTH 20 0
BBX 20 22 -2 -6
BITMAP
01C0E0
0FC1E0
0381C0
0381C0
0303C0
030380
070380
060780
060700
0E0F00
0C0E00
0C1E30
1C3E60
1C6EC0
1FCF80
370700
200000
600000
600000
E00000
E00000
C00000
ENDCHAR
STARTCHAR paragraph
ENCODING 182
SWIDTH 650 0
DWIDTH 22 0
BBX 18 25 3 0
BITMAP
07FFC0
1E6300
3C6300
78C700
78C600
F8C600
F1C600
F18E00
F18C00
F18C00
7F8C00
071C00
031800
031800
071800
063800
063000
063000
0E3000
0C6000
0C6000
0C6000
1C6000
18C000
FFF000
ENDCHAR
STARTCHAR periodcentered
ENCODING 183
SWIDTH 278 0
DWIDTH 9 0
BBX 4 4 2 6
BITMAP
60
F0
F0
60
ENDCHAR
STARTCHAR cedilla
ENCODING 184
SWIDTH 333 0
DWIDTH 11 0
BBX 6 7 1 -7
BITMAP
10
20
78
0C
0C
9C
78
ENDCHAR
STARTCHAR onesuperior
ENCODING 185
SWIDTH 333 0
DWIDTH 11 0
BBX 9 14 1 9
BITMAP
0380
1F00
0300
0300
0700
0600
0600
0E00
0C00
0C00
0C00
1800
1800
FF00
ENDCHAR
STARTCHAR ordmasculine
ENCODING 186
SWIDTH 372 0
DWIDTH 12 0
BBX 9 14 3 11
BITMAP
1E00
3B00
6180
6180
C180
C180
C300
C300
6E00
7C00
0000
0000
0000
FF00
ENDCHAR
STARTCHAR guillemotright
ENCODING 187
SWIDTH 426 0
DWIDTH 14 0
BBX 13 11 0 2
BITMAP
2040
3060
1860
1830
0C38
0E18
1C38
3870
70C0
C180
8300
ENDCHAR
STARTCHAR onequarter
ENCODING 188
SWIDTH 834 0
DWIDTH 28 0
BBX 26 23 1 0
BITMAP
03801800
1F803000
03003000
03006000
07006000
0600C000
0601C000
0E018000
0C038000
0C0300C0
0C0701C0
1C0603C0
1C0E0780
FF0C0D80
001C1980
00183180
00306300
0030C300
0061FFC0
00600300
00C00600
00C00600
01801F80
ENDCHAR
STARTCHAR onehalf
ENCODING 189
SWIDTH 834 0
DWIDTH 28 0
BBX 27 23 1 0
BITMAP
03801800
1F003000
03003000
03006000
0700E000
0600C000
0601C000
0E018000
0C038000
0C030F80
0C071CC0
1C063060
1C0E3060
FF0C3860
001838E0
001801C0
00300380
00300600
00601800
00603040
00C060C0
00C0FF80
0180FF80
ENDCHAR
STARTCHAR threequarters
ENCODING 190
SWIDTH 834 0
DWIDTH 28 0
BBX 28 23 0 0
BITMAP
0F800C00
18C01C00
30601800
38603800
00E03000
01C07000
0F006000
01C0E000
00C0C000
60C18060
E0C180E0
C1C301E0
E38703C0
7E0606C0
000E0CC0
000C18C0
001C3180
00186180
0038FFF0
00300180
00700300
00600300
00C00F80
ENDCHAR
STARTCHAR questiondown
ENCODING 191
SWIDTH 444 0
DWIDTH 14 0
BBX 11 25 0 -7
BITMAP
00C0
01E0
01E0
00C0
0000
0000
0000
0780
0CC0
1840
1860
00C0
01C0
0780
0F80
1F00
7E00
7800
F060
E060
C060
C040
C0C0
7380
3F00
ENDCHAR
STARTCHAR Agrave
ENCODING 192
SWIDTH 704 0
DWIDTH 22 0
BBX 25 31 -3 0
BITMAP
00180000
001C0000
001E0000
00070000
00018000
0000C000
00000000
0000C000
0001C000
0001C000
0003C000
0007E000
000DE000
000DE000
0018E000
0018E000
0030F000
0070F000
0060F000
00C0F000
00C07000
01FFF800
01FFF800
03007800
03007800
06003800
0E003C00
0C003C00
1C003C00
3E007E00
FF81FF80
ENDCHAR
STARTCHAR Aacute
ENCODING 193
SWIDTH 704 0
DWIDTH 22 0
BBX 25 32 -3 0
BITMAP
00000C00
00001C00
00003C00
00007000
0000C000
00018000
00000000
0000C000
0001C000
0001C000
0003C000
0007C000
0007E000
000DE000
000DE000
0018E000
0018E000
0030F000
0070F000
0060F000
00C0F000
00C07000
01FFF800
01FFF800
03007800
03007800
06003800
0E003C00
0C003C00
1C003C00
3E007E00
FF81FF80
ENDCHAR
STARTCHAR Acircumflex
ENCODING 194
SWIDTH 704 0
DWIDTH 22 0
BBX 25 32 -3 0
BITMAP
00004000
0000E000
0001F000
00031000
00061800
000C0800
00000000
0000C000
0001C000
0001C000
0003C000
0007C000
0007E000
000DE000
000DE000
0018E000
0018E000
0030F000
0070F000
0060F000
00C0F000
00C07000
01FFF800
01FFF800
03007800
03007800
06003800
0E003C00
0C003C00
1C003C00
3E007E00
FF81FF80
ENDCHAR
STARTCHAR Atilde
ENCODING 195
SWIDTH 704 0
DWIDTH 22 0
BBX 25 30 -3 0
BITMAP
00070800
000FF800
00087000
00000000
00000000
0000C000
0001C000
0001C000
0003C000
0007C000
0007E000
000DE000
000DE000
0018E000
0018E000
0030F000
0070F000
0060F000
00C0F000
00C07000
01FFF800
01FFF800
03007800
03007800
06003800
0E003C00
0C003C00
1C003C00
3E007E00
FF81FF80
ENDCHAR
STARTCHAR Adieresis
ENCODING 196
SWIDTH 704 0
DWIDTH 22 0
BBX 25 30 -3 0
BITMAP
00031800
0007BC00
00031800
00000000
00000000
0000C000
0001C000
0001C000
0003C000
0007C000
0007E000
000DE000
000DE000
0018E000
0018E000
0030F000
0070F000
0060F000
00C0F000
00C07000
01FFF800
01FFF800
03007800
03007800
06003800
0E003C00
0C003C00
1C003C00
3E007E00
FF81FF80
ENDCHAR
STARTCHAR Aring
ENCODING 197
SWIDTH 704 0
DWIDTH 22 0
BBX 25 32 -3 0
BITMAP
0001E000
00033000
00021000
00021000
00033000
0001E000
00000000
0000C000
0001C000
0001C000
0003C000
0007C000
0007E000
000DE000
000DE000
0018E000
0018E000
0030F000
0070F000
0060F000
00C0F000
00C07000
01FFF800
01FFF800
03007800
03007800
06003800
0E003C00
0C003C00
1C003C00
3E007E00
FF81FF80
ENDCHAR
STARTCHAR AE
ENCODING 198
SWIDTH 870 0
DWIDTH 29 0
BBX 32 25 -3 0
BITMAP
001FFFFF
0007DE3F
00039C07
0003BC07
00033C03
00063C03
00063802
000C7862
001C7862
001878E0
003071C0
0070FFC0
0060FFC0
00C0E3C0
01FFE180
01FFE180
0301E180
0701C104
0603C10C
0C03C00C
0C03C01C
18078038
38078078
7C0FE3F8
FE1FFFF0
ENDCHAR
STARTCHAR Ccedilla
ENCODING 199
SWIDTH 722 0
DWIDTH 23 0
BBX 22 32 1 -7
BITMAP
007F80
01F1CC
03C07C
07803C
0F003C
1E0038
1E0018
3C0018
7C0010
780010
780000
F80000
F80000
F00000
F00000
F00000
F00000
F00000
F00020
780060
780040
3C00C0
3E0380
0F9F00
07F800
004000
008000
01E000
003000
003000
067000
03E000
ENDCHAR
STARTCHAR Egrave
ENCODING 200
SWIDTH 722 0
DWIDTH 23 0
BBX 24 32 -1 0
BITMAP
001800
001C00
001E00
000700
000180
0000C0
000000
07FFFF
00F83F
00F00F
00F007
00F007
00F003
01E002
01E0C2
01E0C2
01E1C0
03C180
03C780
03FF80
03CF80
078700
078300
078300
078304
0F020C
0F001C
0F0018
1E0038
1E00F8
3F03F0
FFFFF0
ENDCHAR
STARTCHAR Eacute
ENCODING 201
SWIDTH 722 0
DWIDTH 23 0
BBX 24 32 -1 0
BITMAP
000018
000038
000078
0000E0
000180
000300
000000
07FFFF
00F83F
00F00F
00F007
00F007
00F003
01E002
01E0C2
01E0C2
01E1C0
03C180
03C780
03FF80
03CF80
078700
078300
078300
078304
0F020C
0F001C
0F0018
1E0038
1E00F8
3F03F0
FFFFF0
ENDCHAR
STARTCHAR Ecircumflex
ENCODING 202
SWIDTH 722 0
DWIDTH 23 0
BBX 24 32 -1 0
BITMAP
000060
0000E0
0001F0
000310
000618
000C08
000000
07FFFF
00F83F
00F00F
00F007
00F007
00F003
01E002
01E0C2
01E0C2
01E1C0
03C180
03C780
03FF80
03CF80
078700
078300
078300
078304
0F020C
0F001C
0F0018
1E0038
1E00F8
3F03F0
FFFFF0
ENDCHAR
STARTCHAR Edieresis
ENCODING 203
SWIDTH 722 0
DWIDTH 23 0
BBX 24 30 -1 0
BITMAP
000630
000F78
000630
000000
000000
07FFFF
00F83F
00F00F
00F007
00F007
00F003
01E002
01E0C2
01E0C2
01E1C0
03C180
03C780
03FF80
03CF80
078700
078300
078300
078304
0F020C
0F001C
0F0018
1E0038
1E00F8
3F03F0
FFFFF0
ENDCHAR
STARTCHAR Igrave
ENCODING 204
SWIDTH 407 0
DWIDTH 13 0
BBX 15 32 -1 0
BITMAP
0600
0700
0780
01C0
0060
0030
0000
07FE
01F8
00F0
00F0
00E0
01E0
01E0
01E0
01C0
03C0
03C0
03C0
0380
0780
0780
0780
0700
0F00
0F00
0F00
0E00
1E00
1E00
3F00
FFC0
ENDCHAR
STARTCHAR Iacute
ENCODING 205
SWIDTH 407 0
DWIDTH 13 0
BBX 15 32 -1 0
BITMAP
0006
000E
001E
0038
0060
00C0
0000
07FE
01F8
00F0
00F0
00E0
01E0
01E0
01E0
01C0
03C0
03C0
03C0
0380
0780
0780
0780
0700
0F00
0F00
0F00
0E00
1E00
1E00
3F00
FFC0
ENDCHAR
STARTCHAR Icircumflex
ENCODING 206
SWIDTH 407 0
DWIDTH 13 0
BBX 15 32 -1 0
BITMAP
0018
0038
007C
00C4
0186
0302
0000
07FE
01F8
00F0
00F0
00E0
01E0
01E0
01E0
01C0
03C0
03C0
03C0
0380
0780
0780
0780
0700
0F00
0F00
0F00
0E00
1E00
1E00
3F00
FFC0
ENDCHAR
STARTCHAR Idieresis
ENCODING 207
SWIDTH 407 0
DWIDTH 13 0
BBX 16 30 -1 0
BITMAP
0186
03CF
0186
0000
0000
07FE
01F8
00F0
00F0
00E0
01E0
01E0
01E0
01C0
03C0
03C0
03C0
0380
0780
0780
0780
0700
0F00
0F00
0F00
0E00
1E00
1E00
3F00
FFC0
ENDCHAR
STARTCHAR Eth
ENCODING 208
SWIDTH 778 0
DWIDTH 26 0
BBX 26 25 -1 0
BITMAP
07FFF000
00FC3C00
00780E00
00F00700
00F00780
00F00380
00F00380
00E003C0
01E003C0
01E003C0
01E003C0
3FFF03C0
3FFF07C0
03C007C0
03C007C0
03800780
07800F80
07800F00
07801F00
0F001E00
0F003C00
0F007C00
0F00F000
1F07E000
FFFF0000
ENDCHAR
STARTCHAR Ntilde
ENCODING 209
SWIDTH 815 0
DWIDTH 27 0
BBX 30 31 -2 -1
BITMAP
0000E100
0001FF00
00010E00
00000000
00000000
07F807FC
00F801F0
007800E0
007C00E0
00FC00C0
00DE00C0
00DE00C0
009F0080
018F0180
018F0180
01878180
03078100
0303C300
0303C300
0301E300
0601E200
0601E600
0600F600
0600F600
0C007C00
0C007C00
0C003C00
1C003C00
3E003800
FF801800
00001800
ENDCHAR
STARTCHAR Ograve
ENCODING 210
SWIDTH 778 0
DWIDTH 26 0
BBX 24 32 1 0
BITMAP
003000
003800
003C00
000E00
000300
000180
000000
003FC0
00F8F0
03E038
07C01C
0F801E
1F000E
1E000F
3E000F
3C000F
7C000F
78000F
78001F
F8001F
F8001E
F0001E
F0003E
F0003C
F0007C
F00078
7000F8
7801F0
3803E0
3C0780
0F1F00
07FC00
ENDCHAR
STARTCHAR Oacute
ENCODING 211
SWIDTH 778 0
DWIDTH 26 0
BBX 24 32 1 0
BITMAP
000018
000038
000078
0000E0
000180
000300
000000
003FC0
00F8F0
03E038
07C01C
0F801E
1F000E
1E000F
3E000F
3C000F
7C000F
78000F
78001F
F8001F
F8001E
F0001E
F0003E
F0003C
F0007C
F00078
7000F8
7801F0
3803E0
3C0780
0F1F00
07FC00
ENDCHAR
STARTCHAR Ocircumflex
ENCODING 212
SWIDTH 778 0
DWIDTH 26 0
BBX 24 32 1 0
BITMAP
000180
000380
0007C0
000C40
001860
003020
000000
003FC0
00F8F0
03E038
07C01C
0F801E
1F000E
1E000F
3E000F
3C000F
7C000F
78000F
78001F
F8001F
F8001E
F0001E
F0003E
F0003C
F0007C
F00078
7000F8
7801F0
3803E0
3C0780
0F1F00
07FC00
ENDCHAR
STARTCHAR Otilde
ENCODING 213
SWIDTH 778 0
DWIDTH 26 0
BBX 24 30 1 0
BITMAP
000E10
001FF0
0010E0
000000
000000
003FC0
00F8F0
03E038
07C01C
0F801E
1F000E
1E000F
3E000F
3C000F
7C000F
78000F
78001F
F8001F
F8001E
F0001E
F0003E
F0003C
F0007C
F00078
7000F8
7801F0
3803E0
3C0780
0F1F00
07FC00
ENDCHAR
STARTCHAR Odieresis
ENCODING 214
SWIDTH 778 0
DWIDTH 26 0
BBX 24 30 1 0
BITMAP
001860
003CF0
001860
000000
000000
003FC0
00F8F0
03E038
07C01C
0F801E
1F000E
1E000F
3E000F
3C000F
7C000F
78000F
78001F
F8001F
F8001E
F0001E
F0003E
F0003C
F0007C
F00078
7000F8
7801F0
3803E0
3C0780
0F1F00
07FC00
ENDCHAR
STARTCHAR multiply
ENCODING 215
SWIDTH 606 0
DWIDTH 20 0
BBX 17 17 1 0
BITMAP
400100
E00380
700700
380E00
1C1C00
0E3800
077000
03E000
01C000
03E000
077000
0E3800
1C1C00
380E00
700700
E00380
400100
ENDCHAR
STARTCHAR Oslash
ENCODING 216
SWIDTH 778 0
DWIDTH 26 0
BBX 24 27 1 -1
BITMAP
000003
003FC6
00F8FC
03E03C
07C03C
0F803E
1F006E
1E00CF
3E018F
3C030F
7C070F
78060F
780C1F
F8181F
F8301E
F0601E
F0E03E
F0C03C
F1807C
F30078
7600F8
7E00F0
3C01E0
3C03C0
3F1F00
67FC00
C00000
ENDCHAR
STARTCHAR Ugrave
ENCODING 217
SWIDTH 815 0
DWIDTH 27 0
BBX 26 32 3 0
BITMAP
00180000
001C0000
001E0000
00070000
00018000
0000C000
00000000
7FE07FC0
1F801F00
0F000E00
0F000C00
1E000C00
1E000C00
1E001800
1E001800
3C001800
3C001800
3C003000
3C003000
78003000
78002000
78006000
78006000
F0006000
F0004000
F000C000
F000C000
F0018000
78038000
78070000
3E1E0000
0FF80000
ENDCHAR
STARTCHAR Uacute
ENCODING 218
SWIDTH 815 0
DWIDTH 27 0
BBX 26 32 3 0
BITMAP
00003000
00007000
0000F000
0001C000
00030000
00060000
00000000
7FE07FC0
1F801F00
0F000E00
0F000C00
1E000C00
1E000C00
1E001800
1E001800
3C001800
3C001800
3C003000
3C003000
78003000
78002000
78006000
78006000
F0006000
F0004000
F000C000
F000C000
F0018000
78038000
78070000
3E1E0000
0FF80000
ENDCHAR
STARTCHAR Ucircumflex
ENCODING 219
SWIDTH 815 0
DWIDTH 27 0
BBX 26 32 3 0
BITMAP
00018000
00038000
0007C000
000C4000
00186000
00302000
00000000
7FE07FC0
1F801F00
0F000E00
0F000C00
1E000C00
1E000C00
1E001800
1E001800
3C001800
3C001800
3C003000
3C003000
78003000
78002000
78006000
78006000
F0006000
F0004000
F000C000
F000C000
F0018000
78038000
78070000
3E1E0000
0FF80000
ENDCHAR
STARTCHAR Udieresis
ENCODING 220
SWIDTH 815 0
DWIDTH 27 0
BBX 26 30 3 0
BITMAP
00186000
003CF000
00186000
00000000
00000000
7FE07FC0
1F801F00
0F000E00
0F000C00
1E000C00
1E000C00
1E001800
1E001800
3C001800
3C001800
3C003000
3C003000
78003000
78002000
78006000
78006000
F0006000
F0004000
F000C000
F000C000
F0018000
78038000
78070000
3E1E0000
0FF80000
ENDCHAR
STARTCHAR Yacute
ENCODING 221
SWIDTH 685 0
DWIDTH 23 0
BBX 25 32 1 0
BITMAP
00006000
0000E000
0001E000
00038000
00060000
000C0000
00000000
FFE1FF80
3F807E00
1F003800
0F003000
0F006000
0780E000
0780C000
03C18000
03C30000
03C70000
01E60000
01EC0000
00FC0000
00F80000
00F00000
00F00000
00F00000
01E00000
01E00000
01E00000
01E00000
03C00000
03C00000
0FE00000
3FFC0000
ENDCHAR
STARTCHAR Thorn
ENCODING 222
SWIDTH 667 0
DWIDTH 22 0
BBX 22 25 -1 0
BITMAP
07FE00
01F800
00F000
00F000
00E000
00E000
01FFC0
01E1F0
01E078
03C038
03C03C
03C03C
03803C
07807C
078078
0780F8
0701F0
0F0FE0
0FFF80
0F0000
0E0000
1E0000
1E0000
3F0000
FFC000
ENDCHAR
STARTCHAR germandbls
ENCODING 223
SWIDTH 556 0
DWIDTH 19 0
BBX 20 31 -2 -6
BITMAP
000F80
0038E0
007060
00E070
00C070
01C070
018070
0380E0
0380E0
0383C0
031F00
070600
070380
070180
0E01C0
0E01C0
0E01C0
0E03C0
1C03C0
1C03C0
1CC380
1DE780
39E700
39CE00
38F800
700000
700000
700000
E00000
E00000
E00000
ENDCHAR
STARTCHAR agrave
ENCODING 224
SWIDTH 574 0
DWIDTH 18 0
BBX 17 23 0 0
BITMAP
060000
070000
078000
01C000
006000
003000
000000
03C300
0FE700
1E3700
3C1E00
381E00
781E00
701C00
F01C00
E01C00
E03800
E03800
E03880
E07980
F0FB00
7BBF00
3E1C00
ENDCHAR
STARTCHAR aacute
ENCODING 225
SWIDTH 574 0
DWIDTH 18 0
BBX 17 23 0 0
BITMAP
000300
000700
000F00
001C00
003000
006000
000000
03C300
0FE700
1E3700
3C1E00
381E00
781E00
701C00
F01C00
E01C00
E03800
E03800
E03880
E07980
F0FB00
7BBF00
3E1C00
ENDCHAR
STARTCHAR acircumflex
ENCODING 226
SWIDTH 574 0
DWIDTH 18 0
BBX 17 23 0 0
BITMAP
003000
007000
00F800
018800
030C00
060400
000000
03C300
0FE700
1E3700
3C1E00
381E00
781E00
701C00
F01C00
E01C00
E03800
E03800
E03880
E07980
F0FB00
7BBF00
3E1C00
ENDCHAR
STARTCHAR atilde
ENCODING 227
SWIDTH 574 0
DWIDTH 18 0
BBX 17 21 0 0
BITMAP
038400
07FC00
043800
000000
000000
03C300
0FE700
1E3700
3C1E00
381E00
781E00
701C00
F01C00
E01C00
E03800
E03800
E03880
E07980
F0FB00
7BBF00
3E1C00
ENDCHAR
STARTCHAR adieresis
ENCODING 228
SWIDTH 574 0
DWIDTH 18 0
BBX 17 21 0 0
BITMAP
018C00
03DE00
018C00
000000
000000
03C300
0FE700
1E3700
3C1E00
381E00
781E00
701C00
F01C00
E01C00
E03800
E03800
E03880
E07980
F0FB00
7BBF00
3E1C00
ENDCHAR
STARTCHAR aring
ENCODING 229
SWIDTH 574 0
DWIDTH 18 0
BBX 17 23 0 0
BITMAP
00F000
019800
010800
010800
019800
00F000
000000
03C300
0FE700
1E3700
3C1E00
381E00
781E00
701C00
F01C00
E01C00
E03800
E03800
E03880
E07980
F0FB00
7BBF00
3E1C00
ENDCHAR
STARTCHAR ae
ENCODING 230
SWIDTH 722 0
DWIDTH 23 0
BBX 23 16 -1 0
BITMAP
07E0FC
0C3B9E
1C1F0E
1C1E0E
1C1E0E
001C1C
001C78
03FBE0
1F3F00
783800
F03800
E07800
E0F80C
F19C38
7F1FF0
3C07C0
ENDCHAR
STARTCHAR ccedilla
ENCODING 231
SWIDTH 444 0
DWIDTH 14 0
BBX 13 23 0 -7
BITMAP
03E0
0E30
1C18
3878
7878
7030
F000
F000
E000
E000
E000
E000
E030
7060
7DC0
1F00
0200
0400
0F00
0180
0180
1380
0F00
ENDCHAR
STARTCHAR egrave
ENCODING 232
SWIDTH 444 0
DWIDTH 14 0
BBX 13 23 0 0
BITMAP
1800
1C00
1E00
0700
0180
00C0
0000
03E0
0E70
1C38
3838
3838
7070
70E0
F1C0
E700
FC00
E000
E000
E030
7060
7BC0
1F00
ENDCHAR
STARTCHAR eacute
ENCODING 233
SWIDTH 444 0
DWIDTH 14 0
BBX 13 23 0 0
BITMAP
0018
0038
0078
00E0
0180
0300
0000
03E0
0E70
1C38
3838
3838
7070
70E0
F1C0
E700
FC00
E000
E000
E030
7060
7BC0
1F00
ENDCHAR
STARTCHAR ecircumflex
ENCODING 234
SWIDTH 444 0
DWIDTH 14 0
BBX 13 23 0 0
BITMAP
0060
00E0
01F0
0310
0618
0C08
0000
03E0
0E70
1C38
3838
3838
7070
70E0
F1C0
E700
FC00
E000
E000
E030
7060
7BC0
1F00
ENDCHAR
STARTCHAR edieresis
ENCODING 235
SWIDTH 444 0
DWIDTH 14 0
BBX 13 21 0 0
BITMAP
0630
0F78
0630
0000
0000
03E0
0E70
1C38
3838
3838
7070
70E0
F1C0
E700
FC00
E000
E000
E030
7060
7BC0
1F00
ENDCHAR
STARTCHAR igrave
ENCODING 236
SWIDTH 333 0
DWIDTH 11 0
BBX 8 23 1 0
BITMAP
C0
E0
F0
38
0C
06
00
0E
7E
1C
1C
1C
38
38
38
70
70
71
E3
E2
E6
FC
70
ENDCHAR
STARTCHAR iacute
ENCODING 237
SWIDTH 333 0
DWIDTH 11 0
BBX 11 23 1 0
BITMAP
0060
00E0
01E0
0380
0600
0C00
0000
0E00
7E00
1C00
1C00
1C00
3800
3800
3800
7000
7000
7100
E300
E200
E600
FC00
7000
ENDCHAR
STARTCHAR icircumflex
ENCODING 238
SWIDTH 333 0
DWIDTH 11 0
BBX 10 23 1 0
BITMAP
0300
0700
0F80
1880
30C0
6040
0000
0E00
7E00
1C00
1C00
1C00
3800
3800
3800
7000
7000
7100
E300
E200
E600
FC00
7000
ENDCHAR
STARTCHAR idieresis
ENCODING 239
SWIDTH 333 0
DWIDTH 11 0
BBX 10 21 1 0
BITMAP
3180
7BC0
3180
0000
0000
0E00
7E00
1C00
1C00
1C00
3800
3800
3800
7000
7000
7100
E300
E200
E600
FC00
7000
ENDCHAR
STARTCHAR eth
ENCODING 240
SWIDTH 500 0
DWIDTH 16 0
BBX 15 25 0 0
BITMAP
0600
070C
01D8
00F0
01E0
0370
0638
001C
001C
03FC
0E7E
1C1E
380E
780E
700E
F00E
F00E
E01E
E01C
E01C
E038
E038
7070
38E0
1F80
ENDCHAR
STARTCHAR ntilde
ENCODING 241
SWIDTH 611 0
DWIDTH 20 0
BBX 17 21 1 0
BITMAP
01C200
03FE00
021C00
000000
000000
1C3800
7CFC00
1D8E00
1F0E00
1E0E00
3C1C00
381C00
381C00
783800
703800
703800
703080
E07180
E07300
E07E00
E03800
ENDCHAR
STARTCHAR ograve
ENCODING 242
SWIDTH 500 0
DWIDTH 16 0
BBX 15 23 0 0
BITMAP
0C00
0E00
0F00
0380
00C0
0060
0000
03F0
0E38
1C1C
380C
780E
700E
700E
F00E
E01E
E01C
E01C
E038
E038
7070
38E0
1F80
ENDCHAR
STARTCHAR oacute
ENCODING 243
SWIDTH 500 0
DWIDTH 16 0
BBX 15 23 0 0
BITMAP
000C
001C
003C
0070
00C0
0180
0000
03F0
0E38
1C1C
380C
780E
700E
700E
F00E
E01E
E01C
E01C
E038
E038
7070
38E0
1F80
ENDCHAR
STARTCHAR ocircumflex
ENCODING 244
SWIDTH 500 0
DWIDTH 16 0
BBX 15 23 0 0
BITMAP
0020
0070
00F8
0188
030C
0604
0000
03F0
0E38
1C1C
380C
780E
700E
700E
F00E
E01E
E01C
E01C
E038
E038
7070
38E0
1F80
ENDCHAR
STARTCHAR otilde
ENCODING 245
SWIDTH 500 0
DWIDTH 16 0
BBX 15 21 0 0
BITMAP
0384
07FC
0438
0000
0000
03F0
0E38
1C1C
380C
780E
700E
700E
F00E
E01E
E01C
E01C
E038
E038
7070
38E0
1F80
ENDCHAR
STARTCHAR odieresis
ENCODING 246
SWIDTH 500 0
DWIDTH 16 0
BBX 15 21 0 0
BITMAP
0318
07BC
0318
0000
0000
03F0
0E38
1C1C
380C
780E
700E
700E
F00E
E01E
E01C
E01C
E038
E038
7070
38E0
1F80
ENDCHAR
STARTCHAR divide
ENCODING 247
SWIDTH 606 0
DWIDTH 20 0
BBX 18 14 1 1
BITMAP
00C000
01E000
01E000
00C000
000000
000000
FFFFC0
FFFFC0
000000
000000
00C000
01E000
01E000
00C000
ENDCHAR
STARTCHAR oslash
ENCODING 248
SWIDTH 500 0
DWIDTH 16 0
BBX 15 23 0 -4
BITMAP
0004
000C
0008
03F8
0F38
1C3C
386C
784E
70CE
708E
F18E
E31E
E21C
E61C
E438
EC38
7870
38E0
3F80
2000
6000
4000
4000
ENDCHAR
STARTCHAR ugrave
ENCODING 249
SWIDTH 611 0
DWIDTH 20 0
BBX 17 23 1 0
BITMAP
060000
070000
078000
01C000
006000
003000
000000
1C0700
7C0F00
1C0E00
1C0E00
381E00
381C00
381C00
703C00
703800
707800
E07800
E0F180
E1F300
E37700
FE7C00
783800
ENDCHAR
STARTCHAR uacute
ENCODING 250
SWIDTH 611 0
DWIDTH 20 0
BBX 17 23 1 0
BITMAP
000C00
001C00
003C00
007000
00C000
018000
000000
1C0700
7C0F00
1C0E00
1C0E00
381E00
381C00
381C00
703C00
703800
707800
E07800
E0F180
E1F300
E37700
FE7C00
783800
ENDCHAR
STARTCHAR ucircumflex
ENCODING 251
SWIDTH 611 0
DWIDTH 20 0
BBX 17 23 1 0
BITMAP
003000
007000
00F800
018800
030C00
060400
000000
1C0700
7C0F00
1C0E00
1C0E00
381E00
381C00
381C00
703C00
703800
707800
E07800
E0F180
E1F300
E37700
FE7C00
783800
ENDCHAR
STARTCHAR udieresis
ENCODING 252
SWIDTH 611 0
DWIDTH 20 0
BBX 17 21 1 0
BITMAP
031800
07BC00
031800
000000
000000
1C0700
7C0F00
1C0E00
1C0E00
381E00
381C00
381C00
703C00
703800
707800
E07800
E0F180
E1F300
E37700
FE7C00
783800
ENDCHAR
STARTCHAR yacute
ENCODING 253
SWIDTH 500 0
DWIDTH 16 0
BBX 18 30 -3 -7
BITMAP
000300
000700
000F00
001C00
003000
006000
000000
0701C0
0F81C0
0F81C0
1BC1C0
11C180
11C180
01C100
00E300
00E200
00E600
00E400
007C00
007800
007800
007000
006000
006000
00C000
00C000
E18000
E30000
E60000
7C0000
ENDCHAR
STARTCHAR thorn
ENCODING 254
SWIDTH 574 0
DWIDTH 19 0
BBX 20 28 -3 -7
BITMAP
01F800
007000
007000
007000
00E000
00E380
00EFE0
00F8E0
01F070
01E070
01C070
038070
0380F0
0380F0
0380E0
0700E0
0701C0
0703C0
0F8380
0EDF00
0E7C00
0E0000
1C0000
1C0000
1C0000
380000
380000
FE0000
ENDCHAR
STARTCHAR ydieresis
ENCODING 255
SWIDTH 500 0
DWIDTH 16 0
BBX 18 28 -3 -7
BITMAP
00C600
01EF00
00C600
000000
000000
0701C0
0F81C0
0F81C0
1BC1C0
11C180
11C180
01C100
00E300
00E200
00E600
00E400
007C00
007800
007800
007000
006000
006000
00C000
00C000
E18000
E30000
E60000
7C0000
ENDCHAR
STARTCHAR Amacron
ENCODING 256
SWIDTH 704 0
DWIDTH 22 0
BBX 25 28 -3 0
BITMAP
003FE000
003FE000
00000000
0000C000
0001C000
0001C000
0003C000
0007C000
0007E000
000DE000
000DE000
0018E000
0018E000
0030F000
0070F000
0060F000
00C0F000
00C07000
01FFF800
01FFF800
03007800
03007800
06003800
0E003C00
0C003C00
1C003C00
3E007E00
FF81FF80
ENDCHAR
STARTCHAR amacron
ENCODING 257
SWIDTH 574 0
DWIDTH 18 0
BBX 17 19 0 0
BITMAP
07FC00
07FC00
000000
03C300
0FE700
1E3700
3C1E00
381E00
781E00
701C00
F01C00
E01C00
E03800
E03800
E03800
E07880
F0F980
7BBF00
3E1C00
ENDCHAR
STARTCHAR Abreve
ENCODING 258
SWIDTH 704 0
DWIDTH 22 0
BBX 25 30 -3 0
BITMAP
00303000
00306000
001FC000
00070000
00000000
0000C000
0001C000
0001C000
0003C000
0007C000
0007E000
000DE000
000DE000
0018E000
0018E000
0030F000
0070F000
0060F000
00C0F000
00C07000
01FFF800
01FFF800
03007800
03007800
06003800
0E003C00
0C003C00
1C003C00
3E007E00
FF81FF80
ENDCHAR
STARTCHAR abreve
ENCODING 259
SWIDTH 574 0
DWIDTH 18 0
BBX 17 21 0 0
BITMAP
0C0C00
0C1800
07F000
01C000
000000
03C300
0FE700
1E3700
3C1E00
381E00
781E00
701C00
F01C00
E01C00
E03800
E03800
E03800
E07880
F0F980
7BBF00
3E1C00
ENDCHAR
STARTCHAR Aogonek
ENCODING 260
SWIDTH 704 0
DWIDTH 22 0
BBX 25 30 -3 -5
BITMAP
0000C000
0001C000
0001C000
0003C000
0007C000
0007E000
000DE000
000DE000
0018E000
0018E000
0030F000
0070F000
0060F000
00C0F000
00C07000
01FFF800
01FFF800
03007800
03007800
06003800
0E003C00
0C003C00
1C003C00
3E007E00
FF81FF80
00060000
000C0000
00180000
001D8000
000F0000
ENDCHAR
STARTCHAR aogonek
ENCODING 261
SWIDTH 574 0
DWIDTH 18 0
BBX 17 21 0 -5
BITMAP
03C300
0FE700
1E3700
3C1E00
381E00
781E00
701C00
F01C00
E01C00
E03800
E03800
E03800
E07880
F0F980
7BBF00
3E1C00
00C000
018000
030000
03B000
01E000
ENDCHAR
STARTCHAR Cacute
ENCODING 262
SWIDTH 722 0
DWIDTH 23 0
BBX 22 32 1 0
BITMAP
000180
000380
000780
000E00
001800
003000
000000
003F04
01F3CC
03C0FC
07803C
0F003C
1E0038
1E0018
3C0018
7C0010
780010
780000
F80000
F80000
F00000
F00000
F00000
F00000
F00000
F00020
780060
780040
3C01C0
3F0380
0FCF00
03FC00
ENDCHAR
STARTCHAR cacute
ENCODING 263
SWIDTH 444 0
DWIDTH 14 0
BBX 13 23 0 0
BITMAP
0030
0070
00F0
01C0
0300
0600
0000
03E0
0E30
1C18
3878
7878
7030
F000
E000
E000
E000
E000
E000
E030
7060
7DC0
1F00
ENDCHAR
STARTCHAR Ccircumflex
ENCODING 264
SWIDTH 722 0
DWIDTH 23 0
BBX 22 32 1 0
BITMAP
000600
000E00
001F00
003100
006180
00C080
000000
003F04
01F3CC
03C0FC
07803C
0F003C
1E0038
1E0018
3C0018
7C0010
780010
780000
F80000
F80000
F00000
F00000
F00000
F00000
F00000
F00020
780060
780040
3C01C0
3F0380
0FCF00
03FC00
ENDCHAR
STARTCHAR ccircumflex
ENCODING 265
SWIDTH 444 0
DWIDTH 14 0
BBX 13 23 0 0
BITMAP
00C0
01C0
03E0
0620
0C30
1810
0000
03E0
0E30
1C18
3878
7878
7030
F000
E000
E000
E000
E000
E000
E030
7060
7DC0
1F00
ENDCHAR
STARTCHAR Cdotaccent
ENCODING 266
SWIDTH 722 0
DWIDTH 23 0
BBX 22 29 1 0
BITMAP
001800
003C00
001800
000000
003F04
01F3CC
03C0FC
07803C
0F003C
1E0038
1E0018
3C0018
7C0010
780010
780000
F80000
F80000
F00000
F00000
F00000
F00000
F00000
F00020
780060
780040
3C01C0
3F0380
0FCF00
03FC00
ENDCHAR
STARTCHAR cdotaccent
ENCODING 267
SWIDTH 444 0
DWIDTH 14 0
BBX 13 20 0 0
BITMAP
0300
0780
0300
0000
03E0
0E30
1C18
3878
7878
7030
F000
E000
E000
E000
E000
E000
E030
7060
7DC0
1F00
ENDCHAR
STARTCHAR Ccaron
ENCODING 268
SWIDTH 722 0
DWIDTH 23 0
BBX 22 32 1 0
BITMAP
0040C0
006180
002300
003E00
001C00
001800
000000
003F04
01F3CC
03C0FC
07803C
0F003C
1E0038
1E0018
3C0018
7C0010
780010
780000
F80000
F80000
F00000
F00000
F00000
F00000
F00000
F00020
780060
780040
3C01C0
3F0380
0FCF00
03FC00
ENDCHAR
STARTCHAR ccaron
ENCODING 269
SWIDTH 444 0
DWIDTH 14 0
BBX 13 23 0 0
BITMAP
0818
0C30
0460
07C0
0380
0300
0000
03E0
0E30
1C18
3878
7878
7030
F000
E000
E000
E000
E000
E000
E030
7060
7DC0
1F00
ENDCHAR
STARTCHAR Dcaron
ENCODING 270
SWIDTH 778 0
DWIDTH 26 0
BBX 26 32 -1 0
BITMAP
00103000
00186000
0008C000
000F8000
00070000
00060000
00000000
07FFF000
00FC7C00
00781F00
00780700
00F00780
00F00380
00F003C0
00F003C0
01E003C0
01E003C0
01E003C0
01E003C0
03C007C0
03C007C0
03C00780
03C00F80
07800F80
07800F00
07801F00
07801E00
0F003C00
0F007800
0F01F000
1F1FE000
FFFF0000
ENDCHAR
STARTCHAR dcaron
ENCODING 271
SWIDTH 784 0
DWIDTH 26 0
BBX 26 25 0 0
BITMAP
0000E180
0003E3C0
0000E3C0
0000E3C0
0001C080
0001C180
0001C300
0003C600
00038C00
01F38000
0F1B8000
1E0F0000
3C0F0000
380F0000
780E0000
700E0000
F00E0000
F00E0000
E01C0000
E01C0000
E03C0000
E03C4000
7078C000
79DF8000
3F8E0000
ENDCHAR
STARTCHAR Dcroat
ENCODING 272
SWIDTH 778 0
DWIDTH 26 0
BBX 26 25 -1 0
BITMAP
07FFF000
00FC3C00
00780E00
00F00700
00F00780
00F00380
00F00380
00E003C0
01E003C0
01E003C0
01E003C0
3FFF03C0
3FFF07C0
03C007C0
03C007C0
03800780
07800F80
07800F00
07801F00
0F001E00
0F003C00
0F007C00
0F00F000
1F07E000
FFFF0000
ENDCHAR
STARTCHAR dcroat
ENCODING 273
SWIDTH 611 0
DWIDTH 20 0
BBX 22 25 0 0
BITMAP
0000E0
0003E0
0000E0
0000E0
0001C0
0001C0
0001C0
01FFFC
01FFFC
01F380
0F1B80
1E0F00
3C0F00
380F00
780E00
700E00
F00E00
F00E00
E01C00
E01C00
E03C00
E03C40
7078C0
79DF80
3F8E00
ENDCHAR
STARTCHAR Emacron
ENCODING 274
SWIDTH 722 0
DWIDTH 23 0
BBX 24 28 -1 0
BITMAP
007FC0
007FC0
000000
07FFFF
00F83F
00F00F
00F007
00F007
00F003
01E042
01E0C2
01E0C0
01E1C0
03C380
03FF80
03FF80
038700
078700
078300
078200
070204
0F000C
0F0018
0F0018
1E0038
1E00F8
3F07F0
FFFFF0
ENDCHAR
STARTCHAR emacron
ENCODING 275
SWIDTH 444 0
DWIDTH 14 0
BBX 13 19 0 0
BITMAP
1FF0
1FF0
0000
03E0
0E70
1C38
3838
3838
7070
70E0
F1C0
E700
FC00
E000
E000
E030
7060
7BC0
1F00
ENDCHAR
STARTCHAR Ebreve
ENCODING 276
SWIDTH 722 0
DWIDTH 23 0
BBX 24 30 -1 0
BITMAP
006060
0060C0
003F80
000E00
000000
07FFFF
00F83F
00F00F
00F007
00F007
00F003
01E042
01E0C2
01E0C0
01E1C0
03C380
03FF80
03FF80
038700
078700
078300
078200
070204
0F000C
0F0018
0F0018
1E0038
1E00F8
3F07F0
FFFFF0
ENDCHAR
STARTCHAR ebreve
ENCODING 277
SWIDTH 444 0
DWIDTH 14 0
BBX 13 21 0 0
BITMAP
1818
1830
0FE0
0380
0000
03E0
0E70
1C38
3838
3838
7070
70E0
F1C0
E700
FC00
E000
E000
E030
7060
7BC0
1F00
ENDCHAR
STARTCHAR Edotaccent
ENCODING 278
SWIDTH 722 0
DWIDTH 23 0
BBX 24 29 -1 0
BITMAP
000600
000F00
000600
000000
07FFFF
00F83F
00F00F
00F007
00F007
00F003
01E042
01E0C2
01E0C0
01E1C0
03C380
03FF80
03FF80
038700
078700
078300
078200
070204
0F000C
0F0018
0F0018
1E0038
1E00F8
3F07F0
FFFFF0
ENDCHAR
STARTCHAR edotaccent
ENCODING 279
SWIDTH 444 0
DWIDTH 14 0
BBX 13 20 0 0
BITMAP
0300
0780
0300
0000
03E0
0E70
1C38
3838
3838
7070
70E0
F1C0
E700
FC00
E000
E000
E030
7060
7BC0
1F00
ENDCHAR
STARTCHAR Eogonek
ENCODING 280
SWIDTH 722 0
DWIDTH 23 0
BBX 24 30 -1 -5
BITMAP
07FFFF
00F83F
00F00F
00F007
00F007
00F003
01E042
01E0C2
01E0C0
01E1C0
03C380
03FF80
03FF80
038700
078700
078300
078200
070204
0F000C
0F0018
0F0018
1E0038
1E00F8
3F07F0
FFFFF0
001800
003000
006000
007600
003C00
ENDCHAR
STARTCHAR eogonek
ENCODING 281
SWIDTH 444 0
DWIDTH 14 0
BBX 13 21 0 -5
BITMAP
03E0
0E70
1C38
3838
3838
7070
70E0
F1C0
E700
FC00
E000
E000
E030
7060
7BC0
1F00
0600
0C00
1800
1D80
0F00
ENDCHAR
STARTCHAR Ecaron
ENCODING 282
SWIDTH 722 0
DWIDTH 23 0
BBX 24 32 -1 0
BITMAP
002060
0030C0
001180
001F00
000E00
000C00
000000
07FFFF
00F83F
00F00F
00F007
00F007
00F003
01E042
01E0C2
01E0C0
01E1C0
03C380
03FF80
03FF80
038700
078700
078300
078200
070204
0F000C
0F0018
0F0018
1E0038
1E00F8
3F07F0
FFFFF0
ENDCHAR
STARTCHAR ecaron
ENCODING 283
SWIDTH 444 0
DWIDTH 14 0
BBX 13 23 0 0
BITMAP
0818
0C30
0460
07C0
0380
0300
0000
03E0
0E70
1C38
3838
3838
7070
70E0
F1C0
E700
FC00
E000
E000
E030
7060
7BC0
1F00
ENDCHAR
STARTCHAR Gcircumflex
ENCODING 284
SWIDTH 778 0
DWIDTH 25 0
BBX 24 32 1 0
BITMAP
000300
000700
000F80
001880
0030C0
006040
000000
003FC2
00F9E6
03C07E
07803E
0F001E
1F001C
1E000C
3C000C
3C0008
7C0008
780000
780000
F80000
F007FF
F007FF
F00078
F00078
F00070
F000F0
7000F0
7801E0
3801E0
3C03E0
1F9E60
07FC40
ENDCHAR
STARTCHAR gcircumflex
ENCODING 285
SWIDTH 537 0
DWIDTH 17 0
BBX 20 31 -3 -7
BITMAP
000600
000E00
001F00
003100
006180
00C080
000000
0000F0
007FF0
01E730
038380
0701C0
0701C0
0701C0
070380
070380
030700
018F00
0FFC00
180000
180000
1FF000
1FFE00
1FFF00
780F00
600700
E00300
E00700
E00E00
7C3C00
1FF000
ENDCHAR
STARTCHAR Gbreve
ENCODING 286
SWIDTH 778 0
DWIDTH 25 0
BBX 24 30 1 0
BITMAP
006060
0060C0
003F80
000E00
000000
003FC2
00F9E6
03C07E
07803E
0F001E
1F001C
1E000C
3C000C
3C0008
7C0008
780000
780000
F80000
F007FF
F007FF
F00078
F00078
F00070
F000F0
7000F0
7801E0
3801E0
3C03E0
1F9E60
07FC40
ENDCHAR
STARTCHAR gbreve
ENCODING 287
SWIDTH 537 0
DWIDTH 17 0
BBX 20 29 -3 -7
BITMAP
018180
018300
00FE00
003800
000000
0000F0
007FF0
01E730
038380
0701C0
0701C0
0701C0
070380
070380
030700
018F00
0FFC00
180000
180000
1FF000
1FFE00
1FFF00
780F00
600700
E00300
E00700
E00E00
7C3C00
1FF000
ENDCHAR
STARTCHAR Gdotaccent
ENCODING 288
SWIDTH 778 0
DWIDTH 25 0
BBX 24 29 1 0
BITMAP
000C00
001E00
000C00
000000
003FC2
00F9E6
03C07E
07803E
0F001E
1F001C
1E000C
3C000C
3C0008
7C0008
780000
780000
F80000
F007FF
F007FF
F00078
F00078
F00070
F000F0
7000F0
7801E0
3801E0
3C03E0
1F9E60
07FC40
ENDCHAR
STARTCHAR gdotaccent
ENCODING 289
SWIDTH 537 0
DWIDTH 17 0
BBX 20 28 -3 -7
BITMAP
001800
003C00
001800
000000
0000F0
007FF0
01E730
038380
0701C0
0701C0
0701C0
070380
070380
030700
018F00
0FFC00
180000
180000
1FF000
1FFE00
1FFF00
780F00
600700
E00300
E00700
E00E00
7C3C00
1FF000
ENDCHAR
STARTCHAR Gcommaaccent
ENCODING 290
SWIDTH 778 0
DWIDTH 25 0
BBX 24 35 1 -10
BITMAP
003FC2
00F9E6
03C07E
07803E
0F001E
1F001C
1E000C
3C000C
3C0008
7C0008
780000
780000
F80000
F007FF
F007FF
F00078
F00078
F00070
F000F0
7000F0
7801E0
3801E0
3C03E0
1F9E60
07FC40
000000
003000
007800
007800
007800
001000
003000
006000
00C000
018000
ENDCHAR
STARTCHAR gcommaaccent
ENCODING 291
SWIDTH 537 0
DWIDTH 17 0
BBX 20 34 -3 -7
BITMAP
000300
000600
000C00
001800
001000
003C00
003C00
003C00
001800
000000
0000F0
007FF0
01E730
038380
0701C0
0701C0
0701C0
070380
070380
030700
018F00
0FFC00
180000
180000
1FF000
1FFE00
1FFF00
780F00
600700
E00300
E00700
E00E00
7C3C00
1FF000
ENDCHAR
STARTCHAR Hcircumflex
ENCODING 292
SWIDTH 833 0
DWIDTH 27 0
BBX 31 32 -1 0
BITMAP
00006000
0000E000
0001F000
00031000
00061800
000C0800
00000000
07FF0FFE
01FC03F8
00F001E0
00F001E0
00F001C0
01E003C0
01E003C0
01E003C0
01E003C0
03C00780
03C00780
03FFFF80
03FFFF80
07800F00
07800F00
07800F00
07800F00
0F001E00
0F001E00
0F001E00
0F001E00
1E003C00
1E003C00
3F007E00
FFC1FF80
ENDCHAR
STARTCHAR hcircumflex
ENCODING 293
SWIDTH 611 0
DWIDTH 19 0
BBX 18 32 0 0
BITMAP
006000
00E000
01F000
031000
061800
0C0800
000000
01C000
0FC000
03C000
038000
038000
038000
038000
070000
070000
071C00
0E7E00
0EC700
0F8700
1F0700
1E0700
1C0E00
3C0E00
380E00
381C00
381C00
701C40
7038C0
703980
E01F00
E01C00
ENDCHAR
STARTCHAR Hbar
ENCODING 294
SWIDTH 833 0
DWIDTH 27 0
BBX 31 25 -1 0
BITMAP
07FF0FFE
01FC03F8
00F001E0
00F001E0
00F001C0
01E003C0
01E003C0
01E003C0
FFFFFFFE
FFFFFFFE
03C00780
03FFFF80
03FFFF80
07800F00
07800F00
07800F00
07800F00
0F001E00
0F001E00
0F001E00
0F001E00
1E003C00
1E003C00
3F007E00
FFC1FF80
ENDCHAR
STARTCHAR hbar
ENCODING 295
SWIDTH 611 0
DWIDTH 19 0
BBX 20 25 -2 0
BITMAP
007000
03F000
00F000
00E000
00E000
00E000
00E000
FFFE00
FFFE00
01C700
039F80
03B1C0
03E1C0
07C1C0
0781C0
070380
0F0380
0E0380
0E0700
0E0700
1C0710
1C0E30
1C0E60
3807C0
380700
ENDCHAR
STARTCHAR Itilde
ENCODING 296
SWIDTH 407 0
DWIDTH 13 0
BBX 15 29 -1 0
BITMAP
0708
0FF8
0870
0000
07FE
01F8
00F0
00F0
00E0
01E0
01E0
01E0
01C0
03C0
03C0
03C0
0380
0780
0780
0780
0700
0F00
0F00
0F00
0E00
1E00
1E00
3F00
FFC0
ENDCHAR
STARTCHAR itilde
ENCODING 297
SWIDTH 333 0
DWIDTH 11 0
BBX 9 20 1 0
BITMAP
7080
FF80
8700
0000
0E00
7E00
1C00
1C00
1C00
3800
3800
3800
7000
7000
7100
E300
E300
E600
FC00
7000
ENDCHAR
STARTCHAR Imacron
ENCODING 298
SWIDTH 407 0
DWIDTH 13 0
BBX 15 28 -1 0
BITMAP
0FF8
0FF8
0000
07FE
01F8
00F0
00F0
00E0
01E0
01E0
01E0
01C0
03C0
03C0
03C0
0380
0780
0780
0780
0700
0F00
0F00
0F00
0E00
1E00
1E00
3F00
FFC0
ENDCHAR
STARTCHAR imacron
ENCODING 299
SWIDTH 333 0
DWIDTH 11 0
BBX 9 19 1 0
BITMAP
FF80
FF80
0000
0E00
7E00
1C00
1C00
1C00
3800
3800
3800
7000
7000
7100
E300
E300
E600
FC00
7000
ENDCHAR
STARTCHAR Ibreve
ENCODING 300
SWIDTH 407 0
DWIDTH 13 0
BBX 15 30 -1 0
BITMAP
0C0C
0C18
07F0
01C0
0000
07FE
01F8
00F0
00F0
00E0
01E0
01E0
01E0
01C0
03C0
03C0
03C0
0380
0780
0780
0780
0700
0F00
0F00
0F00
0E00
1E00
1E00
3F00
FFC0
ENDCHAR
STARTCHAR ibreve
ENCODING 301
SWIDTH 333 0
DWIDTH 11 0
BBX 10 21 1 0
BITMAP
C0C0
C180
7F00
1C00
0000
0E00
7E00
1C00
1C00
1C00
3800
3800
3800
7000
7000
7100
E300
E300
E600
FC00
7000
ENDCHAR
STARTCHAR Iogonek
ENCODING 302
SWIDTH 407 0
DWIDTH 13 0
BBX 15 30 -1 -5
BITMAP
07FE
01F8
00F0
00F0
00E0
01E0
01E0
01E0
01C0
03C0
03C0
03C0
0380
0780
0780
0780
0700
0F00
0F00
0F00
0E00
1E00
1E00
3F00
FFC0
0600
0C00
1800
1D80
0F00
ENDCHAR
STARTCHAR iogonek
ENCODING 303
SWIDTH 333 0
DWIDTH 10 0
BBX 8 29 1 -5
BITMAP
06
0F
0F
06
00
00
00
00
1C
7C
1C
38
38
38
70
70
70
F0
E1
E3
E6
CC
F8
60
18
30
60
76
3C
ENDCHAR
STARTCHAR Idotaccent
ENCODING 304
SWIDTH 407 0
DWIDTH 13 0
BBX 15 29 -1 0
BITMAP
00C0
01E0
00C0
0000
07FE
01F8
00F0
00F0
00E0
01E0
01E0
01E0
01C0
03C0
03C0
03C0
0380
0780
0780
0780
0700
0F00
0F00
0F00
0E00
1E00
1E00
3F00
FFC0
ENDCHAR
STARTCHAR dotlessi
ENCODING 305
SWIDTH 333 0
DWIDTH 11 0
BBX 8 16 1 0
BITMAP
0E
7E
1C
1C
1C
38
38
38
70
70
71
E3
E3
E6
FC
70
ENDCHAR
STARTCHAR IJ
ENCODING 306
SWIDTH 998 0
DWIDTH 32 0
BBX 35 25 -1 0
BITMAP
07FE00FFE0
01F8001F80
00F0000F00
00F0000F00
00E0001E00
01E0001E00
01E0001E00
01E0003C00
01C0003C00
03C0003C00
03C0003C00
03C0007800
0380007800
0780007800
0780007800
0783C0F000
0707E0F000
0F07E0F000
0F0FE0E000
0F0CC1E000
0E0C01E000
1E0C03C000
1E0607C000
3F039F0000
FFC1FE0000
ENDCHAR
STARTCHAR ij
ENCODING 307
SWIDTH 631 0
DWIDTH 19 0
BBX 18 31 1 -7
BITMAP
060180
0F03C0
0F03C0
060180
000000
000000
000000
000000
1C0700
7C1F00
1C0700
380700
380E00
380E00
700E00
700E00
701C00
F01C00
E11C00
E31C00
E63800
CC3800
F83800
607000
007000
007000
106000
38E000
38C000
398000
1F0000
ENDCHAR
STARTCHAR Jcircumflex
ENCODING 308
SWIDTH 611 0
DWIDTH 20 0
BBX 23 32 -1 0
BITMAP
0000C0
0001C0
0003E0
000620
000C30
001810
000000
000FFE
0001F8
0000F0
0000F0
0001E0
0001E0
0001E0
0003C0
0003C0
0003C0
0003C0
000780
000780
000780
000780
3C0F00
7E0F00
7E0F00
FE0E00
CC1E00
C01E00
C03C00
607C00
39F000
1FE000
ENDCHAR
STARTCHAR jcircumflex
ENCODING 309
SWIDTH 315 0
DWIDTH 9 0
BBX 16 30 -7 -7
BITMAP
0018
0038
007C
00C4
0186
0302
0000
001C
007C
001C
001C
0038
0038
0038
0038
0070
0070
0070
0070
00E0
00E0
00E0
01C0
01C0
01C0
4180
E380
E300
E600
7C00
ENDCHAR
STARTCHAR Kcommaaccent
ENCODING 310
SWIDTH 741 0
DWIDTH 24 0
BBX 28 35 -1 -10
BITMAP
07FF3FF0
00F80FC0
00F00700
00F00E00
00F01C00
00E03800
01E07000
01E0E000
01E18000
01C30000
03CE0000
03DF0000
03FF0000
03F78000
07E78000
07C3C000
0783C000
0701C000
0F01E000
0F01E000
0F00F000
1E00F000
1E007800
3F007C00
FFC3FF00
00000000
000C0000
001E0000
001E0000
001E0000
00040000
000C0000
00180000
00300000
00600000
ENDCHAR
STARTCHAR kcommaaccent
ENCODING 311
SWIDTH 556 0
DWIDTH 17 0
BBX 16 35 0 -10
BITMAP
01C0
0FC0
03C0
0380
0380
0380
0700
0700
0700
0F1E
0E7F
0EC7
1F87
1F07
1E0E
1C1C
3C70
3BC0
3860
7060
7061
7073
E076
E07C
E038
0000
0180
03C0
03C0
03C0
0080
0180
0300
0600
0C00
ENDCHAR
STARTCHAR kgreenlandic
ENCODING 312
SWIDTH 556 0
DWIDTH 17 0
BBX 16 16 0 0
BITMAP
0F1E
0E7F
0EC7
1F87
1F07
1E0E
1C1C
3C70
3BC0
3860
7060
7061
7073
E076
E07C
E038
ENDCHAR
STARTCHAR Lacute
ENCODING 313
SWIDTH 667 0
DWIDTH 21 0
BBX 22 32 -1 0
BITMAP
000600
000E00
001E00
003800
006000
00C000
000000
07FF00
01FC00
00F000
00F000
00F000
00E000
01E000
01E000
01E000
01C000
03C000
03C000
03C000
038000
078000
078000
07800C
07000C
0F001C
0F0018
0F0038
0E0078
1F00F0
3F87F0
FFFFF0
ENDCHAR
STARTCHAR lacute
ENCODING 314
SWIDTH 333 0
DWIDTH 9 0
BBX 11 32 0 0
BITMAP
0060
00E0
01E0
0380
0600
0C00
0000
0380
1F80
0780
0700
0700
0700
0700
0E00
0E00
0E00
1C00
1C00
1C00
3800
3800
3800
3000
7000
7000
7000
E100
E300
E600
FC00
7000
ENDCHAR
STARTCHAR Lcommaaccent
ENCODING 315
SWIDTH 667 0
DWIDTH 21 0
BBX 22 35 -1 -10
BITMAP
07FF00
01FC00
00F000
00F000
00F000
00E000
01E000
01E000
01E000
01C000
03C000
03C000
03C000
038000
078000
078000
07800C
07000C
0F001C
0F0018
0F0038
0E0078
1F00F0
3F87F0
FFFFF0
000000
003000
007800
007800
007800
001000
003000
006000
00C000
018000
ENDCHAR
STARTCHAR lcommaaccent
ENCODING 316
SWIDTH 333 0
DWIDTH 9 0
BBX 9 35 0 -10
BITMAP
0380
1F80
0780
0700
0700
0700
0700
0E00
0E00
0E00
1C00
1C00
1C00
3800
3800
3800
3000
7000
7000
7000
E100
E300
E600
FC00
7000
0000
1800
3C00
3C00
3C00
0800
1800
3000
6000
C000
ENDCHAR
STARTCHAR Lcaron
ENCODING 317
SWIDTH 838 0
DWIDTH 27 0
BBX 28 25 -1 0
BITMAP
07FF0060
01FC00F0
00F000F0
00F000F0
00F00020
00E00060
01E000C0
01E00180
01E00300
01C00000
03C00000
03C00000
03C00000
03800000
07800000
07800000
07800C00
07000C00
0F001C00
0F001800
0F003800
0E007800
1F00F000
3F87F000
FFFFF000
ENDCHAR
STARTCHAR lcaron
ENCODING 318
SWIDTH 520 0
DWIDTH 16 0
BBX 16 25 0 0
BITMAP
0386
1F8F
078F
070F
0702
0706
070C
0E18
0E30
0E00
1C00
1C00
1C00
3800
3800
3800
3000
7000
7000
7000
E100
E300
E600
FC00
7000
ENDCHAR
STARTCHAR Ldot
ENCODING 319
SWIDTH 912 0
DWIDTH 29 0
BBX 27 25 -1 0
BITMAP
07FF0000
01FC0000
00F00000
00F00000
00F00000
00E00000
01E00000
01E00000
01E00000
01C00000
03C00000
03C00000
03C00000
03800000
07800000
078000C0
07800DE0
07000DE0
0F001CC0
0F001800
0F003800
0E007800
1F00F000
3F87F000
FFFFF000
ENDCHAR
STARTCHAR ldot
ENCODING 320
SWIDTH 594 0
DWIDTH 18 0
BBX 15 25 0 0
BITMAP
0380
1F80
0780
0700
0700
0700
0700
0E00
0E00
0E00
1C00
1C00
1C00
3800
3800
380C
301E
701E
700C
7000
E100
E300
E600
FC00
7000
ENDCHAR
STARTCHAR Lslash
ENCODING 321
SWIDTH 667 0
DWIDTH 21 0
BBX 22 25 -1 0
BITMAP
07FF00
00FC00
00F000
00F000
00F000
00E000
01E000
01E1C0
01E700
01DC00
03F000
03C000
07C000
1F8000
778000
478000
07800C
07000C
0F001C
0F0018
0F0038
0E0078
1E00F0
3F07F0
FFFFF0
ENDCHAR
STARTCHAR lslash
ENCODING 322
SWIDTH 333 0
DWIDTH 10 0
BBX 10 25 0 0
BITMAP
0380
0F80
0380
0700
0700
0700
0700
0E00
0EC0
0FC0
3F00
FC00
DC00
3800
3800
3800
3000
7000
7000
7100
E100
E300
E600
FC00
7000
ENDCHAR
STARTCHAR Nacute
ENCODING 323
SWIDTH 815 0
DWIDTH 27 0
BBX 30 33 -2 -1
BITMAP
00001800
00003800
00007800
0000E000
00018000
00030000
00000000
07F807FC
00F801F0
007800E0
007C00E0
00FC00C0
00DE00C0
00DE00C0
009F0080
018F0180
018F0180
01878180
03078100
0303C300
0303C300
0301E300
0601E200
0601E600
0600F600
0600F600
0C007C00
0C007C00
0C003C00
1C003C00
3E003800
FF801800
00001800
ENDCHAR
STARTCHAR nacute
ENCODING 324
SWIDTH 611 0
DWIDTH 20 0
BBX 17 23 1 0
BITMAP
001800
003800
007800
00E000
018000
030000
000000
1C3800
7CFC00
1D8E00
1F0E00
1E0E00
3C1C00
381C00
381C00
783800
703800
703800
703080
E07180
E07300
E07E00
E03800
ENDCHAR
STARTCHAR Ncommaaccent
ENCODING 325
SWIDTH 815 0
DWIDTH 27 0
BBX 30 36 -2 -11
BITMAP
07F807FC
00F801F0
007800E0
007C00E0
00FC00C0
00DE00C0
00DE00C0
009F0080
018F0180
018F0180
01878180
03078100
0303C300
0303C300
0301E300
0601E200
0601E600
0600F600
0600F600
0C007C00
0C007C00
0C003C00
1C003C00
3E003800
FF801800
00001800
00000000
00060000
000F0000
000F0000
000F0000
00020000
00060000
000C0000
00180000
00300000
ENDCHAR
STARTCHAR ncommaaccent
ENCODING 326
SWIDTH 611 0
DWIDTH 20 0
BBX 17 26 1 -10
BITMAP
1C3800
7CFC00
1D8E00
1F0E00
1E0E00
3C1C00
381C00
381C00
783800
703800
703800
703080
E07180
E07300
E07E00
E03800
000000
018000
03C000
03C000
03C000
008000
018000
030000
060000
0C0000
ENDCHAR
STARTCHAR Ncaron
ENCODING 327
SWIDTH 815 0
DWIDTH 27 0
BBX 30 33 -2 -1
BITMAP
00081800
000C3000
00046000
0007C000
00038000
00030000
00000000
07F807FC
00F801F0
007800E0
007C00E0
00FC00C0
00DE00C0
00DE00C0
009F0080
018F0180
018F0180
01878180
03078100
0303C300
0303C300
0301E300
0601E200
0601E600
0600F600
0600F600
0C007C00
0C007C00
0C003C00
1C003C00
3E003800
FF801800
00001800
ENDCHAR
STARTCHAR ncaron
ENCODING 328
SWIDTH 611 0
DWIDTH 20 0
BBX 17 23 1 0
BITMAP
040C00
061800
023000
03E000
01C000
018000
000000
1C3800
7CFC00
1D8E00
1F0E00
1E0E00
3C1C00
381C00
381C00
783800
703800
703800
703080
E07180
E07300
E07E00
E03800
ENDCHAR
STARTCHAR napostrophe
ENCODING 329
SWIDTH 805 0
DWIDTH 27 0
BBX 24 25 1 0
BITMAP
180000
3C0000
3C0000
3C0000
080000
180000
300000
600000
C00000
003870
00F9F8
003B1C
003E1C
003C1C
007838
007038
007038
00F070
00E070
00E070
00E061
01C0E3
01C0E6
01C0FC
01C070
ENDCHAR
STARTCHAR Eng
ENCODING 330
SWIDTH 815 0
DWIDTH 27 0
BBX 30 32 -2 -7
BITMAP
07F807FC
00F801F0
007800E0
007C00E0
00FC00C0
00DE00C0
00DE00C0
009F0080
018F0180
018F0180
01878180
03078100
0303C300
0303C300
0301E300
0601E200
0601E600
0600F600
0600FE00
0C007E00
0C007E00
0C003C00
1C003C00
3E003C00
FF803800
00003800
00003800
00083000
001C7000
001C6000
001CC000
000F8000
ENDCHAR
STARTCHAR eng
ENCODING 331
SWIDTH 611 0
DWIDTH 20 0
BBX 15 23 1 -7
BITMAP
1C38
7CFC
1D8E
1F0E
1E0E
3C1C
381C
381C
7838
7038
7038
7038
E070
E070
E070
E0E0
00E0
00E0
20C0
71C0
7180
7300
3E00
ENDCHAR
STARTCHAR Omacron
ENCODING 332
SWIDTH 778 0
DWIDTH 26 0
BBX 24 28 1 0
BITMAP
00FF80
00FF80
000000
001FC0
00FCF0
03E038
07C01C
0F801E
1F000E
1E000F
3E000F
3C000F
7C000F
78000F
78001F
F8001F
F8001E
F0001E
F0003E
F0003C
F0007C
F00078
7000F8
7801F0
3803E0
3C0780
0F3F00
03F800
ENDCHAR
STARTCHAR omacron
ENCODING 333
SWIDTH 500 0
DWIDTH 16 0
BBX 15 19 0 0
BITMAP
1FF0
1FF0
0000
03F0
0E38
1C1C
380C
780E
700E
700E
F00E
E01E
E01C
E01C
E038
E038
7070
38E0
1F80
ENDCHAR
STARTCHAR Obreve
ENCODING 334
SWIDTH 778 0
DWIDTH 26 0
BBX 24 30 1 0
BITMAP
00C0C0
00C180
007F00
001C00
000000
001FC0
00FCF0
03E038
07C01C
0F801E
1F000E
1E000F
3E000F
3C000F
7C000F
78000F
78001F
F8001F
F8001E
F0001E
F0003E
F0003C
F0007C
F00078
7000F8
7801F0
3803E0
3C0780
0F3F00
03F800
ENDCHAR
STARTCHAR obreve
ENCODING 335
SWIDTH 500 0
DWIDTH 16 0
BBX 15 21 0 0
BITMAP
1818
1830
0FE0
0380
0000
03F0
0E38
1C1C
380C
780E
700E
700E
F00E
E01E
E01C
E01C
E038
E038
7070
38E0
1F80
ENDCHAR
STARTCHAR Ohungarumlaut
ENCODING 336
SWIDTH 778 0
DWIDTH 26 0
BBX 24 32 1 0
BITMAP
000618
000E38
001C70
0038E0
006180
00C300
000000
001FC0
00FCF0
03E038
07C01C
0F801E
1F000E
1E000F
3E000F
3C000F
7C000F
78000F
78001F
F8001F
F8001E
F0001E
F0003E
F0003C
F0007C
F00078
7000F8
7801F0
3803E0
3C0780
0F3F00
03F800
ENDCHAR
STARTCHAR ohungarumlaut
ENCODING 337
SWIDTH 500 0
DWIDTH 16 0
BBX 16 23 0 0
BITMAP
00C3
01C7
038E
071C
0C30
1860
0000
03F0
0E38
1C1C
380C
780E
700E
700E
F00E
E01E
E01C
E01C
E038
E038
7070
38E0
1F80
ENDCHAR
STARTCHAR OE
ENCODING 338
SWIDTH 981 0
DWIDTH 33 0
BBX 31 25 1 0
BITMAP
003FFFFE
01F9FE7E
03C0FC0E
0780780E
0F007806
1F007806
1E007006
3E00F044
3C00F0C4
7C00F0C0
7800E180
7801E780
F801FF80
F801FF80
F001C700
F003C300
F003C300
F003C308
F0078218
F0078018
78078038
78070070
3C0F00F0
1F3F8FF0
07FFFFE0
ENDCHAR
STARTCHAR oe
ENCODING 339
SWIDTH 778 0
DWIDTH 25 0
BBX 24 16 0 0
BITMAP
03F07C
0E39CE
1C1F87
381F07
780E07
700E0E
701E1C
F01C78
E01DE0
E01F00
E01C00
E03C00
E03C06
607C0C
30EF38
1F87F0
ENDCHAR
STARTCHAR Racute
ENCODING 340
SWIDTH 741 0
DWIDTH 24 0
BBX 24 33 -1 -1
BITMAP
000060
0000E0
0001E0
000380
000600
000C00
000000
07FFF0
01F8FC
00F81E
00F00E
00F00F
00E00F
01E00F
01E00F
01E01E
01C01E
03C07C
03C7F8
03FFC0
038380
0781C0
0781C0
0781E0
0701E0
0F01E0
0F01E0
0F01E0
0E01E2
1E01E6
3F01FC
FFC0FC
000078
ENDCHAR
STARTCHAR racute
ENCODING 341
SWIDTH 444 0
DWIDTH 14 0
BBX 14 23 0 0
BITMAP
0018
0038
0078
00E0
0180
0300
0000
0E78
7EFC
0D9C
0D1C
1F08
1E00
1C00
1C00
3800
3800
3800
7000
7000
7000
F000
E000
ENDCHAR
STARTCHAR Rcommaaccent
ENCODING 342
SWIDTH 741 0
DWIDTH 24 0
BBX 24 36 -1 -11
BITMAP
07FFF0
01F8FC
00F81E
00F00E
00F00F
00E00F
01E00F
01E00F
01E01E
01C01E
03C07C
03C7F8
03FFC0
038380
0781C0
0781C0
0781E0
0701E0
0F01E0
0F01E0
0F01E0
0E01E2
1E01E6
3F01FC
FFC0FC
000078
000000
000C00
001E00
001E00
001E00
000400
000C00
001800
003000
006000
ENDCHAR
STARTCHAR rcommaaccent
ENCODING 343
SWIDTH 444 0
DWIDTH 14 0
BBX 14 26 0 -10
BITMAP
0E78
7EFC
0D9C
0D1C
1F08
1E00
1C00
1C00
3800
3800
3800
7000
7000
7000
F000
E000
0000
1800
3C00
3C00
3C00
0800
1800
3000
6000
C000
ENDCHAR
STARTCHAR Rcaron
ENCODING 344
SWIDTH 741 0
DWIDTH 24 0
BBX 24 33 -1 -1
BITMAP
002060
0030C0
001180
001F00
000E00
000C00
000000
07FFF0
01F8FC
00F81E
00F00E
00F00F
00E00F
01E00F
01E00F
01E01E
01C01E
03C07C
03C7F8
03FFC0
038380
0781C0
0781C0
0781E0
0701E0
0F01E0
0F01E0
0F01E0
0E01E2
1E01E6
3F01FC
FFC0FC
000078
ENDCHAR
STARTCHAR rcaron
ENCODING 345
SWIDTH 444 0
DWIDTH 14 0
BBX 14 23 0 0
BITMAP
0818
0C30
0460
07C0
0380
0300
0000
0E78
7EFC
0D9C
0D1C
1F08
1E00
1C00
1C00
3800
3800
3800
7000
7000
7000
F000
E000
ENDCHAR
STARTCHAR Sacute
ENCODING 346
SWIDTH 667 0
DWIDTH 22 0
BBX 21 32 0 0
BITMAP
000180
000380
000780
000E00
001800
003000
000000
007F18
01E398
0380F8
070078
060070
0E0030
0E0030
0F0020
0F8020
0FE000
07F800
07FE00
01FF80
007FC0
001FC0
2007E0
2001E0
6000E0
6000E0
7000E0
7000C0
7801C0
FE0380
CF8F00
C1FC00
ENDCHAR
STARTCHAR sacute
ENCODING 347
SWIDTH 444 0
DWIDTH 14 0
BBX 13 23 0 0
BITMAP
0030
0070
00F0
01C0
0300
0600
0000
07E0
1C78
3838
3038
3818
3C00
1F00
1FC0
07E0
01F0
6070
E070
E070
E060
71C0
3F80
ENDCHAR
STARTCHAR Scircumflex
ENCODING 348
SWIDTH 667 0
DWIDTH 22 0
BBX 21 32 0 0
BITMAP
000600
000E00
001F00
003100
006180
00C080
000000
007F18
01E398
0380F8
070078
060070
0E0030
0E0030
0F0020
0F8020
0FE000
07F800
07FE00
01FF80
007FC0
001FC0
2007E0
2001E0
6000E0
6000E0
7000E0
7000C0
7801C0
FE0380
CF8F00
C1FC00
ENDCHAR
STARTCHAR scircumflex
ENCODING 349
SWIDTH 444 0
DWIDTH 14 0
BBX 13 23 0 0
BITMAP
00C0
01C0
03E0
0620
0C30
1810
0000
07E0
1C78
3838
3038
3818
3C00
1F00
1FC0
07E0
01F0
6070
E070
E070
E060
71C0
3F80
ENDCHAR
STARTCHAR Scedilla
ENCODING 350
SWIDTH 667 0
DWIDTH 22 0
BBX 21 32 0 -7
BITMAP
007F18
01E398
0380F8
070078
060070
0E0030
0E0030
0F0020
0F8020
0FE000
07F800
07FE00
01FF80
007FC0
001FC0
2007E0
2001E0
6000E0
6000E0
7000E0
7000C0
7801C0
FE0380
CF8F00
C1FC00
004000
008000
01E000
003000
003000
027000
01E000
ENDCHAR
STARTCHAR scedilla
ENCODING 351
SWIDTH 444 0
DWIDTH 14 0
BBX 13 23 0 -7
BITMAP
07E0
1C78
3838
3038
3818
3C00
1F00
1FC0
07E0
01F0
6070
E070
E070
E060
71C0
3F80
0200
0400
0F00
0180
0180
1380
0F00
ENDCHAR
STARTCHAR Scaron
ENCODING 352
SWIDTH 667 0
DWIDTH 22 0
BBX 21 27 0 0
BITMAP
0040C0
006180
002300
003E00
001C00
001800
000000
00FE18
03C398
0700F8
0E0078
0E0070
0F0030
0FC030
0FF030
07FE00
03FF80
00FFC0
001FE0
6007E0
6001E0
6000E0
7000C0
F001C0
F80380
DE0F00
C7FC00
ENDCHAR
STARTCHAR scaron
ENCODING 353
SWIDTH 444 0
DWIDTH 14 0
BBX 13 23 0 0
BITMAP
0818
0C30
0460
07C0
0380
0300
0000
07E0
1C38
3838
3038
3838
3800
3F00
1FC0
07E0
01F0
E070
E070
E070
E060
60C0
3F80
ENDCHAR
STARTCHAR Tcommaaccent
ENCODING 354
SWIDTH 685 0
DWIDTH 22 0
BBX 23 32 1 -7
BITMAP
3FFFFE
3F3E7E
3C3C1C
783C1C
703C1C
603818
607818
807810
807810
007000
00F000
00F000
00F000
01E000
01E000
01E000
01E000
03C000
03C000
03C000
038000
078000
078000
0FC000
7FF800
004000
008000
01E000
003000
003000
027000
01E000
ENDCHAR
STARTCHAR tcommaaccent
ENCODING 355
SWIDTH 352 0
DWIDTH 11 0
BBX 10 29 1 -7
BITMAP
0380
0300
0700
0700
0E00
0E00
7FC0
1C00
1C00
1C00
3800
3800
3800
7000
7000
7000
7080
E180
E300
F600
FC00
7000
0800
1000
3C00
0600
0600
4E00
3C00
ENDCHAR
STARTCHAR Tcaron
ENCODING 356
SWIDTH 685 0
DWIDTH 22 0
BBX 23 32 1 0
BITMAP
008180
00C300
004600
007C00
003800
003000
000000
3FFFFE
3F3E7E
3C3C1C
783C1C
703C1C
603818
607818
807810
807810
007000
00F000
00F000
00F000
01E000
01E000
01E000
01E000
03C000
03C000
03C000
038000
078000
078000
0FC000
7FF800
ENDCHAR
STARTCHAR tcaron
ENCODING 357
SWIDTH 538 0
DWIDTH 17 0
BBX 16 25 1 0
BITMAP
0006
000F
000F
038F
0302
0706
070C
0E18
0E30
7FC0
1C00
1C00
1C00
3800
3800
3800
7000
7000
7000
7080
E180
E300
F600
FC00
7000
ENDCHAR
STARTCHAR Tbar
ENCODING 358
SWIDTH 685 0
DWIDTH 22 0
BBX 23 25 1 0
BITMAP
3FFFFE
3F3E7E
3C3C1C
783C1C
703C1C
603818
607818
807810
807810
007000
00F000
0FFFE0
0FFFE0
01E000
01E000
01E000
01E000
03C000
03C000
03C000
038000
078000
078000
0FC000
7FF800
ENDCHAR
STARTCHAR tbar
ENCODING 359
SWIDTH 352 0
DWIDTH 11 0
BBX 15 22 -1 0
BITMAP
00E0
00C0
01C0
01C0
0380
0380
1FF0
0700
0700
0700
0E00
0E00
0E00
1C00
FFFE
FFFE
1C20
3860
38C0
3D80
3F00
1C00
ENDCHAR
STARTCHAR Utilde
ENCODING 360
SWIDTH 815 0
DWIDTH 27 0
BBX 26 29 3 0
BITMAP
00708000
00FF8000
00870000
00000000
7FE07FC0
1F801F00
0F000E00
0F000C00
1E000C00
1E000C00
1E001800
1E001800
3C001800
3C001800
3C003000
3C003000
78003000
78002000
78006000
78006000
F0006000
F0004000
F000C000
F000C000
F0018000
78038000
78070000
3E3E0000
07F80000
ENDCHAR
STARTCHAR utilde
ENCODING 361
SWIDTH 611 0
DWIDTH 20 0
BBX 17 20 1 0
BITMAP
070800
0FF800
087000
000000
1E0700
7C0F00
1C0E00
1C0E00
381E00
381C00
381C00
703C00
703800
707800
E07800
E0F180
E1F300
E77700
FE7C00
783800
ENDCHAR
STARTCHAR Umacron
ENCODING 362
SWIDTH 815 0
DWIDTH 27 0
BBX 26 28 3 0
BITMAP
00FF8000
00FF8000
00000000
7FE07FC0
1F801F00
0F000E00
0F000C00
1E000C00
1E000C00
1E001800
1E001800
3C001800
3C001800
3C003000
3C003000
78003000
78002000
78006000
78006000
F0006000
F0004000
F000C000
F000C000
F0018000
78038000
78070000
3E3E0000
07F80000
ENDCHAR
STARTCHAR umacron
ENCODING 363
SWIDTH 611 0
DWIDTH 20 0
BBX 17 19 1 0
BITMAP
0FF800
0FF800
000000
1E0700
7C0F00
1C0E00
1C0E00
381E00
381C00
381C00
703C00
703800
707800
E07800
E0F180
E1F300
E77700
FE7C00
783800
ENDCHAR
STARTCHAR Ubreve
ENCODING 364
SWIDTH 815 0
DWIDTH 27 0
BBX 26 30 3 0
BITMAP
00C0C000
00C18000
007F0000
001C0000
00000000
7FE07FC0
1F801F00
0F000E00
0F000C00
1E000C00
1E000C00
1E001800
1E001800
3C001800
3C001800
3C003000
3C003000
78003000
78002000
78006000
78006000
F0006000
F0004000
F000C000
F000C000
F0018000
78038000
78070000
3E3E0000
07F80000
ENDCHAR
STARTCHAR ubreve
ENCODING 365
SWIDTH 611 0
DWIDTH 20 0
BBX 17 21 1 0
BITMAP
0C0C00
0C1800
07F000
01C000
000000
1E0700
7C0F00
1C0E00
1C0E00
381E00
381C00
381C00
703C00
703800
707800
E07800
E0F180
E1F300
E77700
FE7C00
783800
ENDCHAR
STARTCHAR Uring
ENCODING 366
SWIDTH 815 0
DWIDTH 27 0
BBX 26 32 3 0
BITMAP
003C0000
00660000
00420000
00420000
00660000
003C0000
00000000
7FE07FC0
1F801F00
0F000E00
0F000C00
1E000C00
1E000C00
1E001800
1E001800
3C001800
3C001800
3C003000
3C003000
78003000
78002000
78006000
78006000
F0006000
F0004000
F000C000
F000C000
F0018000
78038000
78070000
3E3E0000
07F80000
ENDCHAR
STARTCHAR uring
ENCODING 367
SWIDTH 611 0
DWIDTH 20 0
BBX 17 23 1 0
BITMAP
01E000
033000
021000
021000
033000
01E000
000000
1E0700
7C0F00
1C0E00
1C0E00
381E00
381C00
381C00
703C00
703800
707800
E07800
E0F180
E1F300
E77700
FE7C00
783800
ENDCHAR
STARTCHAR Uhungarumlaut
ENCODING 368
SWIDTH 815 0
DWIDTH 27 0
BBX 26 32 3 0
BITMAP
000C3000
001C7000
0038E000
0071C000
00C30000
01860000
00000000
7FE07FC0
1F801F00
0F000E00
0F000C00
1E000C00
1E000C00
1E001800
1E001800
3C001800
3C001800
3C003000
3C003000
78003000
78002000
78006000
78006000
F0006000
F0004000
F000C000
F000C000
F0018000
78038000
78070000
3E3E0000
07F80000
ENDCHAR
STARTCHAR uhungarumlaut
ENCODING 369
SWIDTH 611 0
DWIDTH 20 0
BBX 17 23 1 0
BITMAP
006180
00E380
01C700
038E00
061800
0C3000
000000
1E0700
7C0F00
1C0E00
1C0E00
381E00
381C00
381C00
703C00
703800
707800
E07800
E0F180
E1F300
E77700
FE7C00
783800
ENDCHAR
STARTCHAR Uogonek
ENCODING 370
SWIDTH 815 0
DWIDTH 27 0
BBX 26 30 3 -5
BITMAP
7FE07FC0
1F801F00
0F000E00
0F000C00
1E000C00
1E000C00
1E001800
1E001800
3C001800
3C001800
3C003000
3C003000
78003000
78002000
78006000
78006000
F0006000
F0004000
F000C000
F000C000
F0018000
78038000
78070000
3E3E0000
07F80000
00600000
00C00000
01800000
01D80000
00F00000
ENDCHAR
STARTCHAR uogonek
ENCODING 371
SWIDTH 611 0
DWIDTH 20 0
BBX 17 21 1 -5
BITMAP
1E0700
7C0F00
1C0E00
1C0E00
381E00
381C00
381C00
703C00
703800
707800
E07800
E0F180
E1F300
E77700
FE7C00
783800
018000
030000
060000
076000
03C000
ENDCHAR
STARTCHAR Wcircumflex
ENCODING 372
SWIDTH 926 0
DWIDTH 29 0
BBX 31 32 1 0
BITMAP
0000C000
0001C000
0003E000
00062000
000C3000
00181000
00000000
FF9FF3FE
3E07C0F8
1C078070
1C0380E0
1C0380C0
1E07C0C0
1E07C180
1E07C180
0E0FC100
0E0BC300
0E1BC300
0E19C600
0E31C600
0F31E400
0F21E400
0F61EC00
07E1F800
07C1F800
07C0F000
0780F000
0780F000
0700E000
0700E000
0600C000
0600C000
ENDCHAR
STARTCHAR wcircumflex
ENCODING 373
SWIDTH 778 0
DWIDTH 26 0
BBX 23 23 1 0
BITMAP
000600
000E00
001F00
003100
006180
00C080
000000
1C0E1C
7C0E1E
1C1E1E
181C0E
381C06
381C06
383C06
703804
70780C
707818
E0F818
E0B830
E1B860
E338C0
7E3F80
380F00
ENDCHAR
STARTCHAR Ycircumflex
ENCODING 374
SWIDTH 685 0
DWIDTH 23 0
BBX 25 32 1 0
BITMAP
000C0000
001C0000
003E0000
00620000
00C30000
01810000
00000000
FFE1FF80
3F807E00
1F003800
0F003000
0F006000
0780E000
0780C000
03C18000
03C30000
03C70000
01E60000
01EC0000
00FC0000
00F80000
00F00000
00F00000
00F00000
01E00000
01E00000
01E00000
01E00000
03C00000
03C00000
0FE00000
3FF80000
ENDCHAR
STARTCHAR ycircumflex
ENCODING 375
SWIDTH 500 0
DWIDTH 16 0
BBX 18 30 -3 -7
BITMAP
001800
003800
007C00
00C400
018600
030200
000000
070180
0F83C0
0F83C0
1BC3C0
11C180
11C180
01C100
00E300
00E200
00E600
00E400
007C00
007800
007800
007000
006000
006000
00C000
60C000
E18000
E30000
E60000
7C0000
ENDCHAR
STARTCHAR Ydieresis
ENCODING 376
SWIDTH 685 0
DWIDTH 23 0
BBX 25 24 1 0
BITMAP
00318000
007BC000
00318000
00000000
FFE1FF80
1F003C00
0F003000
07806000
0780C000
07818000
03C10000
03C30000
03C60000
01EC0000
01F80000
01F80000
00F00000
00F00000
00F00000
01E00000
01E00000
01E00000
03E00000
0FF80000
ENDCHAR
STARTCHAR Zacute
ENCODING 377
SWIDTH 667 0
DWIDTH 22 0
BBX 23 32 -1 0
BITMAP
0000C0
0001C0
0003C0
000700
000C00
001800
000000
03FFFE
03F03E
07C07C
0700F8
0601F0
0E01E0
0C03E0
0807C0
000F80
000F00
001E00
003E00
007C00
00F800
00F000
01F000
03E008
07C018
0F8038
0F0030
1F0070
3E00F0
7C01E0
F807E0
FFFFE0
ENDCHAR
STARTCHAR zacute
ENCODING 378
SWIDTH 463 0
DWIDTH 15 0
BBX 16 23 -1 0
BITMAP
000C
001C
003C
0070
00C0
0180
0000
07C3
0FFF
19F6
300C
3018
0030
00E0
01C0
0780
0E00
1C00
3004
6C0C
7F98
DFF0
C3E0
ENDCHAR
STARTCHAR Zdotaccent
ENCODING 379
SWIDTH 667 0
DWIDTH 22 0
BBX 23 29 -1 0
BITMAP
000C00
001E00
000C00
000000
03FFFE
03F03E
07C07C
0700F8
0601F0
0E01E0
0C03E0
0807C0
000F80
000F00
001E00
003E00
007C00
00F800
00F000
01F000
03E008
07C018
0F8038
0F0030
1F0070
3E00F0
7C01E0
F807E0
FFFFE0
ENDCHAR
STARTCHAR zdotaccent
ENCODING 380
SWIDTH 463 0
DWIDTH 15 0
BBX 16 20 -1 0
BITMAP
00C0
01E0
00C0
0000
07C3
0FFF
19F6
300C
3018
0030
00E0
01C0
0780
0E00
1C00
3004
6C0C
7F98
DFF0
C3E0
ENDCHAR
STARTCHAR Zcaron
ENCODING 381
SWIDTH 667 0
DWIDTH 22 0
BBX 23 27 -1 0
BITMAP
002060
0030C0
001180
001F00
000E00
000C00
000000
03FFFE
03E03E
03807C
0700F8
0601F0
0603E0
0C07C0
0C0F80
001F00
007C00
00F800
01F000
03E018
07C018
0F8030
1F0030
3E0070
7C00E0
F803E0
FFFFE0
ENDCHAR
STARTCHAR zcaron
ENCODING 382
SWIDTH 463 0
DWIDTH 15 0
BBX 15 23 -1 0
BITMAP
0206
030C
0118
01F0
00E0
00C0
0000
07C2
0FFE
19FE
300C
3018
0030
00E0
01C0
0780
0E00
1C00
3004
6C0C
7F98
DFF0
C3E0
ENDCHAR
STARTCHAR uni0186
ENCODING 390
SWIDTH 722 0
DWIDTH 23 0
BBX 22 25 1 0
BITMAP
00FF00
03CFC0
0703F0
0E00F0
080078
180078
10003C
00003C
00003C
00003C
00003C
00003C
00007C
00007C
000078
200078
2000F8
6000F0
6001E0
7001E0
F003C0
F00780
FC0F00
CF3E00
83F000
ENDCHAR
STARTCHAR uni0189
ENCODING 393
SWIDTH 778 0
DWIDTH 26 0
BBX 26 25 -1 0
BITMAP
07FFF000
00FC3C00
00780E00
00F00700
00F00780
00F00380
00F00380
00E003C0
01E003C0
01E003C0
01E003C0
3FFF03C0
3FFF07C0
03C007C0
03C007C0
03800780
07800F80
07800F00
07801F00
0F001E00
0F003C00
0F007C00
0F00F000
1F07E000
FFFF0000
ENDCHAR
STARTCHAR uni018E
ENCODING 398
SWIDTH 722 0
DWIDTH 23 0
BBX 24 25 -1 0
BITMAP
0FFFFF
0FE0FC
1F0078
1C0078
1800F0
1800F0
3000F0
2040E0
0041E0
00C1E0
00E1E0
00E1C0
01FFC0
01FFC0
01C3C0
038780
030780
430780
420780
C00F00
E00F00
E00F00
F00F00
FC1F00
FFFFE0
ENDCHAR
STARTCHAR florin
ENCODING 402
SWIDTH 556 0
DWIDTH 19 0
BBX 21 32 -2 -7
BITMAP
0001F0
0003B8
000778
000E78
000E30
000C00
001C00
001C00
001C00
003800
003800
03FFC0
003800
007800
007000
007000
007000
007000
00F000
00F000
00E000
00E000
00E000
01E000
01C000
01C000
01C000
038000
E38000
E70000
EE0000
7C0000
ENDCHAR
STARTCHAR uni0197
ENCODING 407
SWIDTH 407 0
DWIDTH 13 0
BBX 15 25 -1 0
BITMAP
07FE
01F8
00F0
00F0
00E0
01E0
01E0
01E0
01C0
03C0
03C0
FFFE
FFFE
0780
0780
0780
0700
0F00
0F00
0F00
0E00
1E00
1E00
3F00
FFC0
ENDCHAR
STARTCHAR uni019A
ENCODING 410
SWIDTH 333 0
DWIDTH 9 0
BBX 15 25 -3 0
BITMAP
0070
03F0
00F0
00E0
00E0
00E0
00E0
01C0
01C0
01C0
0380
FFFE
FFFE
0700
0700
0700
0600
0E00
0E00
0E00
1C20
1C60
1CC0
1F80
0E00
ENDCHAR
STARTCHAR uni019D
ENCODING 413
SWIDTH 815 0
DWIDTH 27 0
BBX 34 32 -6 -7
BITMAP
007F807FC0
000F801F00
0007800E00
0007C00E00
000FC00C00
000DE00C00
000DE00C00
0009F00800
0018F01800
0018F01800
0018781800
0030781000
00303C3000
00303C3000
00301E3000
00601E2000
00601E6000
00600F6000
00700F6000
00F007C000
007007C000
00E003C000
00E003C000
00E0038000
01C0018000
01C0018000
01C0000000
4180000000
E380000000
E300000000
E600000000
7C00000000
ENDCHAR
STARTCHAR uni019F
ENCODING 415
SWIDTH 778 0
DWIDTH 26 0
BBX 24 25 1 0
BITMAP
001FC0
00FCF0
03E038
07C01C
0F801E
1F000E
1E000F
3E000F
3C000F
7C000F
78000F
FFFFFF
FFFFFF
F8001E
F0001E
F0003E
F0003C
F0007C
F00078
7000F8
7801F0
3803E0
3C0780
0F3F00
03F800
ENDCHAR
STARTCHAR Ohorn
ENCODING 416
SWIDTH 778 0
DWIDTH 26 0
BBX 28 25 1 0
BITMAP
001FC060
00FCF0F0
03E038F0
07C01CF0
0F801E20
1F000E60
1E000FC0
3E000F80
3C000F00
7C000F00
78000F00
78001F00
F8001F00
F8001E00
F0001E00
F0003E00
F0003C00
F0007C00
F0007800
7000F800
7801F000
3803E000
3C078000
0F3F0000
03F80000
ENDCHAR
STARTCHAR ohorn
ENCODING 417
SWIDTH 500 0
DWIDTH 16 0
BBX 20 16 0 0
BITMAP
03F060
0E38F0
1C1CF0
380CF0
780E20
700E60
700EC0
F00F80
E01F00
E01C00
E01C00
E03800
E03800
707000
38E000
1F8000
ENDCHAR
STARTCHAR Uhorn
ENCODING 431
SWIDTH 815 0
DWIDTH 27 0
BBX 29 25 3 0
BITMAP
7FE07FF0
1F801F78
0F000E78
0F000C78
1E000C10
1E000C30
1E001860
1E0018C0
3C001980
3C001800
3C003000
3C003000
78003000
78002000
78006000
78006000
F0006000
F0004000
F000C000
F000C000
F0018000
78038000
78070000
3E3E0000
07F80000
ENDCHAR
STARTCHAR uhorn
ENCODING 432
SWIDTH 611 0
DWIDTH 20 0
BBX 21 16 1 0
BITMAP
1E0730
7C0F78
1C0E78
1C0E78
381E10
381C30
381C60
703CC0
703980
707800
E07800
E0F180
E1F300
E77700
FE7C00
783800
ENDCHAR
STARTCHAR uni01B5
ENCODING 437
SWIDTH 667 0
DWIDTH 22 0
BBX 23 25 -1 0
BITMAP
03FFFE
03F03E
07C07C
0700F8
0601F0
0E01E0
0C03E0
0807C0
000F80
000F00
001E00
0FFFE0
0FFFE0
00F800
00F000
01F000
03E008
07C018
0F8038
0F0030
1F0070
3E00F0
7C01E0
F807E0
FFFFE0
ENDCHAR
STARTCHAR uni01B6
ENCODING 438
SWIDTH 463 0
DWIDTH 15 0
BBX 16 16 -1 0
BITMAP
07C3
0FFF
19F6
300C
3018
0030
00E0
7FFF
7FFF
0E00
1C00
3004
6C0C
7F98
DFF0
C3E0
ENDCHAR
STARTCHAR uni01BB
ENCODING 443
SWIDTH 556 0
DWIDTH 18 0
BBX 18 24 0 0
BITMAP
007C00
01FF00
070780
0C03C0
0C03C0
1E01C0
1F03C0
1F03C0
1F03C0
0E0780
000F00
FFFFC0
FFFFC0
007800
00E000
038000
070000
0C0180
180300
300300
700600
FFFE00
FFFC00
FFFC00
ENDCHAR
STARTCHAR uni01BC
ENCODING 444
SWIDTH 556 0
DWIDTH 18 0
BBX 19 25 1 0
BITMAP
018020
03FFE0
03FFC0
03FF00
030000
060000
060000
060000
0C0000
0CF000
0DFC00
0FFE00
1C1E00
380F00
300F00
000700
000700
000F00
600F00
F00E00
F01E00
F01C00
E07800
79F000
1FC000
ENDCHAR
STARTCHAR uni01C0
ENCODING 448
SWIDTH 606 0
DWIDTH 20 0
BBX 2 25 9 0
BITMAP
C0
C0
C0
C0
C0
C0
C0
C0
C0
C0
C0
C0
C0
C0
C0
C0
C0
C0
C0
C0
C0
C0
C0
C0
C0
ENDCHAR
STARTCHAR uni01C2
ENCODING 450
SWIDTH 606 0
DWIDTH 20 0
BBX 17 25 1 -4
BITMAP
00C000
00C000
00C000
00C000
00C000
00C000
00C000
00C000
FFFF80
FFFF80
00C000
00C000
00C000
00C000
00C000
FFFF80
FFFF80
00C000
00C000
00C000
00C000
00C000
00C000
00C000
00C000
ENDCHAR
STARTCHAR uni01C3
ENCODING 451
SWIDTH 333 0
DWIDTH 11 0
BBX 9 25 1 0
BITMAP
0380
0780
0780
0780
0780
0700
0700
0600
0E00
0E00
0C00
0C00
0800
1800
1800
1800
1000
1000
0000
0000
0000
6000
F000
F000
6000
ENDCHAR
STARTCHAR uni01CD
ENCODING 461
SWIDTH 704 0
DWIDTH 22 0
BBX 25 32 -3 0
BITMAP
00103000
00186000
0008C000
000F8000
00070000
00060000
00000000
0000C000
0001C000
0001C000
0003C000
0007C000
0007E000
000DE000
000DE000
0018E000
0018E000
0030F000
0070F000
0060F000
00C0F000
00C07000
01FFF800
01FFF800
03007800
03007800
06003800
0E003C00
0C003C00
1C003C00
3E007E00
FF81FF80
ENDCHAR
STARTCHAR uni01CE
ENCODING 462
SWIDTH 574 0
DWIDTH 18 0
BBX 17 23 0 0
BITMAP
040C00
061800
023000
03E000
01C000
018000
000000
03C300
0FE700
1E3700
3C1E00
381E00
781E00
701C00
F01C00
E01C00
E03800
E03800
E03800
E07880
F0F980
7BBF00
3E1C00
ENDCHAR
STARTCHAR uni01CF
ENCODING 463
SWIDTH 407 0
DWIDTH 13 0
BBX 15 32 -1 0
BITMAP
040C
0618
0230
03E0
01C0
0180
0000
07FE
01F8
00F0
00F0
00E0
01E0
01E0
01E0
01C0
03C0
03C0
03C0
0380
0780
0780
0780
0700
0F00
0F00
0F00
0E00
1E00
1E00
3F00
FFC0
ENDCHAR
STARTCHAR uni01D0
ENCODING 464
SWIDTH 333 0
DWIDTH 11 0
BBX 10 23 1 0
BITMAP
40C0
6180
2300
3E00
1C00
1800
0000
0E00
7E00
1C00
1C00
1C00
3800
3800
3800
7000
7000
7100
E300
E300
E600
FC00
7000
ENDCHAR
STARTCHAR uni01D1
ENCODING 465
SWIDTH 778 0
DWIDTH 26 0
BBX 24 32 1 0
BITMAP
0040C0
006180
002300
003E00
001C00
001800
000000
001FC0
00FCF0
03E038
07C01C
0F801E
1F000E
1E000F
3E000F
3C000F
7C000F
78000F
78001F
F8001F
F8001E
F0001E
F0003E
F0003C
F0007C
F00078
7000F8
7801F0
3803E0
3C0780
0F3F00
03F800
ENDCHAR
STARTCHAR uni01D2
ENCODING 466
SWIDTH 500 0
DWIDTH 16 0
BBX 15 23 0 0
BITMAP
0818
0C30
0460
07C0
0380
0300
0000
03F0
0E38
1C1C
380C
780E
700E
700E
F00E
E01E
E01C
E01C
E038
E038
7070
38E0
1F80
ENDCHAR
STARTCHAR uni01D3
ENCODING 467
SWIDTH 815 0
DWIDTH 27 0
BBX 26 32 3 0
BITMAP
0040C000
00618000
00230000
003E0000
001C0000
00180000
00000000
7FE07FC0
1F801F00
0F000E00
0F000C00
1E000C00
1E000C00
1E001800
1E001800
3C001800
3C001800
3C003000
3C003000
78003000
78002000
78006000
78006000
F0006000
F0004000
F000C000
F000C000
F0018000
78038000
78070000
3E3E0000
07F80000
ENDCHAR
STARTCHAR uni01D4
ENCODING 468
SWIDTH 611 0
DWIDTH 20 0
BBX 17 23 1 0
BITMAP
040C00
061800
023000
03E000
01C000
018000
000000
1E0700
7C0F00
1C0E00
1C0E00
381E00
381C00
381C00
703C00
703800
707800
E07800
E0F180
E1F300
E77700
FE7C00
783800
ENDCHAR
STARTCHAR uni01D5
ENCODING 469
SWIDTH 815 0
DWIDTH 27 0
BBX 26 33 3 0
BITMAP
007FC000
007FC000
00000000
00186000
003CF000
00186000
00000000
00000000
7FE07FC0
1F801F00
0F000E00
0F000C00
1E000C00
1E000C00
1E001800
1E001800
3C001800
3C001800
3C003000
3C003000
78003000
78002000
78006000
78006000
F0006000
F0004000
F000C000
F000C000
F0018000
78038000
78070000
3E1E0000
0FF80000
ENDCHAR
STARTCHAR uni01D6
ENCODING 470
SWIDTH 611 0
DWIDTH 20 0
BBX 17 24 1 0
BITMAP
07FC00
07FC00
000000
031800
07BC00
031800
000000
000000
1C0700
7C0F00
1C0E00
1C0E00
381E00
381C00
381C00
703C00
703800
707800
E07800
E0F180
E1F300
E37700
FE7C00
783800
ENDCHAR
STARTCHAR uni01D7
ENCODING 471
SWIDTH 815 0
DWIDTH 27 0
BBX 26 37 3 0
BITMAP
0000C000
0001C000
0003C000
00070000
000C0000
00180000
00000000
00186000
003CF000
00186000
00000000
00000000
7FE07FC0
1F801F00
0F000E00
0F000C00
1E000C00
1E000C00
1E001800
1E001800
3C001800
3C001800
3C003000
3C003000
78003000
78002000
78006000
78006000
F0006000
F0004000
F000C000
F000C000
F0018000
78038000
78070000
3E1E0000
0FF80000
ENDCHAR
STARTCHAR uni01D8
ENCODING 472
SWIDTH 611 0
DWIDTH 20 0
BBX 17 28 1 0
BITMAP
000C00
001C00
003C00
007000
00C000
018000
000000
031800
07BC00
031800
000000
000000
1C0700
7C0F00
1C0E00
1C0E00
381E00
381C00
381C00
703C00
703800
707800
E07800
E0F180
E1F300
E37700
FE7C00
783800
ENDCHAR
STARTCHAR uni01D9
ENCODING 473
SWIDTH 815 0
DWIDTH 27 0
BBX 26 37 3 0
BITMAP
00206000
0030C000
00118000
001F0000
000E0000
000C0000
00000000
00186000
003CF000
00186000
00000000
00000000
7FE07FC0
1F801F00
0F000E00
0F000C00
1E000C00
1E000C00
1E001800
1E001800
3C001800
3C001800
3C003000
3C003000
78003000
78002000
78006000
78006000
F0006000
F0004000
F000C000
F000C000
F0018000
78038000
78070000
3E1E0000
0FF80000
ENDCHAR
STARTCHAR uni01DA
ENCODING 474
SWIDTH 611 0
DWIDTH 20 0
BBX 17 28 1 0
BITMAP
040C00
061800
023000
03E000
01C000
018000
000000
031800
07BC00
031800
000000
000000
1C0700
7C0F00
1C0E00
1C0E00
381E00
381C00
381C00
703C00
703800
707800
E07800
E0F180
E1F300
E37700
FE7C00
783800
ENDCHAR
STARTCHAR uni01DB
ENCODING 475
SWIDTH 815 0
DWIDTH 27 0
BBX 26 37 3 0
BITMAP
00600000
00700000
00780000
001C0000
00060000
00030000
00000000
00186000
003CF000
00186000
00000000
00000000
7FE07FC0
1F801F00
0F000E00
0F000C00
1E000C00
1E000C00
1E001800
1E001800
3C001800
3C001800
3C003000
3C003000
78003000
78002000
78006000
78006000
F0006000
F0004000
F000C000
F000C000
F0018000
78038000
78070000
3E1E0000
0FF80000
ENDCHAR
STARTCHAR uni01DC
ENCODING 476
SWIDTH 611 0
DWIDTH 20 0
BBX 17 28 1 0
BITMAP
0C0000
0E0000
0F0000
038000
00C000
006000
000000
031800
07BC00
031800
000000
000000
1C0700
7C0F00
1C0E00
1C0E00
381E00
381C00
381C00
703C00
703800
707800
E07800
E0F180
E1F300
E37700
FE7C00
783800
ENDCHAR
STARTCHAR uni01DD
ENCODING 477
SWIDTH 444 0
DWIDTH 14 0
BBX 13 16 0 0
BITMAP
07C0
1EF0
3070
6038
0038
0038
01F8
0738
1C78
3870
7070
E0E0
E0E0
E1C0
7380
3E00
ENDCHAR
STARTCHAR uni01DE
ENCODING 478
SWIDTH 704 0
DWIDTH 22 0
BBX 25 33 -3 0
BITMAP
001FF000
001FF000
00000000
00031800
0007BC00
00031800
00000000
00000000
0000C000
0001C000
0001C000
0003C000
0007C000
0007E000
000DE000
000DE000
0018E000
0018E000
0030F000
0070F000
0060F000
00C0F000
00C07000
01FFF800
01FFF800
03007800
03007800
06003800
0E003C00
0C003C00
1C003C00
3E007E00
FF81FF80
ENDCHAR
STARTCHAR uni01DF
ENCODING 479
SWIDTH 574 0
DWIDTH 18 0
BBX 17 24 0 0
BITMAP
07FC00
07FC00
000000
018C00
03DE00
018C00
000000
000000
03C300
0FE700
1E3700
3C1E00
381E00
781E00
701C00
F01C00
E01C00
E03800
E03800
E03880
E07980
F0FB00
7BBF00
3E1C00
ENDCHAR
STARTCHAR uni01E0
ENCODING 480
SWIDTH 704 0
DWIDTH 22 0
BBX 25 32 -3 0
BITMAP
003FE000
003FE000
00000000
00030000
00078000
00030000
00000000
0000C000
0001C000
0001C000
0003C000
0007C000
0007E000
000DE000
000DE000
0018E000
0018E000
0030F000
0070F000
0060F000
00C0F000
00C07000
01FFF800
01FFF800
03007800
03007800
06003800
0E003C00
0C003C00
1C003C00
3E007E00
FF81FF80
ENDCHAR
STARTCHAR uni01E1
ENCODING 481
SWIDTH 574 0
DWIDTH 18 0
BBX 17 23 0 0
BITMAP
07FC00
07FC00
000000
00C000
01E000
00C000
000000
03C300
0FE700
1E3700
3C1E00
381E00
781E00
701C00
F01C00
E01C00
E03800
E03800
E03800
E07880
F0F980
7BBF00
3E1C00
ENDCHAR
STARTCHAR uni01E2
ENCODING 482
SWIDTH 870 0
DWIDTH 29 0
BBX 32 28 -3 0
BITMAP
0001FF00
0001FF00
00000000
001FFFFF
0007DE3F
00039C07
0003BC07
00033C03
00063C03
00063802
000C7862
001C7862
001878E0
003071C0
0070FFC0
0060FFC0
00C0E3C0
01FFE180
01FFE180
0301E180
0701C104
0603C10C
0C03C00C
0C03C01C
18078038
38078078
7C0FE3F8
FE1FFFF0
ENDCHAR
STARTCHAR uni01E3
ENCODING 483
SWIDTH 722 0
DWIDTH 23 0
BBX 23 19 -1 0
BITMAP
00FF80
00FF80
000000
07E0FC
0C3B9E
1C1F0E
1C1E0E
1C1E0E
001C1C
001C78
03FBE0
1F3F00
783800
F03800
E07800
E0F80C
F19C38
7F1FF0
3C07C0
ENDCHAR
STARTCHAR uni01E4
ENCODING 484
SWIDTH 778 0
DWIDTH 25 0
BBX 29 25 1 0
BITMAP
003FC200
00F9E600
03C07E00
07803E00
0F001E00
1F001C00
1E000C00
3C000C00
3C000800
7C000800
78000000
78000000
F8000000
F007FF00
F007FF00
F0007800
F0007800
F0007000
F000F000
7000F000
7803FFF8
3803FFF8
3C03E000
1F9E6000
07FC4000
ENDCHAR
STARTCHAR uni01E5
ENCODING 485
SWIDTH 537 0
DWIDTH 17 0
BBX 20 24 -3 -7
BITMAP
0000F0
007FF0
01E730
038380
0701C0
0701C0
0701C0
070380
070380
030700
018F00
0FFC00
180000
180000
1FF000
1FFE00
1FFF00
FFFFF0
FFFFF0
E00300
E00700
E00E00
7C3C00
1FF000
ENDCHAR
STARTCHAR Gcaron
ENCODING 486
SWIDTH 778 0
DWIDTH 25 0
BBX 24 32 1 0
BITMAP
0040C0
006180
002300
003E00
001C00
001800
000000
003FC2
00F9E6
03C07E
07803E
0F001E
1F001C
1E000C
3C000C
3C0008
7C0008
780000
780000
F80000
F007FF
F007FF
F00078
F00078
F00070
F000F0
7000F0
7801E0
3801E0
3C03E0
1F9E60
07FC40
ENDCHAR
STARTCHAR gcaron
ENCODING 487
SWIDTH 537 0
DWIDTH 17 0
BBX 20 31 -3 -7
BITMAP
008180
00C300
004600
007C00
003800
003000
000000
0000F0
007FF0
01E730
038380
0701C0
0701C0
0701C0
070380
070380
030700
018F00
0FFC00
180000
180000
1FF000
1FFE00
1FFF00
780F00
600700
E00300
E00700
E00E00
7C3C00
1FF000
ENDCHAR
STARTCHAR uni01E8
ENCODING 488
SWIDTH 741 0
DWIDTH 24 0
BBX 28 32 -1 0
BITMAP
00103000
00186000
0008C000
000F8000
00070000
00060000
00000000
07FF3FF0
00F80FC0
00F00700
00F00E00
00F01C00
00E03800
01E07000
01E0E000
01E18000
01C30000
03CE0000
03DF0000
03FF0000
03F78000
07E78000
07C3C000
0783C000
0701C000
0F01E000
0F01E000
0F00F000
1E00F000
1E007800
3F007C00
FFC3FF00
ENDCHAR
STARTCHAR uni01E9
ENCODING 489
SWIDTH 556 0
DWIDTH 17 0
BBX 16 32 0 0
BITMAP
0818
0C30
0460
07C0
0380
0300
0000
01C0
0FC0
03C0
0380
0380
0380
0700
0700
0700
0F1E
0E7F
0EC7
1F87
1F07
1E0E
1C1C
3C70
3BC0
3860
7060
7061
7073
E076
E07C
E038
ENDCHAR
STARTCHAR uni01EA
ENCODING 490
SWIDTH 778 0
DWIDTH 26 0
BBX 24 30 1 -5
BITMAP
001FC0
00FCF0
03E038
07C01C
0F801E
1F000E
1E000F
3E000F
3C000F
7C000F
78000F
78001F
F8001F
F8001E
F0001E
F0003E
F0003C
F0007C
F00078
7000F8
7801F0
3803E0
3C0780
0F3F00
03F800
003000
006000
00C000
00EC00
007800
ENDCHAR
STARTCHAR uni01EB
ENCODING 491
SWIDTH 500 0
DWIDTH 16 0
BBX 15 21 0 -5
BITMAP
03F0
0E38
1C1C
380C
780E
700E
700E
F00E
E01E
E01C
E01C
E038
E038
7070
38E0
1F80
0300
0600
0C00
0EC0
0780
ENDCHAR
STARTCHAR uni01EC
ENCODING 492
SWIDTH 778 0
DWIDTH 26 0
BBX 24 33 1 -5
BITMAP
00FF80
00FF80
000000
001FC0
00FCF0
03E038
07C01C
0F801E
1F000E
1E000F
3E000F
3C000F
7C000F
78000F
78001F
F8001F
F8001E
F0001E
F0003E
F0003C
F0007C
F00078
7000F8
7801F0
3803E0
3C0780
0F3F00
03F800
003000
006000
00C000
00EC00
007800
ENDCHAR
STARTCHAR uni01ED
ENCODING 493
SWIDTH 500 0
DWIDTH 16 0
BBX 15 24 0 -5
BITMAP
1FF0
1FF0
0000
03F0
0E38
1C1C
380C
780E
700E
700E
F00E
E01E
E01C
E01C
E038
E038
7070
38E0
1F80
0300
0600
0C00
0EC0
0780
ENDCHAR
STARTCHAR uni01F0
ENCODING 496
SWIDTH 315 0
DWIDTH 9 0
BBX 16 30 -7 -7
BITMAP
0103
0186
008C
00F8
0070
0060
0000
001C
007C
001C
001C
0038
0038
0038
0038
0070
0070
0070
0070
00E0
00E0
00E0
01C0
01C0
01C0
4180
E380
E300
E600
7C00
ENDCHAR
STARTCHAR uni01F4
ENCODING 500
SWIDTH 778 0
DWIDTH 25 0
BBX 24 32 1 0
BITMAP
0000C0
0001C0
0003C0
000700
000C00
001800
000000
003FC2
00F9E6
03C07E
07803E
0F001E
1F001C
1E000C
3C000C
3C0008
7C0008
780000
780000
F80000
F007FF
F007FF
F00078
F00078
F00070
F000F0
7000F0
7801E0
3801E0
3C03E0
1F9E60
07FC40
ENDCHAR
STARTCHAR uni01F5
ENCODING 501
SWIDTH 537 0
DWIDTH 17 0
BBX 20 31 -3 -7
BITMAP
000180
000380
000780
000E00
001800
003000
000000
0000F0
007FF0
01E730
038380
0701C0
0701C0
0701C0
070380
070380
030700
018F00
0FFC00
180000
180000
1FF000
1FFE00
1FFF00
780F00
600700
E00300
E00700
E00E00
7C3C00
1FF000
ENDCHAR
STARTCHAR uni01F8
ENCODING 504
SWIDTH 815 0
DWIDTH 27 0
BBX 30 33 -2 -1
BITMAP
00180000
001C0000
001E0000
00070000
00018000
0000C000
00000000
07F807FC
00F801F0
007800E0
007C00E0
00FC00C0
00DE00C0
00DE00C0
009F0080
018F0180
018F0180
01878180
03078100
0303C300
0303C300
0301E300
0601E200
0601E600
0600F600
0600F600
0C007C00
0C007C00
0C003C00
1C003C00
3E003800
FF801800
00001800
ENDCHAR
STARTCHAR uni01F9
ENCODING 505
SWIDTH 611 0
DWIDTH 20 0
BBX 17 23 1 0
BITMAP
0C0000
0E0000
0F0000
038000
00C000
006000
000000
1C3800
7CFC00
1D8E00
1F0E00
1E0E00
3C1C00
381C00
381C00
783800
703800
703800
703080
E07180
E07300
E07E00
E03800
ENDCHAR
STARTCHAR Aringacute
ENCODING 506
SWIDTH 704 0
DWIDTH 22 0
BBX 25 39 -3 0
BITMAP
00003000
00007000
0000F000
0001C000
00030000
00060000
00000000
0001E000
00033000
00021000
00021000
00033000
0001E000
00000000
0000C000
0001C000
0001C000
0003C000
0007C000
0007E000
000DE000
000DE000
0018E000
0018E000
0030F000
0070F000
0060F000
00C0F000
00C07000
01FFF800
01FFF800
03007800
03007800
06003800
0E003C00
0C003C00
1C003C00
3E007E00
FF81FF80
ENDCHAR
STARTCHAR aringacute
ENCODING 507
SWIDTH 574 0
DWIDTH 18 0
BBX 17 30 0 0
BITMAP
000C00
001C00
003C00
007000
00C000
018000
000000
00F000
019800
010800
010800
019800
00F000
000000
03C300
0FE700
1E3700
3C1E00
381E00
781E00
701C00
F01C00
E01C00
E03800
E03800
E03880
E07980
F0FB00
7BBF00
3E1C00
ENDCHAR
STARTCHAR AEacute
ENCODING 508
SWIDTH 870 0
DWIDTH 29 0
BBX 32 32 -3 0
BITMAP
00000180
00000380
00000780
00000E00
00001800
00003000
00000000
001FFFFF
0007DE3F
00039C07
0003BC07
00033C03
00063C03
00063802
000C7862
001C7862
001878E0
003071C0
0070FFC0
0060FFC0
00C0E3C0
01FFE180
01FFE180
0301E180
0701C104
0603C10C
0C03C00C
0C03C01C
18078038
38078078
7C0FE3F8
FE1FFFF0
ENDCHAR
STARTCHAR aeacute
ENCODING 509
SWIDTH 722 0
DWIDTH 23 0
BBX 23 23 -1 0
BITMAP
0000C0
0001C0
0003C0
000700
000C00
001800
000000
07E0FC
0C3B9E
1C1F0E
1C1E0E
1C1E0E
001C1C
001C78
03FBE0
1F3F00
783800
F03800
E07800
E0F80C
F19C38
7F1FF0
3C07C0
ENDCHAR
STARTCHAR Oslashacute
ENCODING 510
SWIDTH 778 0
DWIDTH 26 0
BBX 24 34 1 -1
BITMAP
0000C0
0001C0
0003C0
000700
000C00
001800
000000
000003
003FC6
00F8FC
03E03C
07C03C
0F803E
1F006E
1E00CF
3E018F
3C030F
7C070F
78060F
780C1F
F8181F
F8301E
F0601E
F0E03E
F0C03C
F1807C
F30078
7600F8
7E00F0
3C01E0
3C03C0
3F1F00
67FC00
C00000
ENDCHAR
STARTCHAR oslashacute
ENCODING 511
SWIDTH 500 0
DWIDTH 16 0
BBX 15 30 0 -4
BITMAP
000C
001C
003C
0070
00C0
0180
0000
0004
000C
0008
03F8
0F38
1C3C
386C
784E
70CE
708E
F18E
E31E
E21C
E61C
E438
EC38
7870
38E0
3F80
2000
6000
4000
4000
ENDCHAR
STARTCHAR Scommaaccent
ENCODING 536
SWIDTH 667 0
DWIDTH 22 0
BBX 21 35 0 -10
BITMAP
007F18
01E398
0380F8
070078
060070
0E0030
0E0030
0F0020
0F8020
0FE000
07F800
07FE00
01FF80
007FC0
001FC0
2007E0
2001E0
6000E0
6000E0
7000E0
7000C0
7801C0
FE0380
CF8F00
C1FC00
000000
006000
00F000
00F000
00F000
002000
006000
00C000
018000
030000
ENDCHAR
STARTCHAR scommaaccent
ENCODING 537
SWIDTH 444 0
DWIDTH 14 0
BBX 13 26 0 -10
BITMAP
07E0
1C78
3838
3038
3818
3C00
1F00
1FC0
07E0
01F0
6070
E070
E070
E060
71C0
3F80
0000
0600
0F00
0F00
0F00
0200
0600
0C00
1800
3000
ENDCHAR
STARTCHAR Tcommaaccent
ENCODING 538
SWIDTH 685 0
DWIDTH 22 0
BBX 23 35 1 -10
BITMAP
3FFFFE
3F3E7E
3C3C1C
783C1C
703C1C
603818
607818
807810
807810
007000
00F000
00F000
00F000
01E000
01E000
01E000
01E000
03C000
03C000
03C000
038000
078000
078000
0FC000
7FF800
000000
00C000
01E000
01E000
01E000
004000
00C000
018000
030000
060000
ENDCHAR
STARTCHAR tcommaaccent
ENCODING 539
SWIDTH 352 0
DWIDTH 11 0
BBX 10 32 1 -10
BITMAP
0380
0300
0700
0700
0E00
0E00
7FC0
1C00
1C00
1C00
3800
3800
3800
7000
7000
7000
7080
E180
E300
F600
FC00
7000
0000
1800
3C00
3C00
3C00
0800
1800
3000
6000
C000
ENDCHAR
STARTCHAR uni021E
ENCODING 542
SWIDTH 833 0
DWIDTH 27 0
BBX 31 32 -1 0
BITMAP
00040C00
00061800
00023000
0003E000
0001C000
00018000
00000000
07FF0FFE
01FC03F8
00F001E0
00F001E0
00F001C0
01E003C0
01E003C0
01E003C0
01E003C0
03C00780
03C00780
03FFFF80
03FFFF80
07800F00
07800F00
07800F00
07800F00
0F001E00
0F001E00
0F001E00
0F001E00
1E003C00
1E003C00
3F007E00
FFC1FF80
ENDCHAR
STARTCHAR uni021F
ENCODING 543
SWIDTH 611 0
DWIDTH 19 0
BBX 18 32 0 0
BITMAP
081800
0C3000
046000
07C000
038000
030000
000000
01C000
0FC000
03C000
038000
038000
038000
038000
070000
070000
071C00
0E7E00
0EC700
0F8700
1F0700
1E0700
1C0E00
3C0E00
380E00
381C00
381C00
701C40
7038C0
703980
E01F00
E01C00
ENDCHAR
STARTCHAR uni0226
ENCODING 550
SWIDTH 704 0
DWIDTH 22 0
BBX 25 29 -3 0
BITMAP
00030000
00078000
00030000
00000000
0000C000
0001C000
0001C000
0003C000
0007C000
0007E000
000DE000
000DE000
0018E000
0018E000
0030F000
0070F000
0060F000
00C0F000
00C07000
01FFF800
01FFF800
03007800
03007800
06003800
0E003C00
0C003C00
1C003C00
3E007E00
FF81FF80
ENDCHAR
STARTCHAR uni0227
ENCODING 551
SWIDTH 574 0
DWIDTH 18 0
BBX 17 20 0 0
BITMAP
00C000
01E000
00C000
000000
03C300
0FE700
1E3700
3C1E00
381E00
781E00
701C00
F01C00
E01C00
E03800
E03800
E03800
E07880
F0F980
7BBF00
3E1C00
ENDCHAR
STARTCHAR uni0228
ENCODING 552
SWIDTH 722 0
DWIDTH 23 0
BBX 24 32 -1 -7
BITMAP
07FFFF
00F83F
00F00F
00F007
00F007
00F003
01E042
01E0C2
01E0C0
01E1C0
03C380
03FF80
03FF80
038700
078700
078300
078200
070204
0F000C
0F0018
0F0018
1E0038
1E00F8
3F07F0
FFFFF0
001000
002000
007800
000C00
000C00
009C00
007800
ENDCHAR
STARTCHAR uni0229
ENCODING 553
SWIDTH 444 0
DWIDTH 14 0
BBX 13 23 0 -7
BITMAP
03E0
0E70
1C38
3838
3838
7070
70E0
F1C0
E700
FC00
E000
E000
E030
7060
7BC0
1F00
0200
0400
0F00
0180
0180
1380
0F00
ENDCHAR
STARTCHAR uni022A
ENCODING 554
SWIDTH 778 0
DWIDTH 26 0
BBX 24 33 1 0
BITMAP
007FC0
007FC0
000000
001860
003CF0
001860
000000
000000
003FC0
00F8F0
03E038
07C01C
0F801E
1F000E
1E000F
3E000F
3C000F
7C000F
78000F
78001F
F8001F
F8001E
F0001E
F0003E
F0003C
F0007C
F00078
7000F8
7801F0
3803E0
3C0780
0F1F00
07FC00
ENDCHAR
STARTCHAR uni022B
ENCODING 555
SWIDTH 500 0
DWIDTH 16 0
BBX 15 24 0 0
BITMAP
0FF8
0FF8
0000
0318
07BC
0318
0000
0000
03F0
0E38
1C1C
380C
780E
700E
700E
F00E
E01E
E01C
E01C
E038
E038
7070
38E0
1F80
ENDCHAR
STARTCHAR uni022C
ENCODING 556
SWIDTH 778 0
DWIDTH 26 0
BBX 24 33 1 0
BITMAP
007FC0
007FC0
000000
000E10
001FF0
0010E0
000000
000000
003FC0
00F8F0
03E038
07C01C
0F801E
1F000E
1E000F
3E000F
3C000F
7C000F
78000F
78001F
F8001F
F8001E
F0001E
F0003E
F0003C
F0007C
F00078
7000F8
7801F0
3803E0
3C0780
0F1F00
07FC00
ENDCHAR
STARTCHAR uni022D
ENCODING 557
SWIDTH 500 0
DWIDTH 16 0
BBX 15 24 0 0
BITMAP
0FF8
0FF8
0000
0384
07FC
0438
0000
0000
03F0
0E38
1C1C
380C
780E
700E
700E
F00E
E01E
E01C
E01C
E038
E038
7070
38E0
1F80
ENDCHAR
STARTCHAR uni022E
ENCODING 558
SWIDTH 778 0
DWIDTH 26 0
BBX 24 29 1 0
BITMAP
000C00
001E00
000C00
000000
001FC0
00FCF0
03E038
07C01C
0F801E
1F000E
1E000F
3E000F
3C000F
7C000F
78000F
78001F
F8001F
F8001E
F0001E
F0003E
F0003C
F0007C
F00078
7000F8
7801F0
3803E0
3C0780
0F3F00
03F800
ENDCHAR
STARTCHAR uni022F
ENCODING 559
SWIDTH 500 0
DWIDTH 16 0
BBX 15 20 0 0
BITMAP
0180
03C0
0180
0000
03F0
0E38
1C1C
380C
780E
700E
700E
F00E
E01E
E01C
E01C
E038
E038
7070
38E0
1F80
ENDCHAR
STARTCHAR uni0230
ENCODING 560
SWIDTH 778 0
DWIDTH 26 0
BBX 24 32 1 0
BITMAP
00FF80
00FF80
000000
000C00
001E00
000C00
000000
001FC0
00FCF0
03E038
07C01C
0F801E
1F000E
1E000F
3E000F
3C000F
7C000F
78000F
78001F
F8001F
F8001E
F0001E
F0003E
F0003C
F0007C
F00078
7000F8
7801F0
3803E0
3C0780
0F3F00
03F800
ENDCHAR
STARTCHAR uni0231
ENCODING 561
SWIDTH 500 0
DWIDTH 16 0
BBX 15 23 0 0
BITMAP
0FF8
0FF8
0000
0180
03C0
0180
0000
03F0
0E38
1C1C
380C
780E
700E
700E
F00E
E01E
E01C
E01C
E038
E038
7070
38E0
1F80
ENDCHAR
STARTCHAR uni0232
ENCODING 562
SWIDTH 685 0
DWIDTH 23 0
BBX 25 28 1 0
BITMAP
01FF0000
01FF0000
00000000
FFE1FF80
3F807E00
1F003800
0F003000
0F006000
0780E000
0780C000
03C18000
03C30000
03C70000
01E60000
01EC0000
00FC0000
00F80000
00F00000
00F00000
00F00000
01E00000
01E00000
01E00000
01E00000
03C00000
03C00000
0FE00000
3FF80000
ENDCHAR
STARTCHAR uni0233
ENCODING 563
SWIDTH 500 0
DWIDTH 16 0
BBX 18 26 -3 -7
BITMAP
07FC00
07FC00
000000
070180
0F83C0
0F83C0
1BC3C0
11C180
11C180
01C100
00E300
00E200
00E600
00E400
007C00
007800
007800
007000
006000
006000
00C000
60C000
E18000
E30000
E60000
7C0000
ENDCHAR
STARTCHAR uni0250
ENCODING 592
SWIDTH 574 0
DWIDTH 18 0
BBX 17 16 0 0
BITMAP
1C3E00
7EEF00
CF8780
8F0380
0E0380
0E0380
0E0380
1C0380
1C0780
1C0700
3C0F00
3C0E00
3C1E00
763C00
73F800
61E000
ENDCHAR
STARTCHAR uni0259
ENCODING 601
SWIDTH 444 0
DWIDTH 14 0
BBX 13 16 0 0
BITMAP
07C0
1EF0
3070
6038
0038
0038
01F8
0738
1C78
3870
7070
E0E0
E0E0
E1C0
7380
3E00
ENDCHAR
STARTCHAR uni025F
ENCODING 607
SWIDTH 333 0
DWIDTH 10 0
BBX 17 31 -2 -15
BITMAP
000080
000380
000780
000700
000700
000E00
000E00
000E00
001C00
001C00
001C00
001C00
003800
003800
003800
003800
007000
007000
007000
006000
00E000
0FFC00
00E000
00C000
01C000
01C000
418000
E38000
E30000
E60000
7C0000
ENDCHAR
STARTCHAR uni0265
ENCODING 613
SWIDTH 611 0
DWIDTH 19 0
BBX 18 25 0 -9
BITMAP
0E01C0
3E01C0
670380
C70380
8E0380
0E0700
0E0700
1C0700
1C0F00
1C0E00
381E00
383E00
387C00
38DC00
1F9C00
0E3800
003800
003800
007000
007000
007000
007000
00F000
00FC00
00E000
ENDCHAR
STARTCHAR uni0275
ENCODING 629
SWIDTH 500 0
DWIDTH 16 0
BBX 15 16 0 0
BITMAP
03F0
0E38
1C1C
380C
780E
700E
700E
FFFE
FFFE
E01C
E01C
E038
E038
7070
38E0
1F80
ENDCHAR
STARTCHAR uni0279
ENCODING 633
SWIDTH 444 0
DWIDTH 14 0
BBX 14 16 0 0
BITMAP
001C
003C
0038
0038
0038
0070
0070
0070
00E0
00E0
01E0
43E0
E2C0
E6C0
FDF8
79C0
ENDCHAR
STARTCHAR uni0287
ENCODING 647
SWIDTH 352 0
DWIDTH 11 0
BBX 10 22 1 0
BITMAP
0380
0FC0
1BC0
31C0
61C0
4380
0380
0380
0380
0700
0700
0700
0E00
0E00
0E00
FF80
1C00
1C00
3800
3800
3000
7000
ENDCHAR
STARTCHAR uni0289
ENCODING 649
SWIDTH 611 0
DWIDTH 20 0
BBX 17 16 1 0
BITMAP
1E0700
7C0F00
1C0E00
1C0E00
381E00
381C00
381C00
FFFF80
FFFF80
707800
E07800
E0F180
E1F300
E77700
FE7C00
783800
ENDCHAR
STARTCHAR uni028C
ENCODING 652
SWIDTH 519 0
DWIDTH 17 0
BBX 14 16 1 0
BITMAP
01E0
07F8
0E38
181C
181C
301C
201C
601C
6038
4038
C038
C070
E070
F070
F8FC
70E0
ENDCHAR
STARTCHAR uni028D
ENCODING 653
SWIDTH 778 0
DWIDTH 26 0
BBX 23 16 1 0
BITMAP
01E038
03F8FC
06398E
0C3B0E
183A0E
303E0E
303C1C
603C1C
40381C
C07838
C07038
C07038
E07030
F0F070
F0E07C
70E070
ENDCHAR
STARTCHAR uni028E
ENCODING 654
SWIDTH 500 0
DWIDTH 16 0
BBX 18 23 -3 0
BITMAP
000F80
0019C0
0031C0
0061C0
00C180
00C000
018000
018000
038000
078000
078000
0F8000
09C000
19C000
11C000
31C000
20E000
60E200
60E200
F0F600
F07C00
F07C00
603800
ENDCHAR
STARTCHAR uni029E
ENCODING 670
SWIDTH 556 0
DWIDTH 17 0
BBX 16 25 0 -9
BITMAP
1C07
3E07
6E07
CE0E
860E
060E
061C
03DC
0E3C
3838
7078
E0F8
E1F8
E370
FE70
78F0
00E0
00E0
00E0
01C0
01C0
01C0
03C0
03F0
0380
ENDCHAR
STARTCHAR uni02BB
ENCODING 699
SWIDTH 204 0
DWIDTH 7 0
BBX 6 9 2 16
BITMAP
0C
18
30
60
40
F0
F0
F0
60
ENDCHAR
STARTCHAR afii57929
ENCODING 700
SWIDTH 204 0
DWIDTH 7 0
BBX 6 9 1 16
BITMAP
18
3C
3C
3C
08
18
30
60
C0
ENDCHAR
STARTCHAR afii64937
ENCODING 701
SWIDTH 204 0
DWIDTH 7 0
BBX 6 9 1 16
BITMAP
60
F0
F0
F0
40
60
30
18
0C
ENDCHAR
STARTCHAR circumflex
ENCODING 710
SWIDTH 333 0
DWIDTH 11 0
BBX 9 6 1 17
BITMAP
0600
0E00
1F00
3100
6180
C080
ENDCHAR
STARTCHAR caron
ENCODING 711
SWIDTH 333 0
DWIDTH 11 0
BBX 9 6 1 17
BITMAP
8180
C300
4600
7C00
3800
3000
ENDCHAR
STARTCHAR uni02C8
ENCODING 712
SWIDTH 278 0
DWIDTH 9 0
BBX 5 8 4 17
BITMAP
30
38
78
70
60
E0
C0
80
ENDCHAR
STARTCHAR macron
ENCODING 713
SWIDTH 333 0
DWIDTH 11 0
BBX 9 2 3 19
BITMAP
FF80
FF80
ENDCHAR
STARTCHAR uni02CA
ENCODING 714
SWIDTH 333 0
DWIDTH 11 0
BBX 7 6 4 17
BITMAP
06
0E
1E
38
60
C0
ENDCHAR
STARTCHAR uni02CB
ENCODING 715
SWIDTH 333 0
DWIDTH 11 0
BBX 7 6 2 17
BITMAP
C0
E0
F0
38
0C
06
ENDCHAR
STARTCHAR uni02CD
ENCODING 717
SWIDTH 333 0
DWIDTH 11 0
BBX 9 2 3 -3
BITMAP
FF80
FF80
ENDCHAR
STARTCHAR uni02CE
ENCODING 718
SWIDTH 333 0
DWIDTH 11 0
BBX 7 6 2 -7
BITMAP
C0
E0
F0
38
0C
06
ENDCHAR
STARTCHAR uni02CF
ENCODING 719
SWIDTH 333 0
DWIDTH 11 0
BBX 7 6 4 -7
BITMAP
06
0E
1E
38
60
C0
ENDCHAR
STARTCHAR breve
ENCODING 728
SWIDTH 333 0
DWIDTH 12 0
BBX 10 4 1 17
BITMAP
C0C0
C180
7F00
1C00
ENDCHAR
STARTCHAR dotaccent
ENCODING 729
SWIDTH 333 0
DWIDTH 11 0
BBX 4 3 3 17
BITMAP
60
F0
60
ENDCHAR
STARTCHAR ring
ENCODING 730
SWIDTH 333 0
DWIDTH 11 0
BBX 6 6 2 17
BITMAP
78
CC
84
84
CC
78
ENDCHAR
STARTCHAR ogonek
ENCODING 731
SWIDTH 333 0
DWIDTH 11 0
BBX 6 5 2 -5
BITMAP
30
60
C0
EC
78
ENDCHAR
STARTCHAR tilde
ENCODING 732
SWIDTH 333 0
DWIDTH 11 0
BBX 9 3 1 17
BITMAP
7080
FF80
8700
ENDCHAR
STARTCHAR hungarumlaut
ENCODING 733
SWIDTH 333 0
DWIDTH 13 0
BBX 13 6 0 17
BITMAP
0618
0E38
1C70
38E0
6180
C300
ENDCHAR
STARTCHAR uni02EE
ENCODING 750
SWIDTH 389 0
DWIDTH 13 0
BBX 12 9 1 16
BITMAP
1860
3CF0
3CF0
3CF0
0820
1860
30C0
6180
C300
ENDCHAR
STARTCHAR uni037E
ENCODING 894
SWIDTH 278 0
DWIDTH 9 0
BBX 9 21 -1 -5
BITMAP
0300
0780
0780
0300
0000
0000
0000
0000
0000
0000
0000
0000
1800
3C00
3C00
3C00
0800
1800
3000
6000
C000
ENDCHAR
STARTCHAR tonos
ENCODING 900
SWIDTH 333 0
DWIDTH 11 0
BBX 7 6 4 17
BITMAP
06
0E
1E
38
60
C0
ENDCHAR
STARTCHAR dieresistonos
ENCODING 901
SWIDTH 333 0
DWIDTH 11 0
BBX 9 10 3 19
BITMAP
0180
0380
0780
0E00
1800
3000
0000
6300
F780
6300
ENDCHAR
STARTCHAR anoteleia
ENCODING 903
SWIDTH 278 0
DWIDTH 9 0
BBX 4 4 2 6
BITMAP
60
F0
F0
60
ENDCHAR
STARTCHAR mu
ENCODING 956
SWIDTH 611 0
DWIDTH 20 0
BBX 20 22 -2 -6
BITMAP
01C0E0
0FC1E0
0381C0
0381C0
0303C0
030380
070380
060780
060700
0E0F00
0C0E00
0C1E30
1C3E60
1C6EC0
1FCF80
370700
200000
600000
600000
E00000
E00000
C00000
ENDCHAR
STARTCHAR uni1E00
ENCODING 7680
SWIDTH 704 0
DWIDTH 22 0
BBX 25 32 -3 -7
BITMAP
0000C000
0001C000
0001C000
0003C000
0007C000
0007E000
000DE000
000DE000
0018E000
0018E000
0030F000
0070F000
0060F000
00C0F000
00C07000
01FFF800
01FFF800
03007800
03007800
06003800
0E003C00
0C003C00
1C003C00
3E007E00
FF81FF80
00000000
001E0000
00330000
00210000
00210000
00330000
001E0000
ENDCHAR
STARTCHAR uni1E01
ENCODING 7681
SWIDTH 574 0
DWIDTH 18 0
BBX 17 23 0 -7
BITMAP
03C300
0FE700
1E3700
3C1E00
381E00
781E00
701C00
F01C00
E01C00
E03800
E03800
E03800
E07880
F0F980
7BBF00
3E1C00
000000
03C000
066000
042000
042000
066000
03C000
ENDCHAR
STARTCHAR uni1E02
ENCODING 7682
SWIDTH 722 0
DWIDTH 23 0
BBX 23 29 -1 0
BITMAP
000C00
001E00
000C00
000000
07FFF0
01F8F8
00F03C
00F01E
00E01E
01E01E
01E01E
01E01E
01C01E
03C03C
03C0F8
03FFF0
03FF80
0781E0
0780F8
078078
07003C
0F003C
0F003C
0F003C
0E007C
1E0078
1E00F0
3E07E0
FFFF80
ENDCHAR
STARTCHAR uni1E03
ENCODING 7683
SWIDTH 556 0
DWIDTH 18 0
BBX 15 29 1 0
BITMAP
0300
0780
0300
0000
0380
1F00
0700
0700
0E00
0E00
0E00
1E00
1C00
1CF8
1FFC
3E1C
3C1E
380E
780E
700E
700E
601E
E01C
E01C
E038
E038
E0F0
79E0
1F80
ENDCHAR
STARTCHAR uni1E04
ENCODING 7684
SWIDTH 722 0
DWIDTH 23 0
BBX 23 29 -1 -4
BITMAP
07FFF0
01F8F8
00F03C
00F01E
00E01E
01E01E
01E01E
01E01E
01C01E
03C03C
03C0F8
03FFF0
03FF80
0781E0
0780F8
078078
07003C
0F003C
0F003C
0F003C
0E007C
1E0078
1E00F0
3E07E0
FFFF80
000000
003000
007800
003000
ENDCHAR
STARTCHAR uni1E05
ENCODING 7685
SWIDTH 556 0
DWIDTH 18 0
BBX 15 29 1 -4
BITMAP
0380
1F00
0700
0700
0E00
0E00
0E00
1E00
1C00
1CF8
1FFC
3E1C
3C1E
380E
780E
700E
700E
601E
E01C
E01C
E038
E038
E0F0
79E0
1F80
0000
0300
0780
0300
ENDCHAR
STARTCHAR uni1E06
ENCODING 7686
SWIDTH 722 0
DWIDTH 23 0
BBX 23 28 -1 -3
BITMAP
07FFF0
01F8F8
00F03C
00F01E
00E01E
01E01E
01E01E
01E01E
01C01E
03C03C
03C0F8
03FFF0
03FF80
0781E0
0780F8
078078
07003C
0F003C
0F003C
0F003C
0E007C
1E0078
1E00F0
3E07E0
FFFF80
000000
01FF00
01FF00
ENDCHAR
STARTCHAR uni1E07
ENCODING 7687
SWIDTH 556 0
DWIDTH 18 0
BBX 15 28 1 -3
BITMAP
0380
1F00
0700
0700
0E00
0E00
0E00
1E00
1C00
1CF8
1FFC
3E1C
3C1E
380E
780E
700E
700E
601E
E01C
E01C
E038
E038
E0F0
79E0
1F80
0000
3FE0
3FE0
ENDCHAR
STARTCHAR uni1E08
ENCODING 7688
SWIDTH 722 0
DWIDTH 23 0
BBX 22 39 1 -7
BITMAP
000180
000380
000780
000E00
001800
003000
000000
007F80
01F1CC
03C07C
07803C
0F003C
1E0038
1E0018
3C0018
7C0010
780010
780000
F80000
F80000
F00000
F00000
F00000
F00000
F00000
F00020
780060
780040
3C00C0
3E0380
0F9F00
07F800
004000
008000
01E000
003000
003000
067000
03E000
ENDCHAR
STARTCHAR uni1E09
ENCODING 7689
SWIDTH 444 0
DWIDTH 14 0
BBX 13 30 0 -7
BITMAP
0030
0070
00F0
01C0
0300
0600
0000
03E0
0E30
1C18
3878
7878
7030
F000
F000
E000
E000
E000
E000
E030
7060
7DC0
1F00
0200
0400
0F00
0180
0180
1380
0F00
ENDCHAR
STARTCHAR uni1E0A
ENCODING 7690
SWIDTH 778 0
DWIDTH 26 0
BBX 26 29 -1 0
BITMAP
00030000
00078000
00030000
00000000
07FFF000
00FC7C00
00781F00
00780700
00F00780
00F00380
00F003C0
00F003C0
01E003C0
01E003C0
01E003C0
01E003C0
03C007C0
03C007C0
03C00780
03C00F80
07800F80
07800F00
07801F00
07801E00
0F003C00
0F007800
0F01F000
1F1FE000
FFFF0000
ENDCHAR
STARTCHAR uni1E0B
ENCODING 7691
SWIDTH 611 0
DWIDTH 20 0
BBX 19 29 0 0
BITMAP
000600
000F00
000600
000000
0000E0
0003E0
0000E0
0000E0
0001C0
0001C0
0001C0
0003C0
000380
01F380
0F1B80
1E0F00
3C0F00
380F00
780E00
700E00
F00E00
F00E00
E01C00
E01C00
E03C00
E03C40
7078C0
79DF80
3F8E00
ENDCHAR
STARTCHAR uni1E0C
ENCODING 7692
SWIDTH 778 0
DWIDTH 26 0
BBX 26 29 -1 -4
BITMAP
07FFF000
00FC7C00
00781F00
00780700
00F00780
00F00380
00F003C0
00F003C0
01E003C0
01E003C0
01E003C0
01E003C0
03C007C0
03C007C0
03C00780
03C00F80
07800F80
07800F00
07801F00
07801E00
0F003C00
0F007800
0F01F000
1F1FE000
FFFF0000
00000000
00180000
003C0000
00180000
ENDCHAR
STARTCHAR uni1E0D
ENCODING 7693
SWIDTH 611 0
DWIDTH 20 0
BBX 19 29 0 -4
BITMAP
0000E0
0003E0
0000E0
0000E0
0001C0
0001C0
0001C0
0003C0
000380
01F380
0F1B80
1E0F00
3C0F00
380F00
780E00
700E00
F00E00
F00E00
E01C00
E01C00
E03C00
E03C40
7078C0
79DF80
3F8E00
000000
00C000
01E000
00C000
ENDCHAR
STARTCHAR uni1E0E
ENCODING 7694
SWIDTH 778 0
DWIDTH 26 0
BBX 26 28 -1 -3
BITMAP
07FFF000
00FC7C00
00781F00
00780700
00F00780
00F00380
00F003C0
00F003C0
01E003C0
01E003C0
01E003C0
01E003C0
03C007C0
03C007C0
03C00780
03C00F80
07800F80
07800F00
07801F00
07801E00
0F003C00
0F007800
0F01F000
1F1FE000
FFFF0000
00000000
00FF8000
00FF8000
ENDCHAR
STARTCHAR uni1E0F
ENCODING 7695
SWIDTH 611 0
DWIDTH 20 0
BBX 19 28 0 -3
BITMAP
0000E0
0003E0
0000E0
0000E0
0001C0
0001C0
0001C0
0003C0
000380
01F380
0F1B80
1E0F00
3C0F00
380F00
780E00
700E00
F00E00
F00E00
E01C00
E01C00
E03C00
E03C40
7078C0
79DF80
3F8E00
000000
0FF800
0FF800
ENDCHAR
STARTCHAR uni1E10
ENCODING 7696
SWIDTH 778 0
DWIDTH 26 0
BBX 26 32 -1 -7
BITMAP
07FFF000
00FC7C00
00781F00
00780700
00F00780
00F00380
00F003C0
00F003C0
01E003C0
01E003C0
01E003C0
01E003C0
03C007C0
03C007C0
03C00780
03C00F80
07800F80
07800F00
07801F00
07801E00
0F003C00
0F007800
0F01F000
1F1FE000
FFFF0000
00080000
00100000
003C0000
00060000
00060000
004E0000
003C0000
ENDCHAR
STARTCHAR uni1E11
ENCODING 7697
SWIDTH 611 0
DWIDTH 20 0
BBX 19 32 0 -7
BITMAP
0000E0
0003E0
0000E0
0000E0
0001C0
0001C0
0001C0
0003C0
000380
01F380
0F1B80
1E0F00
3C0F00
380F00
780E00
700E00
F00E00
F00E00
E01C00
E01C00
E03C00
E03C40
7078C0
79DF80
3F8E00
004000
008000
01E000
003000
003000
027000
01E000
ENDCHAR
STARTCHAR uni1E12
ENCODING 7698
SWIDTH 778 0
DWIDTH 26 0
BBX 26 32 -1 -7
BITMAP
07FFF000
00FC7C00
00781F00
00780700
00F00780
00F00380
00F003C0
00F003C0
01E003C0
01E003C0
01E003C0
01E003C0
03C007C0
03C007C0
03C00780
03C00F80
07800F80
07800F00
07801F00
07801E00
0F003C00
0F007800
0F01F000
1F1FE000
FFFF0000
00000000
000C0000
001C0000
003E0000
00620000
00C30000
01810000
ENDCHAR
STARTCHAR uni1E13
ENCODING 7699
SWIDTH 611 0
DWIDTH 20 0
BBX 19 32 0 -7
BITMAP
0000E0
0003E0
0000E0
0000E0
0001C0
0001C0
0001C0
0003C0
000380
01F380
0F1B80
1E0F00
3C0F00
380F00
780E00
700E00
F00E00
F00E00
E01C00
E01C00
E03C00
E03C40
7078C0
79DF80
3F8E00
000000
00C000
01C000
03E000
062000
0C3000
181000
ENDCHAR
STARTCHAR uni1E14
ENCODING 7700
SWIDTH 722 0
DWIDTH 23 0
BBX 24 35 -1 0
BITMAP
006000
007000
007800
001C00
000600
000300
000000
007FC0
007FC0
000000
07FFFF
00F83F
00F00F
00F007
00F007
00F003
01E042
01E0C2
01E0C0
01E1C0
03C380
03FF80
03FF80
038700
078700
078300
078200
070204
0F000C
0F0018
0F0018
1E0038
1E00F8
3F07F0
FFFFF0
ENDCHAR
STARTCHAR uni1E15
ENCODING 7701
SWIDTH 444 0
DWIDTH 14 0
BBX 13 26 0 0
BITMAP
1800
1C00
1E00
0700
0180
00C0
0000
1FF0
1FF0
0000
03E0
0E70
1C38
3838
3838
7070
70E0
F1C0
E700
FC00
E000
E000
E030
7060
7BC0
1F00
ENDCHAR
STARTCHAR uni1E16
ENCODING 7702
SWIDTH 722 0
DWIDTH 23 0
BBX 24 35 -1 0
BITMAP
000060
0000E0
0001E0
000380
000600
000C00
000000
007FC0
007FC0
000000
07FFFF
00F83F
00F00F
00F007
00F007
00F003
01E042
01E0C2
01E0C0
01E1C0
03C380
03FF80
03FF80
038700
078700
078300
078200
070204
0F000C
0F0018
0F0018
1E0038
1E00F8
3F07F0
FFFFF0
ENDCHAR
STARTCHAR uni1E17
ENCODING 7703
SWIDTH 444 0
DWIDTH 14 0
BBX 13 26 0 0
BITMAP
0030
0070
00F0
01C0
0300
0600
0000
1FF0
1FF0
0000
03E0
0E70
1C38
3838
3838
7070
70E0
F1C0
E700
FC00
E000
E000
E030
7060
7BC0
1F00
ENDCHAR
STARTCHAR uni1E18
ENCODING 7704
SWIDTH 722 0
DWIDTH 23 0
BBX 24 32 -1 -7
BITMAP
07FFFF
00F83F
00F00F
00F007
00F007
00F003
01E042
01E0C2
01E0C0
01E1C0
03C380
03FF80
03FF80
038700
078700
078300
078200
070204
0F000C
0F0018
0F0018
1E0038
1E00F8
3F07F0
FFFFF0
000000
001800
003800
007C00
00C400
018600
030200
ENDCHAR
STARTCHAR uni1E19
ENCODING 7705
SWIDTH 444 0
DWIDTH 14 0
BBX 13 23 0 -7
BITMAP
03E0
0E70
1C38
3838
3838
7070
70E0
F1C0
E700
FC00
E000
E000
E030
7060
7BC0
1F00
0000
0600
0E00
1F00
3100
6180
C080
ENDCHAR
STARTCHAR uni1E1A
ENCODING 7706
SWIDTH 722 0
DWIDTH 23 0
BBX 24 29 -1 -4
BITMAP
07FFFF
00F83F
00F00F
00F007
00F007
00F003
01E042
01E0C2
01E0C0
01E1C0
03C380
03FF80
03FF80
038700
078700
078300
078200
070204
0F000C
0F0018
0F0018
1E0038
1E00F8
3F07F0
FFFFF0
000000
00E100
01FF00
010E00
ENDCHAR
STARTCHAR uni1E1B
ENCODING 7707
SWIDTH 444 0
DWIDTH 14 0
BBX 13 20 0 -4
BITMAP
03E0
0E70
1C38
3838
3838
7070
70E0
F1C0
E700
FC00
E000
E000
E030
7060
7BC0
1F00
0000
3840
7FC0
4380
ENDCHAR
STARTCHAR uni1E1C
ENCODING 7708
SWIDTH 722 0
DWIDTH 23 0
BBX 24 37 -1 -7
BITMAP
006060
0060C0
003F80
000E00
000000
07FFFF
00F83F
00F00F
00F007
00F007
00F003
01E042
01E0C2
01E0C0
01E1C0
03C380
03FF80
03FF80
038700
078700
078300
078200
070204
0F000C
0F0018
0F0018
1E0038
1E00F8
3F07F0
FFFFF0
001000
002000
007800
000C00
000C00
009C00
007800
ENDCHAR
STARTCHAR uni1E1D
ENCODING 7709
SWIDTH 444 0
DWIDTH 14 0
BBX 13 28 0 -7
BITMAP
1818
1830
0FE0
0380
0000
03E0
0E70
1C38
3838
3838
7070
70E0
F1C0
E700
FC00
E000
E000
E030
7060
7BC0
1F00
0200
0400
0F00
0180
0180
1380
0F00
ENDCHAR
STARTCHAR uni1E1E
ENCODING 7710
SWIDTH 667 0
DWIDTH 22 0
BBX 24 29 -1 0
BITMAP
000600
000F00
000600
000000
07FFFF
01F83F
00F00F
00F007
00F006
01E002
01E042
01E0C2
01E0C0
03C1C0
03C380
03FF80
03FF80
078700
078300
078300
078200
0F0200
0F0000
0F0000
0F0000
1E0000
1E0000
3F0000
FFC000
ENDCHAR
STARTCHAR uni1E1F
ENCODING 7711
SWIDTH 333 0
DWIDTH 10 0
BBX 17 35 -2 -6
BITMAP
003000
007800
003000
000000
001F00
003380
006380
00E380
00C100
01C000
01C000
018000
038000
1FF800
038000
030000
070000
070000
070000
0E0000
0E0000
0E0000
0E0000
1C0000
1C0000
1C0000
1C0000
380000
380000
380000
700000
700000
F00000
E00000
800000
ENDCHAR
STARTCHAR uni1E20
ENCODING 7712
SWIDTH 778 0
DWIDTH 25 0
BBX 24 28 1 0
BITMAP
007FC0
007FC0
000000
003FC2
00F9E6
03C07E
07803E
0F001E
1F001C
1E000C
3C000C
3C0008
7C0008
780000
780000
F80000
F007FF
F007FF
F00078
F00078
F00070
F000F0
7000F0
7801E0
3801E0
3C03E0
1F9E60
07FC40
ENDCHAR
STARTCHAR uni1E21
ENCODING 7713
SWIDTH 537 0
DWIDTH 17 0
BBX 20 27 -3 -7
BITMAP
00FF80
00FF80
000000
0000F0
007FF0
01E730
038380
0701C0
0701C0
0701C0
070380
070380
030700
018F00
0FFC00
180000
180000
1FF000
1FFE00
1FFF00
780F00
600700
E00300
E00700
E00E00
7C3C00
1FF000
ENDCHAR
STARTCHAR uni1E22
ENCODING 7714
SWIDTH 833 0
DWIDTH 27 0
BBX 31 29 -1 0
BITMAP
0000C000
0001E000
0000C000
00000000
07FF0FFE
01FC03F8
00F001E0
00F001E0
00F001C0
01E003C0
01E003C0
01E003C0
01E003C0
03C00780
03C00780
03FFFF80
03FFFF80
07800F00
07800F00
07800F00
07800F00
0F001E00
0F001E00
0F001E00
0F001E00
1E003C00
1E003C00
3F007E00
FFC1FF80
ENDCHAR
STARTCHAR uni1E23
ENCODING 7715
SWIDTH 611 0
DWIDTH 19 0
BBX 18 29 0 0
BITMAP
018000
03C000
018000
000000
01C000
0FC000
03C000
038000
038000
038000
038000
070000
070000
071C00
0E7E00
0EC700
0F8700
1F0700
1E0700
1C0E00
3C0E00
380E00
381C00
381C00
701C40
7038C0
703980
E01F00
E01C00
ENDCHAR
STARTCHAR uni1E24
ENCODING 7716
SWIDTH 833 0
DWIDTH 27 0
BBX 31 29 -1 -4
BITMAP
07FF0FFE
01FC03F8
00F001E0
00F001E0
00F001C0
01E003C0
01E003C0
01E003C0
01E003C0
03C00780
03C00780
03FFFF80
03FFFF80
07800F00
07800F00
07800F00
07800F00
0F001E00
0F001E00
0F001E00
0F001E00
1E003C00
1E003C00
3F007E00
FFC1FF80
00000000
00060000
000F0000
00060000
ENDCHAR
STARTCHAR uni1E25
ENCODING 7717
SWIDTH 611 0
DWIDTH 19 0
BBX 18 29 0 -4
BITMAP
01C000
0FC000
03C000
038000
038000
038000
038000
070000
070000
071C00
0E7E00
0EC700
0F8700
1F0700
1E0700
1C0E00
3C0E00
380E00
381C00
381C00
701C40
7038C0
703980
E01F00
E01C00
000000
00C000
01E000
00C000
ENDCHAR
STARTCHAR uni1E26
ENCODING 7718
SWIDTH 833 0
DWIDTH 27 0
BBX 31 29 -1 0
BITMAP
00063000
000F7800
00063000
00000000
07FF0FFE
01FC03F8
00F001E0
00F001E0
00F001C0
01E003C0
01E003C0
01E003C0
01E003C0
03C00780
03C00780
03FFFF80
03FFFF80
07800F00
07800F00
07800F00
07800F00
0F001E00
0F001E00
0F001E00
0F001E00
1E003C00
1E003C00
3F007E00
FFC1FF80
ENDCHAR
STARTCHAR uni1E27
ENCODING 7719
SWIDTH 611 0
DWIDTH 19 0
BBX 18 29 0 0
BITMAP
063000
0F7800
063000
000000
01C000
0FC000
03C000
038000
038000
038000
038000
070000
070000
071C00
0E7E00
0EC700
0F8700
1F0700
1E0700
1C0E00
3C0E00
380E00
381C00
381C00
701C40
7038C0
703980
E01F00
E01C00
ENDCHAR
STARTCHAR uni1E28
ENCODING 7720
SWIDTH 833 0
DWIDTH 27 0
BBX 31 32 -1 -7
BITMAP
07FF0FFE
01FC03F8
00F001E0
00F001E0
00F001C0
01E003C0
01E003C0
01E003C0
01E003C0
03C00780
03C00780
03FFFF80
03FFFF80
07800F00
07800F00
07800F00
07800F00
0F001E00
0F001E00
0F001E00
0F001E00
1E003C00
1E003C00
3F007E00
FFC1FF80
00020000
00040000
000F0000
00018000
00018000
00138000
000F0000
ENDCHAR
STARTCHAR uni1E29
ENCODING 7721
SWIDTH 611 0
DWIDTH 19 0
BBX 18 32 0 -7
BITMAP
01C000
0FC000
03C000
038000
038000
038000
038000
070000
070000
071C00
0E7E00
0EC700
0F8700
1F0700
1E0700
1C0E00
3C0E00
380E00
381C00
381C00
701C40
7038C0
703980
E01F00
E01C00
004000
008000
01E000
003000
003000
027000
01E000
ENDCHAR
STARTCHAR uni1E2A
ENCODING 7722
SWIDTH 833 0
DWIDTH 27 0
BBX 31 30 -1 -5
BITMAP
07FF0FFE
01FC03F8
00F001E0
00F001E0
00F001C0
01E003C0
01E003C0
01E003C0
01E003C0
03C00780
03C00780
03FFFF80
03FFFF80
07800F00
07800F00
07800F00
07800F00
0F001E00
0F001E00
0F001E00
0F001E00
1E003C00
1E003C00
3F007E00
FFC1FF80
00000000
00606000
0060C000
003F8000
000E0000
ENDCHAR
STARTCHAR uni1E2B
ENCODING 7723
SWIDTH 611 0
DWIDTH 19 0
BBX 18 30 0 -5
BITMAP
01C000
0FC000
03C000
038000
038000
038000
038000
070000
070000
071C00
0E7E00
0EC700
0F8700
1F0700
1E0700
1C0E00
3C0E00
380E00
381C00
381C00
701C40
7038C0
703980
E01F00
E01C00
000000
0C0C00
0C1800
07F000
01C000
ENDCHAR
STARTCHAR uni1E2C
ENCODING 7724
SWIDTH 407 0
DWIDTH 13 0
BBX 15 29 -1 -4
BITMAP
07FE
01F8
00F0
00F0
00E0
01E0
01E0
01E0
01C0
03C0
03C0
03C0
0380
0780
0780
0780
0700
0F00
0F00
0F00
0E00
1E00
1E00
3F00
FFC0
0000
1C20
3FE0
21C0
ENDCHAR
STARTCHAR uni1E2D
ENCODING 7725
SWIDTH 333 0
DWIDTH 10 0
BBX 9 28 0 -4
BITMAP
0300
0780
0780
0300
0000
0000
0000
0000
0E00
3E00
0E00
1C00
1C00
1C00
3800
3800
3800
7800
7080
7180
7300
6600
7C00
3000
0000
7080
FF80
8700
ENDCHAR
STARTCHAR uni1E2E
ENCODING 7726
SWIDTH 407 0
DWIDTH 13 0
BBX 16 37 -1 0
BITMAP
000C
001C
003C
0070
00C0
0180
0000
0186
03CF
0186
0000
0000
07FE
01F8
00F0
00F0
00E0
01E0
01E0
01E0
01C0
03C0
03C0
03C0
0380
0780
0780
0780
0700
0F00
0F00
0F00
0E00
1E00
1E00
3F00
FFC0
ENDCHAR
STARTCHAR uni1E2F
ENCODING 7727
SWIDTH 333 0
DWIDTH 11 0
BBX 10 28 1 0
BITMAP
00C0
01C0
03C0
0700
0C00
1800
0000
3180
7BC0
3180
0000
0000
0E00
7E00
1C00
1C00
1C00
3800
3800
3800
7000
7000
7100
E300
E200
E600
FC00
7000
ENDCHAR
STARTCHAR uni1E30
ENCODING 7728
SWIDTH 741 0
DWIDTH 24 0
BBX 28 32 -1 0
BITMAP
00003000
00007000
0000F000
0001C000
00030000
00060000
00000000
07FF3FF0
00F80FC0
00F00700
00F00E00
00F01C00
00E03800
01E07000
01E0E000
01E18000
01C30000
03CE0000
03DF0000
03FF0000
03F78000
07E78000
07C3C000
0783C000
0701C000
0F01E000
0F01E000
0F00F000
1E00F000
1E007800
3F007C00
FFC3FF00
ENDCHAR
STARTCHAR uni1E31
ENCODING 7729
SWIDTH 556 0
DWIDTH 17 0
BBX 16 32 0 0
BITMAP
0030
0070
00F0
01C0
0300
0600
0000
01C0
0FC0
03C0
0380
0380
0380
0700
0700
0700
0F1E
0E7F
0EC7
1F87
1F07
1E0E
1C1C
3C70
3BC0
3860
7060
7061
7073
E076
E07C
E038
ENDCHAR
STARTCHAR uni1E32
ENCODING 7730
SWIDTH 741 0
DWIDTH 24 0
BBX 28 29 -1 -4
BITMAP
07FF3FF0
00F80FC0
00F00700
00F00E00
00F01C00
00E03800
01E07000
01E0E000
01E18000
01C30000
03CE0000
03DF0000
03FF0000
03F78000
07E78000
07C3C000
0783C000
0701C000
0F01E000
0F01E000
0F00F000
1E00F000
1E007800
3F007C00
FFC3FF00
00000000
000C0000
001E0000
000C0000
ENDCHAR
STARTCHAR uni1E33
ENCODING 7731
SWIDTH 556 0
DWIDTH 17 0
BBX 16 29 0 -4
BITMAP
01C0
0FC0
03C0
0380
0380
0380
0700
0700
0700
0F1E
0E7F
0EC7
1F87
1F07
1E0E
1C1C
3C70
3BC0
3860
7060
7061
7073
E076
E07C
E038
0000
0180
03C0
0180
ENDCHAR
STARTCHAR uni1E34
ENCODING 7732
SWIDTH 741 0
DWIDTH 24 0
BBX 28 28 -1 -3
BITMAP
07FF3FF0
00F80FC0
00F00700
00F00E00
00F01C00
00E03800
01E07000
01E0E000
01E18000
01C30000
03CE0000
03DF0000
03FF0000
03F78000
07E78000
07C3C000
0783C000
0701C000
0F01E000
0F01E000
0F00F000
1E00F000
1E007800
3F007C00
FFC3FF00
00000000
00FF8000
00FF8000
ENDCHAR
STARTCHAR uni1E35
ENCODING 7733
SWIDTH 556 0
DWIDTH 17 0
BBX 16 28 0 -3
BITMAP
01C0
0FC0
03C0
0380
0380
0380
0700
0700
0700
0F1E
0E7F
0EC7
1F87
1F07
1E0E
1C1C
3C70
3BC0
3860
7060
7061
7073
E076
E07C
E038
0000
1FF0
1FF0
ENDCHAR
STARTCHAR uni1E36
ENCODING 7734
SWIDTH 667 0
DWIDTH 21 0
BBX 22 29 -1 -4
BITMAP
07FF00
01FC00
00F000
00F000
00F000
00E000
01E000
01E000
01E000
01C000
03C000
03C000
03C000
038000
078000
078000
07800C
07000C
0F001C
0F0018
0F0038
0E0078
1F00F0
3F87F0
FFFFF0
000000
003000
007800
003000
ENDCHAR
STARTCHAR uni1E37
ENCODING 7735
SWIDTH 333 0
DWIDTH 9 0
BBX 9 29 0 -4
BITMAP
0380
1F80
0780
0700
0700
0700
0700
0E00
0E00
0E00
1C00
1C00
1C00
3800
3800
3800
3000
7000
7000
7000
E100
E300
E600
FC00
7000
0000
1800
3C00
1800
ENDCHAR
STARTCHAR uni1E38
ENCODING 7736
SWIDTH 667 0
DWIDTH 21 0
BBX 22 32 -1 -4
BITMAP
03FE00
03FE00
000000
07FF00
01FC00
00F000
00F000
00F000
00E000
01E000
01E000
01E000
01C000
03C000
03C000
03C000
038000
078000
078000
07800C
07000C
0F001C
0F0018
0F0038
0E0078
1F00F0
3F87F0
FFFFF0
000000
003000
007800
003000
ENDCHAR
STARTCHAR uni1E39
ENCODING 7737
SWIDTH 333 0
DWIDTH 9 0
BBX 10 32 0 -4
BITMAP
7FC0
7FC0
0000
0380
1F80
0780
0700
0700
0700
0700
0E00
0E00
0E00
1C00
1C00
1C00
3800
3800
3800
3000
7000
7000
7000
E100
E300
E600
FC00
7000
0000
1800
3C00
1800
ENDCHAR
STARTCHAR uni1E3A
ENCODING 7738
SWIDTH 667 0
DWIDTH 21 0
BBX 22 28 -1 -3
BITMAP
07FF00
01FC00
00F000
00F000
00F000
00E000
01E000
01E000
01E000
01C000
03C000
03C000
03C000
038000
078000
078000
07800C
07000C
0F001C
0F0018
0F0038
0E0078
1F00F0
3F87F0
FFFFF0
000000
01FF00
01FF00
ENDCHAR
STARTCHAR uni1E3B
ENCODING 7739
SWIDTH 333 0
DWIDTH 9 0
BBX 10 28 -1 -3
BITMAP
01C0
0FC0
03C0
0380
0380
0380
0380
0700
0700
0700
0E00
0E00
0E00
1C00
1C00
1C00
1800
3800
3800
3800
7080
7180
7300
7E00
3800
0000
FF80
FF80
ENDCHAR
STARTCHAR uni1E3C
ENCODING 7740
SWIDTH 667 0
DWIDTH 21 0
BBX 22 32 -1 -7
BITMAP
07FF00
01FC00
00F000
00F000
00F000
00E000
01E000
01E000
01E000
01C000
03C000
03C000
03C000
038000
078000
078000
07800C
07000C
0F001C
0F0018
0F0038
0E0078
1F00F0
3F87F0
FFFFF0
000000
001800
003800
007C00
00C400
018600
030200
ENDCHAR
STARTCHAR uni1E3D
ENCODING 7741
SWIDTH 333 0
DWIDTH 9 0
BBX 11 32 -2 -7
BITMAP
00E0
07E0
01E0
01C0
01C0
01C0
01C0
0380
0380
0380
0700
0700
0700
0E00
0E00
0E00
0C00
1C00
1C00
1C00
3840
38C0
3980
3F00
1C00
0000
0600
0E00
1F00
3100
6180
C080
ENDCHAR
STARTCHAR uni1E3E
ENCODING 7742
SWIDTH 944 0
DWIDTH 31 0
BBX 34 32 -1 0
BITMAP
0000060000
00000E0000
00001E0000
0000380000
0000600000
0000C00000
0000000000
07F8003FC0
00F8007E00
00F8007C00
00F800FC00
00FC00FC00
01BC01BC00
01BC03B800
01BC037800
01BC067800
033C067800
033C0C7000
031C18F000
031C18F000
061C30F000
061C30E000
061E61E000
041EC1E000
0C1EC1E000
0C1F81C000
0C1F83C000
1C1F03C000
180E038000
380E078000
7C0C0FC000
FF0C3FF800
ENDCHAR
STARTCHAR uni1E3F
ENCODING 7743
SWIDTH 889 0
DWIDTH 29 0
BBX 26 23 1 0
BITMAP
0000C000
0001C000
0003C000
00070000
000C0000
00180000
00000000
0E3C1E00
7E7E7F00
1CCEE700
1D8EC700
1F0F8700
1E0F0E00
1C0E0E00
3C1E0E00
381C1C00
38381C00
70381C00
70383840
707038C0
E0703980
E0703F00
E0E01C00
ENDCHAR
STARTCHAR uni1E40
ENCODING 7744
SWIDTH 944 0
DWIDTH 31 0
BBX 34 29 -1 0
BITMAP
0000600000
0000F00000
0000600000
0000000000
07F8003FC0
00F8007E00
00F8007C00
00F800FC00
00FC00FC00
01BC01BC00
01BC03B800
01BC037800
01BC067800
033C067800
033C0C7000
031C18F000
031C18F000
061C30F000
061C30E000
061E61E000
041EC1E000
0C1EC1E000
0C1F81C000
0C1F83C000
1C1F03C000
180E038000
380E078000
7C0C0FC000
FF0C3FF800
ENDCHAR
STARTCHAR uni1E41
ENCODING 7745
SWIDTH 889 0
DWIDTH 29 0
BBX 26 20 1 0
BITMAP
000C0000
001E0000
000C0000
00000000
0E3C1E00
7E7E7F00
1CCEE700
1D8EC700
1F0F8700
1E0F0E00
1C0E0E00
3C1E0E00
381C1C00
38381C00
70381C00
70383840
707038C0
E0703980
E0703F00
E0E01C00
ENDCHAR
STARTCHAR uni1E42
ENCODING 7746
SWIDTH 944 0
DWIDTH 31 0
BBX 34 29 -1 -4
BITMAP
07F8003FC0
00F8007E00
00F8007C00
00F800FC00
00FC00FC00
01BC01BC00
01BC03B800
01BC037800
01BC067800
033C067800
033C0C7000
031C18F000
031C18F000
061C30F000
061C30E000
061E61E000
041EC1E000
0C1EC1E000
0C1F81C000
0C1F83C000
1C1F03C000
180E038000
380E078000
7C0C0FC000
FF0C3FF800
0000000000
0001800000
0003C00000
0001800000
ENDCHAR
STARTCHAR uni1E43
ENCODING 7747
SWIDTH 889 0
DWIDTH 29 0
BBX 26 20 1 -4
BITMAP
0E3C1E00
7E7E7F00
1CCEE700
1D8EC700
1F0F8700
1E0F0E00
1C0E0E00
3C1E0E00
381C1C00
38381C00
70381C00
70383840
707038C0
E0703980
E0703F00
E0E01C00
00000000
000C0000
001E0000
000C0000
ENDCHAR
STARTCHAR uni1E44
ENCODING 7748
SWIDTH 815 0
DWIDTH 27 0
BBX 30 30 -2 -1
BITMAP
00018000
0003C000
00018000
00000000
07F807FC
00F801F0
007800E0
007C00E0
00FC00C0
00DE00C0
00DE00C0
009F0080
018F0180
018F0180
01878180
03078100
0303C300
0303C300
0301E300
0601E200
0601E600
0600F600
0600F600
0C007C00
0C007C00
0C003C00
1C003C00
3E003800
FF801800
00001800
ENDCHAR
STARTCHAR uni1E45
ENCODING 7749
SWIDTH 611 0
DWIDTH 20 0
BBX 17 20 1 0
BITMAP
018000
03C000
018000
000000
1C3800
7CFC00
1D8E00
1F0E00
1E0E00
3C1C00
381C00
381C00
783800
703800
703800
703080
E07180
E07300
E07E00
E03800
ENDCHAR
STARTCHAR uni1E46
ENCODING 7750
SWIDTH 815 0
DWIDTH 27 0
BBX 30 30 -2 -5
BITMAP
07F807FC
00F801F0
007800E0
007C00E0
00FC00C0
00DE00C0
00DE00C0
009F0080
018F0180
018F0180
01878180
03078100
0303C300
0303C300
0301E300
0601E200
0601E600
0600F600
0600F600
0C007C00
0C007C00
0C003C00
1C003C00
3E003800
FF801800
00001800
00000000
000C0000
001E0000
000C0000
ENDCHAR
STARTCHAR uni1E47
ENCODING 7751
SWIDTH 611 0
DWIDTH 20 0
BBX 17 20 1 -4
BITMAP
1C3800
7CFC00
1D8E00
1F0E00
1E0E00
3C1C00
381C00
381C00
783800
703800
703800
703080
E07180
E07300
E07E00
E03800
000000
018000
03C000
018000
ENDCHAR
STARTCHAR uni1E48
ENCODING 7752
SWIDTH 815 0
DWIDTH 27 0
BBX 30 29 -2 -4
BITMAP
07F807FC
00F801F0
007800E0
007C00E0
00FC00C0
00DE00C0
00DE00C0
009F0080
018F0180
018F0180
01878180
03078100
0303C300
0303C300
0301E300
0601E200
0601E600
0600F600
0600F600
0C007C00
0C007C00
0C003C00
1C003C00
3E003800
FF801800
00001800
00000000
007FC000
007FC000
ENDCHAR
STARTCHAR uni1E49
ENCODING 7753
SWIDTH 611 0
DWIDTH 20 0
BBX 17 19 1 -3
BITMAP
1C3800
7CFC00
1D8E00
1F0E00
1E0E00
3C1C00
381C00
381C00
783800
703800
703800
703080
E07180
E07300
E07E00
E03800
000000
0FF800
0FF800
ENDCHAR
STARTCHAR uni1E4A
ENCODING 7754
SWIDTH 815 0
DWIDTH 27 0
BBX 30 33 -2 -8
BITMAP
07F807FC
00F801F0
007800E0
007C00E0
00FC00C0
00DE00C0
00DE00C0
009F0080
018F0180
018F0180
01878180
03078100
0303C300
0303C300
0301E300
0601E200
0601E600
0600F600
0600F600
0C007C00
0C007C00
0C003C00
1C003C00
3E003800
FF801800
00001800
00000000
00060000
000E0000
001F0000
00310000
00618000
00C08000
ENDCHAR
STARTCHAR uni1E4B
ENCODING 7755
SWIDTH 611 0
DWIDTH 20 0
BBX 17 23 1 -7
BITMAP
1C3800
7CFC00
1D8E00
1F0E00
1E0E00
3C1C00
381C00
381C00
783800
703800
703800
703080
E07180
E07300
E07E00
E03800
000000
00C000
01C000
03E000
062000
0C3000
181000
ENDCHAR
STARTCHAR uni1E4C
ENCODING 7756
SWIDTH 778 0
DWIDTH 26 0
BBX 24 37 1 0
BITMAP
0000C0
0001C0
0003C0
000700
000C00
001800
000000
000E10
001FF0
0010E0
000000
000000
003FC0
00F8F0
03E038
07C01C
0F801E
1F000E
1E000F
3E000F
3C000F
7C000F
78000F
78001F
F8001F
F8001E
F0001E
F0003E
F0003C
F0007C
F00078
7000F8
7801F0
3803E0
3C0780
0F1F00
07FC00
ENDCHAR
STARTCHAR uni1E4D
ENCODING 7757
SWIDTH 500 0
DWIDTH 16 0
BBX 15 28 0 0
BITMAP
000C
001C
003C
0070
00C0
0180
0000
0384
07FC
0438
0000
0000
03F0
0E38
1C1C
380C
780E
700E
700E
F00E
E01E
E01C
E01C
E038
E038
7070
38E0
1F80
ENDCHAR
STARTCHAR uni1E4E
ENCODING 7758
SWIDTH 778 0
DWIDTH 26 0
BBX 24 34 1 0
BITMAP
003180
007BC0
003180
000000
000E10
001FF0
0010E0
000000
000000
003FC0
00F8F0
03E038
07C01C
0F801E
1F000E
1E000F
3E000F
3C000F
7C000F
78000F
78001F
F8001F
F8001E
F0001E
F0003E
F0003C
F0007C
F00078
7000F8
7801F0
3803E0
3C0780
0F1F00
07FC00
ENDCHAR
STARTCHAR uni1E4F
ENCODING 7759
SWIDTH 500 0
DWIDTH 16 0
BBX 15 25 0 0
BITMAP
0630
0F78
0630
0000
0384
07FC
0438
0000
0000
03F0
0E38
1C1C
380C
780E
700E
700E
F00E
E01E
E01C
E01C
E038
E038
7070
38E0
1F80
ENDCHAR
STARTCHAR uni1E50
ENCODING 7760
SWIDTH 778 0
DWIDTH 26 0
BBX 24 35 1 0
BITMAP
00C000
00E000
00F000
003800
000C00
000600
000000
00FF80
00FF80
000000
001FC0
00FCF0
03E038
07C01C
0F801E
1F000E
1E000F
3E000F
3C000F
7C000F
78000F
78001F
F8001F
F8001E
F0001E
F0003E
F0003C
F0007C
F00078
7000F8
7801F0
3803E0
3C0780
0F3F00
03F800
ENDCHAR
STARTCHAR uni1E51
ENCODING 7761
SWIDTH 500 0
DWIDTH 16 0
BBX 15 26 0 0
BITMAP
1800
1C00
1E00
0700
0180
00C0
0000
1FF0
1FF0
0000
03F0
0E38
1C1C
380C
780E
700E
700E
F00E
E01E
E01C
E01C
E038
E038
7070
38E0
1F80
ENDCHAR
STARTCHAR uni1E52
ENCODING 7762
SWIDTH 778 0
DWIDTH 26 0
BBX 24 35 1 0
BITMAP
0000C0
0001C0
0003C0
000700
000C00
001800
000000
00FF80
00FF80
000000
001FC0
00FCF0
03E038
07C01C
0F801E
1F000E
1E000F
3E000F
3C000F
7C000F
78000F
78001F
F8001F
F8001E
F0001E
F0003E
F0003C
F0007C
F00078
7000F8
7801F0
3803E0
3C0780
0F3F00
03F800
ENDCHAR
STARTCHAR uni1E53
ENCODING 7763
SWIDTH 500 0
DWIDTH 16 0
BBX 15 26 0 0
BITMAP
0018
0038
0078
00E0
0180
0300
0000
1FF0
1FF0
0000
03F0
0E38
1C1C
380C
780E
700E
700E
F00E
E01E
E01C
E01C
E038
E038
7070
38E0
1F80
ENDCHAR
STARTCHAR uni1E54
ENCODING 7764
SWIDTH 667 0
DWIDTH 22 0
BBX 23 32 0 0
BITMAP
0000C0
0001C0
0003C0
000700
000C00
001800
000000
07FFE0
01F1F8
00F03C
00E01C
01E01E
01E01E
01E01E
01C01E
03C03C
03C03C
03C078
0381F0
078FC0
07FF00
078000
070000
0F0000
0F0000
0F0000
0E0000
1E0000
1E0000
1E0000
3E0000
FFC000
ENDCHAR
STARTCHAR uni1E55
ENCODING 7765
SWIDTH 574 0
DWIDTH 19 0
BBX 20 29 -3 -6
BITMAP
000180
000380
000780
000E00
001800
003000
000000
01C780
0FDFE0
01D8E0
01B070
01E070
01C070
038070
0380F0
0380F0
0700E0
0700E0
0701C0
0703C0
0F8780
0EDF00
0E7C00
0C0000
1C0000
1C0000
1C0000
380000
FF0000
ENDCHAR
STARTCHAR uni1E56
ENCODING 7766
SWIDTH 667 0
DWIDTH 22 0
BBX 23 29 0 0
BITMAP
000C00
001E00
000C00
000000
07FFE0
01F1F8
00F03C
00E01C
01E01E
01E01E
01E01E
01C01E
03C03C
03C03C
03C078
0381F0
078FC0
07FF00
078000
070000
0F0000
0F0000
0F0000
0E0000
1E0000
1E0000
1E0000
3E0000
FFC000
ENDCHAR
STARTCHAR uni1E57
ENCODING 7767
SWIDTH 574 0
DWIDTH 19 0
BBX 20 26 -3 -6
BITMAP
001800
003C00
001800
000000
01C780
0FDFE0
01D8E0
01B070
01E070
01C070
038070
0380F0
0380F0
0700E0
0700E0
0701C0
0703C0
0F8780
0EDF00
0E7C00
0C0000
1C0000
1C0000
1C0000
380000
FF0000
ENDCHAR
STARTCHAR uni1E58
ENCODING 7768
SWIDTH 741 0
DWIDTH 24 0
BBX 24 30 -1 -1
BITMAP
000600
000F00
000600
000000
07FFF0
01F8FC
00F81E
00F00E
00F00F
00E00F
01E00F
01E00F
01E01E
01C01E
03C07C
03C7F8
03FFC0
038380
0781C0
0781C0
0781E0
0701E0
0F01E0
0F01E0
0F01E0
0E01E2
1E01E6
3F01FC
FFC0FC
000078
ENDCHAR
STARTCHAR uni1E59
ENCODING 7769
SWIDTH 444 0
DWIDTH 14 0
BBX 14 20 0 0
BITMAP
0180
03C0
0180
0000
0E78
7EFC
0D9C
0D1C
1F08
1E00
1C00
1C00
3800
3800
3800
7000
7000
7000
F000
E000
ENDCHAR
STARTCHAR uni1E5A
ENCODING 7770
SWIDTH 741 0
DWIDTH 24 0
BBX 24 30 -1 -5
BITMAP
07FFF0
01F8FC
00F81E
00F00E
00F00F
00E00F
01E00F
01E00F
01E01E
01C01E
03C07C
03C7F8
03FFC0
038380
0781C0
0781C0
0781E0
0701E0
0F01E0
0F01E0
0F01E0
0E01E2
1E01E6
3F01FC
FFC0FC
000078
000000
001800
003C00
001800
ENDCHAR
STARTCHAR uni1E5B
ENCODING 7771
SWIDTH 444 0
DWIDTH 14 0
BBX 14 20 0 -4
BITMAP
0E78
7EFC
0D9C
0D1C
1F08
1E00
1C00
1C00
3800
3800
3800
7000
7000
7000
F000
E000
0000
1800
3C00
1800
ENDCHAR
STARTCHAR uni1E5C
ENCODING 7772
SWIDTH 741 0
DWIDTH 24 0
BBX 24 33 -1 -5
BITMAP
007FC0
007FC0
000000
07FFF0
01F8FC
00F81E
00F00E
00F00F
00E00F
01E00F
01E00F
01E01E
01C01E
03C07C
03C7F8
03FFC0
038380
0781C0
0781C0
0781E0
0701E0
0F01E0
0F01E0
0F01E0
0E01E2
1E01E6
3F01FC
FFC0FC
000078
000000
001800
003C00
001800
ENDCHAR
STARTCHAR uni1E5D
ENCODING 7773
SWIDTH 444 0
DWIDTH 14 0
BBX 14 23 0 -4
BITMAP
1FF0
1FF0
0000
0E78
7EFC
0D9C
0D1C
1F08
1E00
1C00
1C00
3800
3800
3800
7000
7000
7000
F000
E000
0000
1800
3C00
1800
ENDCHAR
STARTCHAR uni1E5E
ENCODING 7774
SWIDTH 741 0
DWIDTH 24 0
BBX 24 29 -1 -4
BITMAP
07FFF0
01F8FC
00F81E
00F00E
00F00F
00E00F
01E00F
01E00F
01E01E
01C01E
03C07C
03C7F8
03FFC0
038380
0781C0
0781C0
0781E0
0701E0
0F01E0
0F01E0
0F01E0
0E01E2
1E01E6
3F01FC
FFC0FC
000078
000000
00FF80
00FF80
ENDCHAR
STARTCHAR uni1E5F
ENCODING 7775
SWIDTH 444 0
DWIDTH 14 0
BBX 15 19 -1 -3
BITMAP
073C
3F7E
06CE
068E
0F84
0F00
0E00
0E00
1C00
1C00
1C00
3800
3800
3800
7800
7000
0000
FF80
FF80
ENDCHAR
STARTCHAR uni1E60
ENCODING 7776
SWIDTH 667 0
DWIDTH 22 0
BBX 21 29 0 0
BITMAP
001800
003C00
001800
000000
007F18
01E398
0380F8
070078
060070
0E0030
0E0030
0F0020
0F8020
0FE000
07F800
07FE00
01FF80
007FC0
001FC0
2007E0
2001E0
6000E0
6000E0
7000E0
7000C0
7801C0
FE0380
CF8F00
C1FC00
ENDCHAR
STARTCHAR uni1E61
ENCODING 7777
SWIDTH 444 0
DWIDTH 14 0
BBX 13 20 0 0
BITMAP
0300
0780
0300
0000
07E0
1C78
3838
3038
3818
3C00
1F00
1FC0
07E0
01F0
6070
E070
E070
E060
71C0
3F80
ENDCHAR
STARTCHAR uni1E62
ENCODING 7778
SWIDTH 667 0
DWIDTH 22 0
BBX 21 29 0 -4
BITMAP
007F18
01E398
0380F8
070078
060070
0E0030
0E0030
0F0020
0F8020
0FE000
07F800
07FE00
01FF80
007FC0
001FC0
2007E0
2001E0
6000E0
6000E0
7000E0
7000C0
7801C0
FE0380
CF8F00
C1FC00
000000
00C000
01E000
00C000
ENDCHAR
STARTCHAR uni1E63
ENCODING 7779
SWIDTH 444 0
DWIDTH 14 0
BBX 13 20 0 -4
BITMAP
07E0
1C78
3838
3038
3818
3C00
1F00
1FC0
07E0
01F0
6070
E070
E070
E060
71C0
3F80
0000
0600
0F00
0600
ENDCHAR
STARTCHAR uni1E64
ENCODING 7780
SWIDTH 667 0
DWIDTH 22 0
BBX 21 36 0 0
BITMAP
000C00
001E00
000C00
000000
000180
000380
000780
000E00
001800
003000
000000
007F18
01E398
0380F8
070078
060070
0E0030
0E0030
0F0020
0F8020
0FE000
07F800
07FE00
01FF80
007FC0
001FC0
2007E0
2001E0
6000E0
6000E0
7000E0
7000C0
7801C0
FE0380
CF8F00
C1FC00
ENDCHAR
STARTCHAR uni1E65
ENCODING 7781
SWIDTH 444 0
DWIDTH 14 0
BBX 13 27 0 0
BITMAP
0180
03C0
0180
0000
0030
0070
00F0
01C0
0300
0600
0000
07E0
1C78
3838
3038
3818
3C00
1F00
1FC0
07E0
01F0
6070
E070
E070
E060
71C0
3F80
ENDCHAR
STARTCHAR uni1E66
ENCODING 7782
SWIDTH 667 0
DWIDTH 22 0
BBX 21 31 0 0
BITMAP
001800
003C00
001800
000000
0040C0
006180
002300
003E00
001C00
001800
000000
00FE18
03C398
0700F8
0E0078
0E0070
0F0030
0FC030
0FF030
07FE00
03FF80
00FFC0
001FE0
6007E0
6001E0
6000E0
7000C0
F001C0
F80380
DE0F00
C7FC00
ENDCHAR
STARTCHAR uni1E67
ENCODING 7783
SWIDTH 444 0
DWIDTH 14 0
BBX 13 27 0 0
BITMAP
0180
03C0
0180
0000
0818
0C30
0460
07C0
0380
0300
0000
07E0
1C38
3838
3038
3838
3800
3F00
1FC0
07E0
01F0
E070
E070
E070
E060
60C0
3F80
ENDCHAR
STARTCHAR uni1E68
ENCODING 7784
SWIDTH 667 0
DWIDTH 22 0
BBX 21 33 0 -4
BITMAP
001800
003C00
001800
000000
007F18
01E398
0380F8
070078
060070
0E0030
0E0030
0F0020
0F8020
0FE000
07F800
07FE00
01FF80
007FC0
001FC0
2007E0
2001E0
6000E0
6000E0
7000E0
7000C0
7801C0
FE0380
CF8F00
C1FC00
000000
00C000
01E000
00C000
ENDCHAR
STARTCHAR uni1E69
ENCODING 7785
SWIDTH 444 0
DWIDTH 14 0
BBX 13 24 0 -4
BITMAP
0300
0780
0300
0000
07E0
1C78
3838
3038
3818
3C00
1F00
1FC0
07E0
01F0
6070
E070
E070
E060
71C0
3F80
0000
0600
0F00
0600
ENDCHAR
STARTCHAR uni1E6A
ENCODING 7786
SWIDTH 685 0
DWIDTH 22 0
BBX 23 29 1 0
BITMAP
001800
003C00
001800
000000
3FFFFE
3F3E7E
3C3C1C
783C1C
703C1C
603818
607818
807810
807810
007000
00F000
00F000
00F000
01E000
01E000
01E000
01E000
03C000
03C000
03C000
038000
078000
078000
0FC000
7FF800
ENDCHAR
STARTCHAR uni1E6B
ENCODING 7787
SWIDTH 352 0
DWIDTH 11 0
BBX 10 26 1 0
BITMAP
0600
0F00
0600
0000
0380
0300
0700
0700
0E00
0E00
7FC0
1C00
1C00
1C00
3800
3800
3800
7000
7000
7000
7080
E180
E300
F600
FC00
7000
ENDCHAR
STARTCHAR uni1E6C
ENCODING 7788
SWIDTH 685 0
DWIDTH 22 0
BBX 23 29 1 -4
BITMAP
3FFFFE
3F3E7E
3C3C1C
783C1C
703C1C
603818
607818
807810
807810
007000
00F000
00F000
00F000
01E000
01E000
01E000
01E000
03C000
03C000
03C000
038000
078000
078000
0FC000
7FF800
000000
00C000
01E000
00C000
ENDCHAR
STARTCHAR uni1E6D
ENCODING 7789
SWIDTH 352 0
DWIDTH 11 0
BBX 10 26 1 -4
BITMAP
0380
0300
0700
0700
0E00
0E00
7FC0
1C00
1C00
1C00
3800
3800
3800
7000
7000
7000
7080
E180
E300
F600
FC00
7000
0000
1800
3C00
1800
ENDCHAR
STARTCHAR uni1E6E
ENCODING 7790
SWIDTH 685 0
DWIDTH 22 0
BBX 23 28 1 -3
BITMAP
3FFFFE
3F3E7E
3C3C1C
783C1C
703C1C
603818
607818
807810
807810
007000
00F000
00F000
00F000
01E000
01E000
01E000
01E000
03C000
03C000
03C000
038000
078000
078000
0FC000
7FF800
000000
0FF800
0FF800
ENDCHAR
STARTCHAR uni1E6F
ENCODING 7791
SWIDTH 352 0
DWIDTH 11 0
BBX 11 25 0 -3
BITMAP
01C0
0180
0380
0380
0700
0700
3FE0
0E00
0E00
0E00
1C00
1C00
1C00
3800
3800
3800
3840
70C0
7180
7B00
7E00
3800
0000
FF80
FF80
ENDCHAR
STARTCHAR uni1E70
ENCODING 7792
SWIDTH 685 0
DWIDTH 22 0
BBX 23 32 1 -7
BITMAP
3FFFFE
3F3E7E
3C3C1C
783C1C
703C1C
603818
607818
807810
807810
007000
00F000
00F000
00F000
01E000
01E000
01E000
01E000
03C000
03C000
03C000
038000
078000
078000
0FC000
7FF800
000000
00C000
01C000
03E000
062000
0C3000
181000
ENDCHAR
STARTCHAR uni1E71
ENCODING 7793
SWIDTH 352 0
DWIDTH 11 0
BBX 11 29 0 -7
BITMAP
01C0
0180
0380
0380
0700
0700
3FE0
0E00
0E00
0E00
1C00
1C00
1C00
3800
3800
3800
3840
70C0
7180
7B00
7E00
3800
0000
0600
0E00
1F00
3100
6180
C080
ENDCHAR
STARTCHAR uni1E72
ENCODING 7794
SWIDTH 815 0
DWIDTH 27 0
BBX 26 29 3 -4
BITMAP
7FE07FC0
1F801F00
0F000E00
0F000C00
1E000C00
1E000C00
1E001800
1E001800
3C001800
3C001800
3C003000
3C003000
78003000
78002000
78006000
78006000
F0006000
F0004000
F000C000
F000C000
F0018000
78038000
78070000
3E3E0000
07F80000
00000000
03180000
07BC0000
03180000
ENDCHAR
STARTCHAR uni1E73
ENCODING 7795
SWIDTH 611 0
DWIDTH 20 0
BBX 17 20 1 -4
BITMAP
1E0700
7C0F00
1C0E00
1C0E00
381E00
381C00
381C00
703C00
703800
707800
E07800
E0F180
E1F300
E77700
FE7C00
783800
000000
0C6000
1EF000
0C6000
ENDCHAR
STARTCHAR uni1E74
ENCODING 7796
SWIDTH 815 0
DWIDTH 27 0
BBX 26 29 3 -4
BITMAP
7FE07FC0
1F801F00
0F000E00
0F000C00
1E000C00
1E000C00
1E001800
1E001800
3C001800
3C001800
3C003000
3C003000
78003000
78002000
78006000
78006000
F0006000
F0004000
F000C000
F000C000
F0018000
78038000
78070000
3E3E0000
07F80000
00000000
03840000
07FC0000
04380000
ENDCHAR
STARTCHAR uni1E75
ENCODING 7797
SWIDTH 611 0
DWIDTH 20 0
BBX 17 20 1 -4
BITMAP
1E0700
7C0F00
1C0E00
1C0E00
381E00
381C00
381C00
703C00
703800
707800
E07800
E0F180
E1F300
E77700
FE7C00
783800
000000
070800
0FF800
087000
ENDCHAR
STARTCHAR uni1E76
ENCODING 7798
SWIDTH 815 0
DWIDTH 27 0
BBX 26 32 3 -7
BITMAP
7FE07FC0
1F801F00
0F000E00
0F000C00
1E000C00
1E000C00
1E001800
1E001800
3C001800
3C001800
3C003000
3C003000
78003000
78002000
78006000
78006000
F0006000
F0004000
F000C000
F000C000
F0018000
78038000
78070000
3E3E0000
07F80000
00000000
00600000
00E00000
01F00000
03100000
06180000
0C080000
ENDCHAR
STARTCHAR uni1E77
ENCODING 7799
SWIDTH 611 0
DWIDTH 20 0
BBX 17 23 1 -7
BITMAP
1E0700
7C0F00
1C0E00
1C0E00
381E00
381C00
381C00
703C00
703800
707800
E07800
E0F180
E1F300
E77700
FE7C00
783800
000000
00C000
01C000
03E000
062000
0C3000
181000
ENDCHAR
STARTCHAR uni1E78
ENCODING 7800
SWIDTH 815 0
DWIDTH 27 0
BBX 26 36 3 0
BITMAP
0000C000
0001C000
0003C000
00070000
000C0000
00180000
00000000
00708000
00FF8000
00870000
00000000
7FE07FC0
1F801F00
0F000E00
0F000C00
1E000C00
1E000C00
1E001800
1E001800
3C001800
3C001800
3C003000
3C003000
78003000
78002000
78006000
78006000
F0006000
F0004000
F000C000
F000C000
F0018000
78038000
78070000
3E3E0000
07F80000
ENDCHAR
STARTCHAR uni1E79
ENCODING 7801
SWIDTH 611 0
DWIDTH 20 0
BBX 17 27 1 0
BITMAP
001800
003800
007800
00E000
018000
030000
000000
070800
0FF800
087000
000000
1E0700
7C0F00
1C0E00
1C0E00
381E00
381C00
381C00
703C00
703800
707800
E07800
E0F180
E1F300
E77700
FE7C00
783800
ENDCHAR
STARTCHAR uni1E7A
ENCODING 7802
SWIDTH 815 0
DWIDTH 27 0
BBX 26 32 3 0
BITMAP
00630000
00F78000
00630000
00000000
00FF8000
00FF8000
00000000
7FE07FC0
1F801F00
0F000E00
0F000C00
1E000C00
1E000C00
1E001800
1E001800
3C001800
3C001800
3C003000
3C003000
78003000
78002000
78006000
78006000
F0006000
F0004000
F000C000
F000C000
F0018000
78038000
78070000
3E3E0000
07F80000
ENDCHAR
STARTCHAR uni1E7B
ENCODING 7803
SWIDTH 611 0
DWIDTH 20 0
BBX 17 23 1 0
BITMAP
063000
0F7800
063000
000000
0FF800
0FF800
000000
1E0700
7C0F00
1C0E00
1C0E00
381E00
381C00
381C00
703C00
703800
707800
E07800
E0F180
E1F300
E77700
FE7C00
783800
ENDCHAR
STARTCHAR uni1E7C
ENCODING 7804
SWIDTH 704 0
DWIDTH 23 0
BBX 25 29 1 0
BITMAP
00E10000
01FF0000
010E0000
00000000
FFC0FF80
3F003E00
1E001C00
1E003800
1E003000
0F003000
0F006000
0F00E000
0F00C000
07018000
07018000
07830000
07830000
07860000
03860000
038C0000
03CC0000
03D80000
03D80000
01F00000
01E00000
01E00000
01C00000
01C00000
01800000
ENDCHAR
STARTCHAR uni1E7D
ENCODING 7805
SWIDTH 519 0
DWIDTH 17 0
BBX 14 20 1 0
BITMAP
0E10
1FF0
10E0
0000
1C38
FC7C
383C
381C
380C
700C
7008
7018
E018
E010
E030
E060
E060
71C0
7F80
1E00
ENDCHAR
STARTCHAR uni1E7E
ENCODING 7806
SWIDTH 704 0
DWIDTH 23 0
BBX 25 29 1 -4
BITMAP
FFC0FF80
3F003E00
1E001C00
1E003800
1E003000
0F003000
0F006000
0F00E000
0F00C000
07018000
07018000
07830000
07830000
07860000
03860000
038C0000
03CC0000
03D80000
03D80000
01F00000
01E00000
01E00000
01C00000
01C00000
01800000
00000000
00600000
00F00000
00600000
ENDCHAR
STARTCHAR uni1E7F
ENCODING 7807
SWIDTH 519 0
DWIDTH 17 0
BBX 14 20 1 -4
BITMAP
1C38
FC7C
383C
381C
380C
700C
7008
7018
E018
E010
E030
E060
E060
71C0
7F80
1E00
0000
0600
0F00
0600
ENDCHAR
STARTCHAR Wgrave
ENCODING 7808
SWIDTH 926 0
DWIDTH 29 0
BBX 31 32 1 0
BITMAP
00300000
00380000
003C0000
000E0000
00030000
00018000
00000000
FF9FF3FE
3E07C0F8
1C078070
1C0380E0
1C0380C0
1E07C0C0
1E07C180
1E07C180
0E0FC100
0E0BC300
0E1BC300
0E19C600
0E31C600
0F31E400
0F21E400
0F61EC00
07E1F800
07C1F800
07C0F000
0780F000
0780F000
0700E000
0700E000
0600C000
0600C000
ENDCHAR
STARTCHAR wgrave
ENCODING 7809
SWIDTH 778 0
DWIDTH 26 0
BBX 23 23 1 0
BITMAP
018000
01C000
01E000
007000
001800
000C00
000000
1C0E1C
7C0E1E
1C1E1E
181C0E
381C06
381C06
383C06
703804
70780C
707818
E0F818
E0B830
E1B860
E338C0
7E3F80
380F00
ENDCHAR
STARTCHAR Wacute
ENCODING 7810
SWIDTH 926 0
DWIDTH 29 0
BBX 31 32 1 0
BITMAP
00003000
00007000
0000F000
0001C000
00030000
00060000
00000000
FF9FF3FE
3E07C0F8
1C078070
1C0380E0
1C0380C0
1E07C0C0
1E07C180
1E07C180
0E0FC100
0E0BC300
0E1BC300
0E19C600
0E31C600
0F31E400
0F21E400
0F61EC00
07E1F800
07C1F800
07C0F000
0780F000
0780F000
0700E000
0700E000
0600C000
0600C000
ENDCHAR
STARTCHAR wacute
ENCODING 7811
SWIDTH 778 0
DWIDTH 26 0
BBX 23 23 1 0
BITMAP
000180
000380
000780
000E00
001800
003000
000000
1C0E1C
7C0E1E
1C1E1E
181C0E
381C06
381C06
383C06
703804
70780C
707818
E0F818
E0B830
E1B860
E338C0
7E3F80
380F00
ENDCHAR
STARTCHAR Wdieresis
ENCODING 7812
SWIDTH 926 0
DWIDTH 29 0
BBX 31 29 1 0
BITMAP
000C6000
001EF000
000C6000
00000000
FF9FF3FE
3E07C0F8
1C078070
1C0380E0
1C0380C0
1E07C0C0
1E07C180
1E07C180
0E0FC100
0E0BC300
0E1BC300
0E19C600
0E31C600
0F31E400
0F21E400
0F61EC00
07E1F800
07C1F800
07C0F000
0780F000
0780F000
0700E000
0700E000
0600C000
0600C000
ENDCHAR
STARTCHAR wdieresis
ENCODING 7813
SWIDTH 778 0
DWIDTH 26 0
BBX 23 20 1 0
BITMAP
006300
00F780
006300
000000
1C0E1C
7C0E1E
1C1E1E
181C0E
381C06
381C06
383C06
703804
70780C
707818
E0F818
E0B830
E1B860
E338C0
7E3F80
380F00
ENDCHAR
STARTCHAR uni1E86
ENCODING 7814
SWIDTH 926 0
DWIDTH 29 0
BBX 31 29 1 0
BITMAP
00030000
00078000
00030000
00000000
FF9FF3FE
3E07C0F8
1C078070
1C0380E0
1C0380C0
1E07C0C0
1E07C180
1E07C180
0E0FC100
0E0BC300
0E1BC300
0E19C600
0E31C600
0F31E400
0F21E400
0F61EC00
07E1F800
07C1F800
07C0F000
0780F000
0780F000
0700E000
0700E000
0600C000
0600C000
ENDCHAR
STARTCHAR uni1E87
ENCODING 7815
SWIDTH 778 0
DWIDTH 26 0
BBX 23 20 1 0
BITMAP
001800
003C00
001800
000000
1C0E1C
7C0E1E
1C1E1E
181C0E
381C06
381C06
383C06
703804
70780C
707818
E0F818
E0B830
E1B860
E338C0
7E3F80
380F00
ENDCHAR
STARTCHAR uni1E88
ENCODING 7816
SWIDTH 926 0
DWIDTH 29 0
BBX 31 29 1 -4
BITMAP
FF9FF3FE
3E07C0F8
1C078070
1C0380E0
1C0380C0
1E07C0C0
1E07C180
1E07C180
0E0FC100
0E0BC300
0E1BC300
0E19C600
0E31C600
0F31E400
0F21E400
0F61EC00
07E1F800
07C1F800
07C0F000
0780F000
0780F000
0700E000
0700E000
0600C000
0600C000
00000000
000C0000
001E0000
000C0000
ENDCHAR
STARTCHAR uni1E89
ENCODING 7817
SWIDTH 778 0
DWIDTH 26 0
BBX 23 20 1 -4
BITMAP
1C0E1C
7C0E1E
1C1E1E
181C0E
381C06
381C06
383C06
703804
70780C
707818
E0F818
E0B830
E1B860
E338C0
7E3F80
380F00
000000
006000
00F000
006000
ENDCHAR
STARTCHAR uni1E8A
ENCODING 7818
SWIDTH 704 0
DWIDTH 23 0
BBX 29 29 -3 0
BITMAP
00018000
0003C000
00018000
00000000
07FF1FF8
01FC07E0
00F803C0
00780700
003C0E00
003C0C00
003E1800
001E3000
001E6000
000FC000
000F8000
00078000
00078000
000F8000
001FC000
003BC000
0071E000
00E1E000
01C1F000
0380F000
0700F800
0E007800
1E007C00
3F00FE00
FFC3FF80
ENDCHAR
STARTCHAR uni1E8B
ENCODING 7819
SWIDTH 500 0
DWIDTH 16 0
BBX 17 20 -1 0
BITMAP
00C000
01E000
00C000
000000
070700
0F8F80
1B9B00
339000
21F000
01E000
01E000
01C000
01C000
01E000
03E000
06E100
66E300
EC7600
F87C00
703800
ENDCHAR
STARTCHAR uni1E8C
ENCODING 7820
SWIDTH 704 0
DWIDTH 23 0
BBX 29 29 -3 0
BITMAP
000C6000
001EF000
000C6000
00000000
07FF1FF8
01FC07E0
00F803C0
00780700
003C0E00
003C0C00
003E1800
001E3000
001E6000
000FC000
000F8000
00078000
00078000
000F8000
001FC000
003BC000
0071E000
00E1E000
01C1F000
0380F000
0700F800
0E007800
1E007C00
3F00FE00
FFC3FF80
ENDCHAR
STARTCHAR uni1E8D
ENCODING 7821
SWIDTH 500 0
DWIDTH 16 0
BBX 17 20 -1 0
BITMAP
031800
07BC00
031800
000000
070700
0F8F80
1B9B00
339000
21F000
01E000
01E000
01C000
01C000
01E000
03E000
06E100
66E300
EC7600
F87C00
703800
ENDCHAR
STARTCHAR uni1E8E
ENCODING 7822
SWIDTH 685 0
DWIDTH 23 0
BBX 25 29 1 0
BITMAP
00180000
003C0000
00180000
00000000
FFE1FF80
3F807E00
1F003800
0F003000
0F006000
0780E000
0780C000
03C18000
03C30000
03C70000
01E60000
01EC0000
00FC0000
00F80000
00F00000
00F00000
00F00000
01E00000
01E00000
01E00000
01E00000
03C00000
03C00000
0FE00000
3FF80000
ENDCHAR
STARTCHAR uni1E8F
ENCODING 7823
SWIDTH 500 0
DWIDTH 16 0
BBX 18 27 -3 -7
BITMAP
006000
00F000
006000
000000
070180
0F83C0
0F83C0
1BC3C0
11C180
11C180
01C100
00E300
00E200
00E600
00E400
007C00
007800
007800
007000
006000
006000
00C000
60C000
E18000
E30000
E60000
7C0000
ENDCHAR
STARTCHAR uni1E90
ENCODING 7824
SWIDTH 667 0
DWIDTH 22 0
BBX 23 32 -1 0
BITMAP
000300
000700
000F80
001880
0030C0
006040
000000
03FFFE
03F03E
07C07C
0700F8
0601F0
0E01E0
0C03E0
0807C0
000F80
000F00
001E00
003E00
007C00
00F800
00F000
01F000
03E008
07C018
0F8038
0F0030
1F0070
3E00F0
7C01E0
F807E0
FFFFE0
ENDCHAR
STARTCHAR uni1E91
ENCODING 7825
SWIDTH 463 0
DWIDTH 15 0
BBX 16 23 -1 0
BITMAP
0060
00E0
01F0
0310
0618
0C08
0000
07C3
0FFF
19F6
300C
3018
0030
00E0
01C0
0780
0E00
1C00
3004
6C0C
7F98
DFF0
C3E0
ENDCHAR
STARTCHAR uni1E92
ENCODING 7826
SWIDTH 667 0
DWIDTH 22 0
BBX 23 29 -1 -4
BITMAP
03FFFE
03F03E
07C07C
0700F8
0601F0
0E01E0
0C03E0
0807C0
000F80
000F00
001E00
003E00
007C00
00F800
00F000
01F000
03E008
07C018
0F8038
0F0030
1F0070
3E00F0
7C01E0
F807E0
FFFFE0
000000
003000
007800
003000
ENDCHAR
STARTCHAR uni1E93
ENCODING 7827
SWIDTH 463 0
DWIDTH 15 0
BBX 16 20 -1 -4
BITMAP
07C3
0FFF
19F6
300C
3018
0030
00E0
01C0
0780
0E00
1C00
3004
6C0C
7F98
DFF0
C3E0
0000
0300
0780
0300
ENDCHAR
STARTCHAR uni1E94
ENCODING 7828
SWIDTH 667 0
DWIDTH 22 0
BBX 23 28 -1 -3
BITMAP
03FFFE
03F03E
07C07C
0700F8
0601F0
0E01E0
0C03E0
0807C0
000F80
000F00
001E00
003E00
007C00
00F800
00F000
01F000
03E008
07C018
0F8038
0F0030
1F0070
3E00F0
7C01E0
F807E0
FFFFE0
000000
03FE00
03FE00
ENDCHAR
STARTCHAR uni1E95
ENCODING 7829
SWIDTH 463 0
DWIDTH 15 0
BBX 16 19 -1 -3
BITMAP
07C3
0FFF
19F6
300C
3018
0030
00E0
01C0
0780
0E00
1C00
3004
6C0C
7F98
DFF0
C3E0
0000
3FE0
3FE0
ENDCHAR
STARTCHAR uni1E96
ENCODING 7830
SWIDTH 611 0
DWIDTH 19 0
BBX 18 28 0 -3
BITMAP
01C000
0FC000
03C000
038000
038000
038000
038000
070000
070000
071C00
0E7E00
0EC700
0F8700
1F0700
1E0700
1C0E00
3C0E00
380E00
381C00
381C00
701C40
7038C0
703980
E01F00
E01C00
000000
0FF800
0FF800
ENDCHAR
STARTCHAR uni1E97
ENCODING 7831
SWIDTH 352 0
DWIDTH 11 0
BBX 10 26 1 0
BITMAP
3180
7BC0
3180
0000
0380
0300
0700
0700
0E00
0E00
7FC0
1C00
1C00
1C00
3800
3800
3800
7000
7000
7000
7080
E180
E300
F600
FC00
7000
ENDCHAR
STARTCHAR uni1E98
ENCODING 7832
SWIDTH 778 0
DWIDTH 26 0
BBX 23 23 1 0
BITMAP
003C00
006600
004200
004200
006600
003C00
000000
1C0E1C
7C0E1E
1C1E1E
181C0E
381C06
381C06
383C06
703804
70780C
707818
E0F818
E0B830
E1B860
E338C0
7E3F80
380F00
ENDCHAR
STARTCHAR uni1E99
ENCODING 7833
SWIDTH 500 0
DWIDTH 16 0
BBX 18 30 -3 -7
BITMAP
00F000
019800
010800
010800
019800
00F000
000000
070180
0F83C0
0F83C0
1BC3C0
11C180
11C180
01C100
00E300
00E200
00E600
00E400
007C00
007800
007800
007000
006000
006000
00C000
60C000
E18000
E30000
E60000
7C0000
ENDCHAR
STARTCHAR uni1EA0
ENCODING 7840
SWIDTH 704 0
DWIDTH 22 0
BBX 25 29 -3 -4
BITMAP
0000C000
0001C000
0001C000
0003C000
0007C000
0007E000
000DE000
000DE000
0018E000
0018E000
0030F000
0070F000
0060F000
00C0F000
00C07000
01FFF800
01FFF800
03007800
03007800
06003800
0E003C00
0C003C00
1C003C00
3E007E00
FF81FF80
00000000
000C0000
001E0000
000C0000
ENDCHAR
STARTCHAR uni1EA1
ENCODING 7841
SWIDTH 574 0
DWIDTH 18 0
BBX 17 20 0 -4
BITMAP
03C300
0FE700
1E3700
3C1E00
381E00
781E00
701C00
F01C00
E01C00
E03800
E03800
E03800
E07880
F0F980
7BBF00
3E1C00
000000
018000
03C000
018000
ENDCHAR
STARTCHAR uni1EA4
ENCODING 7844
SWIDTH 704 0
DWIDTH 22 0
BBX 25 39 -3 0
BITMAP
00003000
00007000
0000F000
0001C000
00030000
00060000
00000000
00004000
0000E000
0001F000
00031000
00061800
000C0800
00000000
0000C000
0001C000
0001C000
0003C000
0007C000
0007E000
000DE000
000DE000
0018E000
0018E000
0030F000
0070F000
0060F000
00C0F000
00C07000
01FFF800
01FFF800
03007800
03007800
06003800
0E003C00
0C003C00
1C003C00
3E007E00
FF81FF80
ENDCHAR
STARTCHAR uni1EA5
ENCODING 7845
SWIDTH 574 0
DWIDTH 18 0
BBX 17 30 0 0
BITMAP
000C00
001C00
003C00
007000
00C000
018000
000000
003000
007000
00F800
018800
030C00
060400
000000
03C300
0FE700
1E3700
3C1E00
381E00
781E00
701C00
F01C00
E01C00
E03800
E03800
E03880
E07980
F0FB00
7BBF00
3E1C00
ENDCHAR
STARTCHAR uni1EA6
ENCODING 7846
SWIDTH 704 0
DWIDTH 22 0
BBX 25 39 -3 0
BITMAP
00180000
001C0000
001E0000
00070000
00018000
0000C000
00000000
00004000
0000E000
0001F000
00031000
00061800
000C0800
00000000
0000C000
0001C000
0001C000
0003C000
0007C000
0007E000
000DE000
000DE000
0018E000
0018E000
0030F000
0070F000
0060F000
00C0F000
00C07000
01FFF800
01FFF800
03007800
03007800
06003800
0E003C00
0C003C00
1C003C00
3E007E00
FF81FF80
ENDCHAR
STARTCHAR uni1EA7
ENCODING 7847
SWIDTH 574 0
DWIDTH 18 0
BBX 17 30 0 0
BITMAP
060000
070000
078000
01C000
006000
003000
000000
003000
007000
00F800
018800
030C00
060400
000000
03C300
0FE700
1E3700
3C1E00
381E00
781E00
701C00
F01C00
E01C00
E03800
E03800
E03880
E07980
F0FB00
7BBF00
3E1C00
ENDCHAR
STARTCHAR uni1EAA
ENCODING 7850
SWIDTH 704 0
DWIDTH 22 0
BBX 25 36 -3 0
BITMAP
000E1000
001FF000
0010E000
00000000
00004000
0000E000
0001F000
00031000
00061800
000C0800
00000000
0000C000
0001C000
0001C000
0003C000
0007C000
0007E000
000DE000
000DE000
0018E000
0018E000
0030F000
0070F000
0060F000
00C0F000
00C07000
01FFF800
01FFF800
03007800
03007800
06003800
0E003C00
0C003C00
1C003C00
3E007E00
FF81FF80
ENDCHAR
STARTCHAR uni1EAB
ENCODING 7851
SWIDTH 574 0
DWIDTH 18 0
BBX 17 27 0 0
BITMAP
038400
07FC00
043800
000000
003000
007000
00F800
018800
030C00
060400
000000
03C300
0FE700
1E3700
3C1E00
381E00
781E00
701C00
F01C00
E01C00
E03800
E03800
E03880
E07980
F0FB00
7BBF00
3E1C00
ENDCHAR
STARTCHAR uni1EAC
ENCODING 7852
SWIDTH 704 0
DWIDTH 22 0
BBX 25 36 -3 -4
BITMAP
00018000
00038000
0007C000
000C4000
00186000
00302000
00000000
0000C000
0001C000
0001C000
0003C000
0007C000
0007E000
000DE000
000DE000
0018E000
0018E000
0030F000
0070F000
0060F000
00C0F000
00C07000
01FFF800
01FFF800
03007800
03007800
06003800
0E003C00
0C003C00
1C003C00
3E007E00
FF81FF80
00000000
000C0000
001E0000
000C0000
ENDCHAR
STARTCHAR uni1EAD
ENCODING 7853
SWIDTH 574 0
DWIDTH 18 0
BBX 17 27 0 -4
BITMAP
003000
007000
00F800
018800
030C00
060400
000000
03C300
0FE700
1E3700
3C1E00
381E00
781E00
701C00
F01C00
E01C00
E03800
E03800
E03800
E07880
F0F980
7BBF00
3E1C00
000000
018000
03C000
018000
ENDCHAR
STARTCHAR uni1EAE
ENCODING 7854
SWIDTH 704 0
DWIDTH 22 0
BBX 25 37 -3 0
BITMAP
00006000
0000E000
0001E000
00038000
00060000
000C0000
00000000
00303000
00306000
001FC000
00070000
00000000
0000C000
0001C000
0001C000
0003C000
0007C000
0007E000
000DE000
000DE000
0018E000
0018E000
0030F000
0070F000
0060F000
00C0F000
00C07000
01FFF800
01FFF800
03007800
03007800
06003800
0E003C00
0C003C00
1C003C00
3E007E00
FF81FF80
ENDCHAR
STARTCHAR uni1EAF
ENCODING 7855
SWIDTH 574 0
DWIDTH 18 0
BBX 17 28 0 0
BITMAP
000C00
001C00
003C00
007000
00C000
018000
000000
0C0C00
0C1800
07F000
01C000
000000
03C300
0FE700
1E3700
3C1E00
381E00
781E00
701C00
F01C00
E01C00
E03800
E03800
E03800
E07880
F0F980
7BBF00
3E1C00
ENDCHAR
STARTCHAR uni1EB0
ENCODING 7856
SWIDTH 704 0
DWIDTH 22 0
BBX 25 37 -3 0
BITMAP
00600000
00700000
00780000
001C0000
00060000
00030000
00000000
00303000
00306000
001FC000
00070000
00000000
0000C000
0001C000
0001C000
0003C000
0007C000
0007E000
000DE000
000DE000
0018E000
0018E000
0030F000
0070F000
0060F000
00C0F000
00C07000
01FFF800
01FFF800
03007800
03007800
06003800
0E003C00
0C003C00
1C003C00
3E007E00
FF81FF80
ENDCHAR
STARTCHAR uni1EB1
ENCODING 7857
SWIDTH 574 0
DWIDTH 18 0
BBX 17 28 0 0
BITMAP
0C0000
0E0000
0F0000
038000
00C000
006000
000000
0C0C00
0C1800
07F000
01C000
000000
03C300
0FE700
1E3700
3C1E00
381E00
781E00
701C00
F01C00
E01C00
E03800
E03800
E03800
E07880
F0F980
7BBF00
3E1C00
ENDCHAR
STARTCHAR uni1EB4
ENCODING 7860
SWIDTH 704 0
DWIDTH 22 0
BBX 25 34 -3 0
BITMAP
00384000
007FC000
00438000
00000000
00303000
00306000
001FC000
00070000
00000000
0000C000
0001C000
0001C000
0003C000
0007C000
0007E000
000DE000
000DE000
0018E000
0018E000
0030F000
0070F000
0060F000
00C0F000
00C07000
01FFF800
01FFF800
03007800
03007800
06003800
0E003C00
0C003C00
1C003C00
3E007E00
FF81FF80
ENDCHAR
STARTCHAR uni1EB5
ENCODING 7861
SWIDTH 574 0
DWIDTH 18 0
BBX 17 25 0 0
BITMAP
070800
0FF800
087000
000000
0C0C00
0C1800
07F000
01C000
000000
03C300
0FE700
1E3700
3C1E00
381E00
781E00
701C00
F01C00
E01C00
E03800
E03800
E03800
E07880
F0F980
7BBF00
3E1C00
ENDCHAR
STARTCHAR uni1EB6
ENCODING 7862
SWIDTH 704 0
DWIDTH 22 0
BBX 25 34 -3 -4
BITMAP
00303000
00306000
001FC000
00070000
00000000
0000C000
0001C000
0001C000
0003C000
0007C000
0007E000
000DE000
000DE000
0018E000
0018E000
0030F000
0070F000
0060F000
00C0F000
00C07000
01FFF800
01FFF800
03007800
03007800
06003800
0E003C00
0C003C00
1C003C00
3E007E00
FF81FF80
00000000
000C0000
001E0000
000C0000
ENDCHAR
STARTCHAR uni1EB7
ENCODING 7863
SWIDTH 574 0
DWIDTH 18 0
BBX 17 25 0 -4
BITMAP
0C0C00
0C1800
07F000
01C000
000000
03C300
0FE700
1E3700
3C1E00
381E00
781E00
701C00
F01C00
E01C00
E03800
E03800
E03800
E07880
F0F980
7BBF00
3E1C00
000000
018000
03C000
018000
ENDCHAR
STARTCHAR uni1EB8
ENCODING 7864
SWIDTH 722 0
DWIDTH 23 0
BBX 24 29 -1 -4
BITMAP
07FFFF
00F83F
00F00F
00F007
00F007
00F003
01E042
01E0C2
01E0C0
01E1C0
03C380
03FF80
03FF80
038700
078700
078300
078200
070204
0F000C
0F0018
0F0018
1E0038
1E00F8
3F07F0
FFFFF0
000000
003000
007800
003000
ENDCHAR
STARTCHAR uni1EB9
ENCODING 7865
SWIDTH 444 0
DWIDTH 14 0
BBX 13 20 0 -4
BITMAP
03E0
0E70
1C38
3838
3838
7070
70E0
F1C0
E700
FC00
E000
E000
E030
7060
7BC0
1F00
0000
0600
0F00
0600
ENDCHAR
STARTCHAR uni1EBC
ENCODING 7868
SWIDTH 722 0
DWIDTH 23 0
BBX 24 29 -1 0
BITMAP
003840
007FC0
004380
000000
07FFFF
00F83F
00F00F
00F007
00F007
00F003
01E042
01E0C2
01E0C0
01E1C0
03C380
03FF80
03FF80
038700
078700
078300
078200
070204
0F000C
0F0018
0F0018
1E0038
1E00F8
3F07F0
FFFFF0
ENDCHAR
STARTCHAR uni1EBD
ENCODING 7869
SWIDTH 444 0
DWIDTH 14 0
BBX 13 20 0 0
BITMAP
0E10
1FF0
10E0
0000
03E0
0E70
1C38
3838
3838
7070
70E0
F1C0
E700
FC00
E000
E000
E030
7060
7BC0
1F00
ENDCHAR
STARTCHAR uni1EBE
ENCODING 7870
SWIDTH 722 0
DWIDTH 23 0
BBX 24 39 -1 0
BITMAP
000060
0000E0
0001E0
000380
000600
000C00
000000
000060
0000E0
0001F0
000310
000618
000C08
000000
07FFFF
00F83F
00F00F
00F007
00F007
00F003
01E002
01E0C2
01E0C2
01E1C0
03C180
03C780
03FF80
03CF80
078700
078300
078300
078304
0F020C
0F001C
0F0018
1E0038
1E00F8
3F03F0
FFFFF0
ENDCHAR
STARTCHAR uni1EBF
ENCODING 7871
SWIDTH 444 0
DWIDTH 14 0
BBX 13 30 0 0
BITMAP
0018
0038
0078
00E0
0180
0300
0000
0060
00E0
01F0
0310
0618
0C08
0000
03E0
0E70
1C38
3838
3838
7070
70E0
F1C0
E700
FC00
E000
E000
E030
7060
7BC0
1F00
ENDCHAR
STARTCHAR uni1EC0
ENCODING 7872
SWIDTH 722 0
DWIDTH 23 0
BBX 24 39 -1 0
BITMAP
003000
003800
003C00
000E00
000300
000180
000000
000060
0000E0
0001F0
000310
000618
000C08
000000
07FFFF
00F83F
00F00F
00F007
00F007
00F003
01E002
01E0C2
01E0C2
01E1C0
03C180
03C780
03FF80
03CF80
078700
078300
078300
078304
0F020C
0F001C
0F0018
1E0038
1E00F8
3F03F0
FFFFF0
ENDCHAR
STARTCHAR uni1EC1
ENCODING 7873
SWIDTH 444 0
DWIDTH 14 0
BBX 13 30 0 0
BITMAP
1800
1C00
1E00
0700
0180
00C0
0000
0060
00E0
01F0
0310
0618
0C08
0000
03E0
0E70
1C38
3838
3838
7070
70E0
F1C0
E700
FC00
E000
E000
E030
7060
7BC0
1F00
ENDCHAR
STARTCHAR uni1EC4
ENCODING 7876
SWIDTH 722 0
DWIDTH 23 0
BBX 24 36 -1 0
BITMAP
001C20
003FE0
0021C0
000000
000060
0000E0
0001F0
000310
000618
000C08
000000
07FFFF
00F83F
00F00F
00F007
00F007
00F003
01E002
01E0C2
01E0C2
01E1C0
03C180
03C780
03FF80
03CF80
078700
078300
078300
078304
0F020C
0F001C
0F0018
1E0038
1E00F8
3F03F0
FFFFF0
ENDCHAR
STARTCHAR uni1EC5
ENCODING 7877
SWIDTH 444 0
DWIDTH 14 0
BBX 13 27 0 0
BITMAP
0E10
1FF0
10E0
0000
0060
00E0
01F0
0310
0618
0C08
0000
03E0
0E70
1C38
3838
3838
7070
70E0
F1C0
E700
FC00
E000
E000
E030
7060
7BC0
1F00
ENDCHAR
STARTCHAR uni1EC6
ENCODING 7878
SWIDTH 722 0
DWIDTH 23 0
BBX 24 36 -1 -4
BITMAP
000300
000700
000F80
001880
0030C0
006040
000000
07FFFF
00F83F
00F00F
00F007
00F007
00F003
01E042
01E0C2
01E0C0
01E1C0
03C380
03FF80
03FF80
038700
078700
078300
078200
070204
0F000C
0F0018
0F0018
1E0038
1E00F8
3F07F0
FFFFF0
000000
003000
007800
003000
ENDCHAR
STARTCHAR uni1EC7
ENCODING 7879
SWIDTH 444 0
DWIDTH 14 0
BBX 13 27 0 -4
BITMAP
00C0
01C0
03E0
0620
0C30
1810
0000
03E0
0E70
1C38
3838
3838
7070
70E0
F1C0
E700
FC00
E000
E000
E030
7060
7BC0
1F00
0000
0600
0F00
0600
ENDCHAR
STARTCHAR uni1ECA
ENCODING 7882
SWIDTH 407 0
DWIDTH 13 0
BBX 15 29 -1 -4
BITMAP
07FE
01F8
00F0
00F0
00E0
01E0
01E0
01E0
01C0
03C0
03C0
03C0
0380
0780
0780
0780
0700
0F00
0F00
0F00
0E00
1E00
1E00
3F00
FFC0
0000
0600
0F00
0600
ENDCHAR
STARTCHAR uni1ECB
ENCODING 7883
SWIDTH 333 0
DWIDTH 10 0
BBX 8 28 1 -4
BITMAP
06
0F
0F
06
00
00
00
00
1C
7C
1C
38
38
38
70
70
70
F0
E1
E3
E6
CC
F8
60
00
30
78
30
ENDCHAR
STARTCHAR uni1ECC
ENCODING 7884
SWIDTH 778 0
DWIDTH 26 0
BBX 24 29 1 -4
BITMAP
001FC0
00FCF0
03E038
07C01C
0F801E
1F000E
1E000F
3E000F
3C000F
7C000F
78000F
78001F
F8001F
F8001E
F0001E
F0003E
F0003C
F0007C
F00078
7000F8
7801F0
3803E0
3C0780
0F3F00
03F800
000000
003000
007800
003000
ENDCHAR
STARTCHAR uni1ECD
ENCODING 7885
SWIDTH 500 0
DWIDTH 16 0
BBX 15 20 0 -4
BITMAP
03F0
0E38
1C1C
380C
780E
700E
700E
F00E
E01E
E01C
E01C
E038
E038
7070
38E0
1F80
0000
0300
0780
0300
ENDCHAR
STARTCHAR uni1ED0
ENCODING 7888
SWIDTH 778 0
DWIDTH 26 0
BBX 24 39 1 0
BITMAP
000060
0000E0
0001E0
000380
000600
000C00
000000
000180
000380
0007C0
000C40
001860
003020
000000
003FC0
00F8F0
03E038
07C01C
0F801E
1F000E
1E000F
3E000F
3C000F
7C000F
78000F
78001F
F8001F
F8001E
F0001E
F0003E
F0003C
F0007C
F00078
7000F8
7801F0
3803E0
3C0780
0F1F00
07FC00
ENDCHAR
STARTCHAR uni1ED1
ENCODING 7889
SWIDTH 500 0
DWIDTH 16 0
BBX 15 30 0 0
BITMAP
000C
001C
003C
0070
00C0
0180
0000
0020
0070
00F8
0188
030C
0604
0000
03F0
0E38
1C1C
380C
780E
700E
700E
F00E
E01E
E01C
E01C
E038
E038
7070
38E0
1F80
ENDCHAR
STARTCHAR uni1ED2
ENCODING 7890
SWIDTH 778 0
DWIDTH 26 0
BBX 24 39 1 0
BITMAP
006000
007000
007800
001C00
000600
000300
000000
000180
000380
0007C0
000C40
001860
003020
000000
003FC0
00F8F0
03E038
07C01C
0F801E
1F000E
1E000F
3E000F
3C000F
7C000F
78000F
78001F
F8001F
F8001E
F0001E
F0003E
F0003C
F0007C
F00078
7000F8
7801F0
3803E0
3C0780
0F1F00
07FC00
ENDCHAR
STARTCHAR uni1ED3
ENCODING 7891
SWIDTH 500 0
DWIDTH 16 0
BBX 15 30 0 0
BITMAP
0C00
0E00
0F00
0380
00C0
0060
0000
0020
0070
00F8
0188
030C
0604
0000
03F0
0E38
1C1C
380C
780E
700E
700E
F00E
E01E
E01C
E01C
E038
E038
7070
38E0
1F80
ENDCHAR
STARTCHAR uni1ED6
ENCODING 7894
SWIDTH 778 0
DWIDTH 26 0
BBX 24 36 1 0
BITMAP
003840
007FC0
004380
000000
000180
000380
0007C0
000C40
001860
003020
000000
003FC0
00F8F0
03E038
07C01C
0F801E
1F000E
1E000F
3E000F
3C000F
7C000F
78000F
78001F
F8001F
F8001E
F0001E
F0003E
F0003C
F0007C
F00078
7000F8
7801F0
3803E0
3C0780
0F1F00
07FC00
ENDCHAR
STARTCHAR uni1ED7
ENCODING 7895
SWIDTH 500 0
DWIDTH 16 0
BBX 15 27 0 0
BITMAP
0708
0FF8
0870
0000
0020
0070
00F8
0188
030C
0604
0000
03F0
0E38
1C1C
380C
780E
700E
700E
F00E
E01E
E01C
E01C
E038
E038
7070
38E0
1F80
ENDCHAR
STARTCHAR uni1ED8
ENCODING 7896
SWIDTH 778 0
DWIDTH 26 0
BBX 24 36 1 -4
BITMAP
000600
000E00
001F00
003100
006180
00C080
000000
001FC0
00FCF0
03E038
07C01C
0F801E
1F000E
1E000F
3E000F
3C000F
7C000F
78000F
78001F
F8001F
F8001E
F0001E
F0003E
F0003C
F0007C
F00078
7000F8
7801F0
3803E0
3C0780
0F3F00
03F800
000000
003000
007800
003000
ENDCHAR
STARTCHAR uni1ED9
ENCODING 7897
SWIDTH 500 0
DWIDTH 16 0
BBX 15 27 0 -4
BITMAP
0060
00E0
01F0
0310
0618
0C08
0000
03F0
0E38
1C1C
380C
780E
700E
700E
F00E
E01E
E01C
E01C
E038
E038
7070
38E0
1F80
0000
0300
0780
0300
ENDCHAR
STARTCHAR uni1EDA
ENCODING 7898
SWIDTH 778 0
DWIDTH 26 0
BBX 28 32 1 0
BITMAP
00003000
00007000
0000F000
0001C000
00030000
00060000
00000000
001FC060
00FCF0F0
03E038F0
07C01CF0
0F801E20
1F000E60
1E000FC0
3E000F80
3C000F00
7C000F00
78000F00
78001F00
F8001F00
F8001E00
F0001E00
F0003E00
F0003C00
F0007C00
F0007800
7000F800
7801F000
3803E000
3C078000
0F3F0000
03F80000
ENDCHAR
STARTCHAR uni1EDB
ENCODING 7899
SWIDTH 500 0
DWIDTH 16 0
BBX 20 23 0 0
BITMAP
000300
000700
000F00
001C00
003000
006000
000000
03F060
0E38F0
1C1CF0
380CF0
780E20
700E60
700EC0
F00F80
E01F00
E01C00
E01C00
E03800
E03800
707000
38E000
1F8000
ENDCHAR
STARTCHAR uni1EDC
ENCODING 7900
SWIDTH 778 0
DWIDTH 26 0
BBX 28 32 1 0
BITMAP
00180000
001C0000
001E0000
00070000
00018000
0000C000
00000000
001FC060
00FCF0F0
03E038F0
07C01CF0
0F801E20
1F000E60
1E000FC0
3E000F80
3C000F00
7C000F00
78000F00
78001F00
F8001F00
F8001E00
F0001E00
F0003E00
F0003C00
F0007C00
F0007800
7000F800
7801F000
3803E000
3C078000
0F3F0000
03F80000
ENDCHAR
STARTCHAR uni1EDD
ENCODING 7901
SWIDTH 500 0
DWIDTH 16 0
BBX 20 23 0 0
BITMAP
030000
038000
03C000
00E000
003000
001800
000000
03F060
0E38F0
1C1CF0
380CF0
780E20
700E60
700EC0
F00F80
E01F00
E01C00
E01C00
E03800
E03800
707000
38E000
1F8000
ENDCHAR
STARTCHAR uni1EE0
ENCODING 7904
SWIDTH 778 0
DWIDTH 26 0
BBX 28 29 1 0
BITMAP
000E1000
001FF000
0010E000
00000000
001FC060
00FCF0F0
03E038F0
07C01CF0
0F801E20
1F000E60
1E000FC0
3E000F80
3C000F00
7C000F00
78000F00
78001F00
F8001F00
F8001E00
F0001E00
F0003E00
F0003C00
F0007C00
F0007800
7000F800
7801F000
3803E000
3C078000
0F3F0000
03F80000
ENDCHAR
STARTCHAR uni1EE1
ENCODING 7905
SWIDTH 500 0
DWIDTH 16 0
BBX 20 20 0 0
BITMAP
01C200
03FE00
021C00
000000
03F060
0E38F0
1C1CF0
380CF0
780E20
700E60
700EC0
F00F80
E01F00
E01C00
E01C00
E03800
E03800
707000
38E000
1F8000
ENDCHAR
STARTCHAR uni1EE2
ENCODING 7906
SWIDTH 778 0
DWIDTH 26 0
BBX 28 29 1 -4
BITMAP
001FC060
00FCF0F0
03E038F0
07C01CF0
0F801E20
1F000E60
1E000FC0
3E000F80
3C000F00
7C000F00
78000F00
78001F00
F8001F00
F8001E00
F0001E00
F0003E00
F0003C00
F0007C00
F0007800
7000F800
7801F000
3803E000
3C078000
0F3F0000
03F80000
00000000
00180000
003C0000
00180000
ENDCHAR
STARTCHAR uni1EE3
ENCODING 7907
SWIDTH 500 0
DWIDTH 16 0
BBX 20 20 0 -4
BITMAP
03F060
0E38F0
1C1CF0
380CF0
780E20
700E60
700EC0
F00F80
E01F00
E01C00
E01C00
E03800
E03800
707000
38E000
1F8000
000000
018000
03C000
018000
ENDCHAR
STARTCHAR uni1EE4
ENCODING 7908
SWIDTH 815 0
DWIDTH 27 0
BBX 26 29 3 -4
BITMAP
7FE07FC0
1F801F00
0F000E00
0F000C00
1E000C00
1E000C00
1E001800
1E001800
3C001800
3C001800
3C003000
3C003000
78003000
78002000
78006000
78006000
F0006000
F0004000
F000C000
F000C000
F0018000
78038000
78070000
3E3E0000
07F80000
00000000
00600000
00F00000
00600000
ENDCHAR
STARTCHAR uni1EE5
ENCODING 7909
SWIDTH 611 0
DWIDTH 20 0
BBX 17 20 1 -4
BITMAP
1E0700
7C0F00
1C0E00
1C0E00
381E00
381C00
381C00
703C00
703800
707800
E07800
E0F180
E1F300
E77700
FE7C00
783800
000000
018000
03C000
018000
ENDCHAR
STARTCHAR uni1EE8
ENCODING 7912
SWIDTH 815 0
DWIDTH 27 0
BBX 29 32 3 0
BITMAP
00003000
00007000
0000F000
0001C000
00030000
00060000
00000000
7FE07FF0
1F801F78
0F000E78
0F000C78
1E000C10
1E000C30
1E001860
1E0018C0
3C001980
3C001800
3C003000
3C003000
78003000
78002000
78006000
78006000
F0006000
F0004000
F000C000
F000C000
F0018000
78038000
78070000
3E3E0000
07F80000
ENDCHAR
STARTCHAR uni1EE9
ENCODING 7913
SWIDTH 611 0
DWIDTH 20 0
BBX 21 23 1 0
BITMAP
000300
000700
000F00
001C00
003000
006000
000000
1E0730
7C0F78
1C0E78
1C0E78
381E10
381C30
381C60
703CC0
703980
707800
E07800
E0F180
E1F300
E77700
FE7C00
783800
ENDCHAR
STARTCHAR uni1EEA
ENCODING 7914
SWIDTH 815 0
DWIDTH 27 0
BBX 29 32 3 0
BITMAP
00300000
00380000
003C0000
000E0000
00030000
00018000
00000000
7FE07FF0
1F801F78
0F000E78
0F000C78
1E000C10
1E000C30
1E001860
1E0018C0
3C001980
3C001800
3C003000
3C003000
78003000
78002000
78006000
78006000
F0006000
F0004000
F000C000
F000C000
F0018000
78038000
78070000
3E3E0000
07F80000
ENDCHAR
STARTCHAR uni1EEB
ENCODING 7915
SWIDTH 611 0
DWIDTH 20 0
BBX 21 23 1 0
BITMAP
018000
01C000
01E000
007000
001800
000C00
000000
1E0730
7C0F78
1C0E78
1C0E78
381E10
381C30
381C60
703CC0
703980
707800
E07800
E0F180
E1F300
E77700
FE7C00
783800
ENDCHAR
STARTCHAR uni1EEE
ENCODING 7918
SWIDTH 815 0
DWIDTH 27 0
BBX 29 29 3 0
BITMAP
001C2000
003FE000
0021C000
00000000
7FE07FF0
1F801F78
0F000E78
0F000C78
1E000C10
1E000C30
1E001860
1E0018C0
3C001980
3C001800
3C003000
3C003000
78003000
78002000
78006000
78006000
F0006000
F0004000
F000C000
F000C000
F0018000
78038000
78070000
3E3E0000
07F80000
ENDCHAR
STARTCHAR uni1EEF
ENCODING 7919
SWIDTH 611 0
DWIDTH 20 0
BBX 21 20 1 0
BITMAP
00E100
01FF00
010E00
000000
1E0730
7C0F78
1C0E78
1C0E78
381E10
381C30
381C60
703CC0
703980
707800
E07800
E0F180
E1F300
E77700
FE7C00
783800
ENDCHAR
STARTCHAR uni1EF0
ENCODING 7920
SWIDTH 815 0
DWIDTH 27 0
BBX 29 29 3 -4
BITMAP
7FE07FF0
1F801F78
0F000E78
0F000C78
1E000C10
1E000C30
1E001860
1E0018C0
3C001980
3C001800
3C003000
3C003000
78003000
78002000
78006000
78006000
F0006000
F0004000
F000C000
F000C000
F0018000
78038000
78070000
3E3E0000
07F80000
00000000
00600000
00F00000
00600000
ENDCHAR
STARTCHAR uni1EF1
ENCODING 7921
SWIDTH 611 0
DWIDTH 20 0
BBX 21 20 1 -4
BITMAP
1E0730
7C0F78
1C0E78
1C0E78
381E10
381C30
381C60
703CC0
703980
707800
E07800
E0F180
E1F300
E77700
FE7C00
783800
000000
00C000
01E000
00C000
ENDCHAR
STARTCHAR Ygrave
ENCODING 7922
SWIDTH 685 0
DWIDTH 23 0
BBX 25 32 1 0
BITMAP
01800000
01C00000
01E00000
00700000
00180000
000C0000
00000000
FFE1FF80
3F807E00
1F003800
0F003000
0F006000
0780E000
0780C000
03C18000
03C30000
03C70000
01E60000
01EC0000
00FC0000
00F80000
00F00000
00F00000
00F00000
01E00000
01E00000
01E00000
01E00000
03C00000
03C00000
0FE00000
3FF80000
ENDCHAR
STARTCHAR ygrave
ENCODING 7923
SWIDTH 500 0
DWIDTH 16 0
BBX 18 30 -3 -7
BITMAP
060000
070000
078000
01C000
006000
003000
000000
070180
0F83C0
0F83C0
1BC3C0
11C180
11C180
01C100
00E300
00E200
00E600
00E400
007C00
007800
007800
007000
006000
006000
00C000
60C000
E18000
E30000
E60000
7C0000
ENDCHAR
STARTCHAR uni1EF4
ENCODING 7924
SWIDTH 685 0
DWIDTH 23 0
BBX 25 29 1 -4
BITMAP
FFE1FF80
3F807E00
1F003800
0F003000
0F006000
0780E000
0780C000
03C18000
03C30000
03C70000
01E60000
01EC0000
00FC0000
00F80000
00F00000
00F00000
00F00000
01E00000
01E00000
01E00000
01E00000
03C00000
03C00000
0FE00000
3FF80000
00000000
00600000
00F00000
00600000
ENDCHAR
STARTCHAR uni1EF5
ENCODING 7925
SWIDTH 500 0
DWIDTH 16 0
BBX 18 27 -3 -11
BITMAP
070180
0F83C0
0F83C0
1BC3C0
11C180
11C180
01C100
00E300
00E200
00E600
00E400
007C00
007800
007800
007000
006000
006000
00C000
60C000
E18000
E30000
E60000
7C0000
000000
060000
0F0000
060000
ENDCHAR
STARTCHAR uni1EF8
ENCODING 7928
SWIDTH 685 0
DWIDTH 23 0
BBX 25 29 1 0
BITMAP
00E10000
01FF0000
010E0000
00000000
FFE1FF80
3F807E00
1F003800
0F003000
0F006000
0780E000
0780C000
03C18000
03C30000
03C70000
01E60000
01EC0000
00FC0000
00F80000
00F00000
00F00000
00F00000
01E00000
01E00000
01E00000
01E00000
03C00000
03C00000
0FE00000
3FF80000
ENDCHAR
STARTCHAR uni1EF9
ENCODING 7929
SWIDTH 500 0
DWIDTH 16 0
BBX 18 27 -3 -7
BITMAP
038400
07FC00
043800
000000
070180
0F83C0
0F83C0
1BC3C0
11C180
11C180
01C100
00E300
00E200
00E600
00E400
007C00
007800
007800
007000
006000
006000
00C000
60C000
E18000
E30000
E60000
7C0000
ENDCHAR
STARTCHAR uni2000
ENCODING 8192
SWIDTH 500 0
DWIDTH 17 0
BBX 1 1 0 0
BITMAP
00
ENDCHAR
STARTCHAR uni2001
ENCODING 8193
SWIDTH 1000 0
DWIDTH 33 0
BBX 1 1 0 0
BITMAP
00
ENDCHAR
STARTCHAR uni2002
ENCODING 8194
SWIDTH 500 0
DWIDTH 17 0
BBX 1 1 0 0
BITMAP
00
ENDCHAR
STARTCHAR uni2003
ENCODING 8195
SWIDTH 1000 0
DWIDTH 33 0
BBX 1 1 0 0
BITMAP
00
ENDCHAR
STARTCHAR uni2004
ENCODING 8196
SWIDTH 333 0
DWIDTH 11 0
BBX 1 1 0 0
BITMAP
00
ENDCHAR
STARTCHAR uni2005
ENCODING 8197
SWIDTH 250 0
DWIDTH 8 0
BBX 1 1 0 0
BITMAP
00
ENDCHAR
STARTCHAR uni2006
ENCODING 8198
SWIDTH 167 0
DWIDTH 6 0
BBX 1 1 0 0
BITMAP
00
ENDCHAR
STARTCHAR uni2007
ENCODING 8199
SWIDTH 556 0
DWIDTH 18 0
BBX 1 1 0 0
BITMAP
00
ENDCHAR
STARTCHAR uni2008
ENCODING 8200
SWIDTH 278 0
DWIDTH 9 0
BBX 1 1 0 0
BITMAP
00
ENDCHAR
STARTCHAR uni2009
ENCODING 8201
SWIDTH 200 0
DWIDTH 7 0
BBX 1 1 0 0
BITMAP
00
ENDCHAR
STARTCHAR uni200A
ENCODING 8202
SWIDTH 100 0
DWIDTH 3 0
BBX 1 1 0 0
BITMAP
00
ENDCHAR
STARTCHAR uni200B
ENCODING 8203
SWIDTH 0 0
DWIDTH 0 0
BBX 1 1 0 0
BITMAP
00
ENDCHAR
STARTCHAR uni2010
ENCODING 8208
SWIDTH 333 0
DWIDTH 11 0
BBX 8 3 1 7
BITMAP
FF
FF
FF
ENDCHAR
STARTCHAR uni2011
ENCODING 8209
SWIDTH 333 0
DWIDTH 11 0
BBX 8 3 1 7
BITMAP
FF
FF
FF
ENDCHAR
STARTCHAR figuredash
ENCODING 8210
SWIDTH 500 0
DWIDTH 16 0
BBX 16 2 0 7
BITMAP
FFFF
FFFF
ENDCHAR
STARTCHAR endash
ENCODING 8211
SWIDTH 500 0
DWIDTH 16 0
BBX 16 2 0 7
BITMAP
FFFF
FFFF
ENDCHAR
STARTCHAR emdash
ENCODING 8212
SWIDTH 1000 0
DWIDTH 32 0
BBX 32 2 0 7
BITMAP
FFFFFFFF
FFFFFFFF
ENDCHAR
STARTCHAR afii00208
ENCODING 8213
SWIDTH 1000 0
DWIDTH 32 0
BBX 32 2 0 7
BITMAP
FFFFFFFF
FFFFFFFF
ENDCHAR
STARTCHAR quoteleft
ENCODING 8216
SWIDTH 204 0
DWIDTH 7 0
BBX 6 9 2 16
BITMAP
0C
18
30
60
40
F0
F0
F0
60
ENDCHAR
STARTCHAR quoteright
ENCODING 8217
SWIDTH 204 0
DWIDTH 7 0
BBX 6 9 1 16
BITMAP
18
3C
3C
3C
08
18
30
60
C0
ENDCHAR
STARTCHAR quotesinglbase
ENCODING 8218
SWIDTH 204 0
DWIDTH 7 0
BBX 6 9 -2 -5
BITMAP
18
3C
3C
3C
08
18
30
60
C0
ENDCHAR
STARTCHAR quotereversed
ENCODING 8219
SWIDTH 204 0
DWIDTH 7 0
BBX 6 9 1 16
BITMAP
60
F0
F0
F0
40
60
30
18
0C
ENDCHAR
STARTCHAR quotedblleft
ENCODING 8220
SWIDTH 389 0
DWIDTH 13 0
BBX 12 9 2 16
BITMAP
0C30
1860
30C0
6180
4100
F3C0
F3C0
F3C0
6180
ENDCHAR
STARTCHAR quotedblright
ENCODING 8221
SWIDTH 389 0
DWIDTH 13 0
BBX 12 9 1 16
BITMAP
1860
3CF0
3CF0
3CF0
0820
1860
30C0
6180
C300
ENDCHAR
STARTCHAR quotedblbase
ENCODING 8222
SWIDTH 389 0
DWIDTH 13 0
BBX 12 9 -2 -5
BITMAP
1860
3CF0
3CF0
3CF0
0820
1860
30C0
6180
C300
ENDCHAR
STARTCHAR uni201F
ENCODING 8223
SWIDTH 389 0
DWIDTH 13 0
BBX 12 9 1 16
BITMAP
6180
F3C0
F3C0
F3C0
4100
6180
30C0
1860
0C30
ENDCHAR
STARTCHAR dagger
ENCODING 8224
SWIDTH 500 0
DWIDTH 17 0
BBX 15 30 2 -5
BITMAP
00E0
00E0
00E0
00E0
00C0
00C0
0080
799E
FFFE
711E
0100
0300
0300
0700
0F00
0F00
0E00
0E00
0C00
0C00
0C00
0800
1800
1800
1000
1000
3000
3000
2000
2000
ENDCHAR
STARTCHAR daggerdbl
ENCODING 8225
SWIDTH 500 0
DWIDTH 17 0
BBX 19 30 -1 -5
BITMAP
001E00
001E00
001E00
001C00
001800
001800
001000
0F13E0
0FFFE0
0F31E0
002000
002000
006000
00E000
00E000
00E000
00E000
00C000
008000
008000
F19E00
FFFE00
F11E00
010000
030000
070000
070000
0F0000
0F0000
060000
ENDCHAR
STARTCHAR bullet
ENCODING 8226
SWIDTH 606 0
DWIDTH 20 0
BBX 11 11 4 7
BITMAP
1F00
7FC0
7FC0
FFE0
FFE0
FFE0
FFE0
FFE0
7FC0
7FC0
1F00
ENDCHAR
STARTCHAR ellipsis
ENCODING 8230
SWIDTH 1000 0
DWIDTH 33 0
BBX 26 4 2 0
BITMAP
600C0180
F01E03C0
F01E03C0
600C0180
ENDCHAR
STARTCHAR perthousand
ENCODING 8240
SWIDTH 1000 0
DWIDTH 33 0
BBX 33 24 0 0
BITMAP
0000400000
0780C00000
1DC7800000
387F800000
7043000000
7043000000
E046000000
E0CC000000
E0CC000000
C198000000
E318000000
7E30F00E00
3C23D83B80
00678C7180
00CF04E080
00CE05E080
019E05C080
011C0DC180
03380F8180
02381B8300
06381B8300
0C38338600
0C1CE1CC00
080FC0F800
ENDCHAR
STARTCHAR guilsinglleft
ENCODING 8249
SWIDTH 333 0
DWIDTH 11 0
BBX 6 11 2 2
BITMAP
04
0C
18
70
E0
C0
C0
60
60
30
10
ENDCHAR
STARTCHAR guilsinglright
ENCODING 8250
SWIDTH 333 0
DWIDTH 11 0
BBX 6 11 2 2
BITMAP
20
30
18
18
0C
0C
1C
38
60
C0
80
ENDCHAR
STARTCHAR fraction
ENCODING 8260
SWIDTH 167 0
DWIDTH 6 0
BBX 14 23 -3 0
BITMAP
000C
0018
0018
0030
0070
0060
00E0
00C0
01C0
0180
0300
0300
0600
0600
0C00
0C00
1800
3800
3000
7000
6000
E000
C000
ENDCHAR
STARTCHAR oneinferior
ENCODING 8321
SWIDTH 333 0
DWIDTH 11 0
BBX 9 14 1 -7
BITMAP
0380
1F00
0300
0300
0700
0600
0600
0E00
0C00
0C00
0C00
1800
1800
FF00
ENDCHAR
STARTCHAR twoinferior
ENCODING 8322
SWIDTH 333 0
DWIDTH 11 0
BBX 11 14 1 -7
BITMAP
0F80
18C0
3060
3060
3860
30E0
01C0
0300
0600
1C00
3040
60C0
FF80
FF80
ENDCHAR
STARTCHAR threeinferior
ENCODING 8323
SWIDTH 333 0
DWIDTH 11 0
BBX 11 14 0 -7
BITMAP
0F80
18C0
3060
3860
00E0
01C0
0F00
0180
00C0
60C0
E0C0
C1C0
E380
7E00
ENDCHAR
STARTCHAR uni20A5
ENCODING 8357
SWIDTH 889 0
DWIDTH 29 0
BBX 26 28 1 -6
BITMAP
00006000
0000E000
0000C000
0000C000
0001C000
00018000
0E3D9E00
7E7FFF00
1CCFE700
1D8FC700
1F0F8700
1E0F0E00
1C0E0E00
3C1E0E00
381C1C00
383C1C00
703C1C00
70383840
707838C0
E0783980
E0703F00
E0F01C00
00300000
00700000
00600000
00600000
00600000
00C00000
ENDCHAR
STARTCHAR uni20A6
ENCODING 8358
SWIDTH 815 0
DWIDTH 27 0
BBX 30 26 -2 -1
BITMAP
07F807FC
00F801F0
007800E0
007C00E0
00FC00C0
00DE00C0
00DE00C0
009F0080
01FFFF80
01FFFF80
01878180
03078100
0303C300
0303C300
0301E300
07FFFF00
07FFFF00
0600F600
0600F600
0C007C00
0C007C00
0C003C00
1C003C00
3E003800
FF801800
00001800
ENDCHAR
STARTCHAR uni20A9
ENCODING 8361
SWIDTH 926 0
DWIDTH 29 0
BBX 31 25 1 0
BITMAP
FF9FF3FE
3E07C0F8
1C078070
1C0380E0
1C0380C0
1E07C0C0
1E07C180
1E07C180
0FFFFF00
0FFFFF00
0E1BC300
0E19C600
0E31C600
0F31E400
0F21E400
0FFFFF00
07FFFF00
07C1F800
07C0F000
0780F000
0780F000
0700E000
0700E000
0600C000
0600C000
ENDCHAR
STARTCHAR Euro
ENCODING 8364
SWIDTH 722 0
DWIDTH 23 0
BBX 26 25 -3 0
BITMAP
0003F040
001F3CC0
003C0FC0
007803C0
00F003C0
01E00380
01E00180
03C00180
FFFF8100
FFFF8100
07800000
0F800000
0F800000
0F000000
0F000000
FFFF8000
FFFF8000
0F000000
0F000200
07800600
07800400
03C01C00
03F03800
00FCF000
003FC000
ENDCHAR
STARTCHAR uni20AD
ENCODING 8365
SWIDTH 741 0
DWIDTH 24 0
BBX 28 25 -1 0
BITMAP
07FF3FF0
00F80FC0
00F00700
00F00E00
00F01C00
00E03800
01E07000
01E0E000
01E18000
01C30000
03CE0000
FFFFFFF0
FFFFFFF0
03F78000
07E78000
07C3C000
0783C000
0701C000
0F01E000
0F01E000
0F00F000
1E00F000
1E007800
3F007C00
FFC3FF00
ENDCHAR
STARTCHAR uni2103
ENCODING 8451
SWIDTH 1102 0
DWIDTH 35 0
BBX 31 25 4 0
BITMAP
00001F82
3F00F9E6
7381E07E
C0C3C01E
C0C7801E
804F001C
C0CF000C
C0DE000C
73BE0008
3F3C0008
003C0000
007C0000
007C0000
00780000
00780000
00780000
00780000
00780000
00780010
003C0030
003C0020
001E00E0
001F81C0
0007E780
0001FE00
ENDCHAR
STARTCHAR uni2109
ENCODING 8457
SWIDTH 1047 0
DWIDTH 34 0
BBX 31 25 4 0
BITMAP
000FFFFE
3F03F07E
7381E01E
C0C1E00E
C0C1E00C
8043C004
C0C3C084
C0C3C184
7383C180
3F078380
00078700
0007FF00
0007FF00
000F0E00
000F0600
000F0600
000F0400
001E0400
001E0000
001E0000
001E0000
003C0000
003C0000
007E0000
01FF8000
ENDCHAR
STARTCHAR trademark
ENCODING 8482
SWIDTH 950 0
DWIDTH 32 0
BBX 31 14 1 11
BITMAP
FFF3C03E
C631E038
8611E078
86117058
060170D8
06013898
06013998
06013918
06011D18
06011F18
06010E18
06010E18
0601043C
1F87C47E
ENDCHAR
STARTCHAR uni212A
ENCODING 8490
SWIDTH 741 0
DWIDTH 24 0
BBX 28 25 -1 0
BITMAP
07FF3FF0
00F80FC0
00F00700
00F00E00
00F01C00
00E03800
01E07000
01E0E000
01E18000
01C30000
03CE0000
03DF0000
03FF0000
03F78000
07E78000
07C3C000
0783C000
0701C000
0F01E000
0F01E000
0F00F000
1E00F000
1E007800
3F007C00
FFC3FF00
ENDCHAR
STARTCHAR uni212B
ENCODING 8491
SWIDTH 704 0
DWIDTH 22 0
BBX 25 32 -3 0
BITMAP
0001E000
00033000
00021000
00021000
00033000
0001E000
00000000
0000C000
0001C000
0001C000
0003C000
0007C000
0007E000
000DE000
000DE000
0018E000
0018E000
0030F000
0070F000
0060F000
00C0F000
00C07000
01FFF800
01FFF800
03007800
03007800
06003800
0E003C00
0C003C00
1C003C00
3E007E00
FF81FF80
ENDCHAR
STARTCHAR uni2132
ENCODING 8498
SWIDTH 667 0
DWIDTH 22 0
BBX 24 25 -1 0
BITMAP
0003FF
0000FC
000078
000078
0000F0
0000F0
0000F0
0040F0
0041E0
00C1E0
00C1E0
00E1E0
01FFC0
01FFC0
01C3C0
0383C0
030780
430780
420780
400780
600F00
E00F00
F00F00
FC1F80
FFFFE0
ENDCHAR
STARTCHAR minus
ENCODING 8722
SWIDTH 606 0
DWIDTH 20 0
BBX 17 2 1 7
BITMAP
FFFF80
FFFF80
ENDCHAR
STARTCHAR fraction
ENCODING 8725
SWIDTH 167 0
DWIDTH 6 0
BBX 14 23 -3 0
BITMAP
000C
0018
0018
0030
0070
0060
00E0
00C0
01C0
0180
0300
0300
0600
0600
0C00
0C00
1800
3800
3000
7000
6000
E000
C000
ENDCHAR
STARTCHAR periodcentered
ENCODING 8729
SWIDTH 278 0
DWIDTH 9 0
BBX 4 4 2 6
BITMAP
60
F0
F0
60
ENDCHAR
STARTCHAR uni2236
ENCODING 8758
SWIDTH 278 0
DWIDTH 9 0
BBX 7 16 1 0
BITMAP
0C
1E
1E
0C
00
00
00
00
00
00
00
00
60
F0
F0
60
ENDCHAR
STARTCHAR uni2259
ENCODING 8793
SWIDTH 606 0
DWIDTH 20 0
BBX 17 16 1 4
BITMAP
006000
00E000
01F000
031000
061800
0C0800
000000
FFFF80
FFFF80
000000
000000
000000
000000
000000
FFFF80
FFFF80
ENDCHAR
STARTCHAR uni225A
ENCODING 8794
SWIDTH 606 0
DWIDTH 20 0
BBX 17 16 1 4
BITMAP
081800
0C3000
046000
07C000
038000
030000
000000
FFFF80
FFFF80
000000
000000
000000
000000
000000
FFFF80
FFFF80
ENDCHAR
STARTCHAR notequal
ENCODING 8800
SWIDTH 606 0
DWIDTH 20 0
BBX 17 28 1 -5
BITMAP
000C00
001C00
001800
001800
003800
003000
003000
003000
006000
006000
FFFF80
FFFF80
00C000
00C000
018000
018000
018000
FFFF80
FFFF80
030000
060000
060000
060000
0E0000
0C0000
0C0000
0C0000
180000
ENDCHAR
STARTCHAR equivalence
ENCODING 8801
SWIDTH 606 0
DWIDTH 20 0
BBX 17 8 0 4
BITMAP
FFFF80
FFFF80
000000
FFFF80
FFFF80
000000
FFFF80
FFFF80
ENDCHAR
STARTCHAR uni2262
ENCODING 8802
SWIDTH 606 0
DWIDTH 20 0
BBX 17 28 0 -6
BITMAP
000C00
001C00
001800
001800
003800
003000
003000
003000
006000
006000
FFFF80
FFFF80
00C000
FFFF80
FFFF80
018000
FFFF80
FFFF80
030000
030000
060000
060000
060000
0E0000
0C0000
0C0000
0C0000
180000
ENDCHAR
STARTCHAR lessequal
ENCODING 8804
SWIDTH 606 0
DWIDTH 20 0
BBX 17 20 1 -3
BITMAP
000180
000780
001F00
007C00
01F000
07C000
1F0000
7C0000
E00000
F00000
7C0000
1F0000
03E000
00F800
001F00
000780
000180
000000
FFFF80
FFFF80
ENDCHAR
STARTCHAR greaterequal
ENCODING 8805
SWIDTH 606 0
DWIDTH 20 0
BBX 17 20 2 -3
BITMAP
C00000
F00000
7C0000
1F0000
07C000
01F000
007C00
001F00
000380
000780
001F00
007C00
03E000
0F8000
7C0000
F00000
C00000
000000
FFFF80
FFFF80
ENDCHAR
STARTCHAR uni226E
ENCODING 8814
SWIDTH 606 0
DWIDTH 20 0
BBX 17 28 1 -5
BITMAP
000C00
001C00
001800
001800
003800
003000
003180
003780
007F00
007C00
01F000
07C000
1FC000
7CC000
E18000
F18000
7D8000
1F0000
03E000
03F800
061F00
060780
060180
0E0000
0C0000
0C0000
0C0000
180000
ENDCHAR
STARTCHAR uni226F
ENCODING 8815
SWIDTH 606 0
DWIDTH 20 0
BBX 17 28 2 -5
BITMAP
000C00
001C00
001800
001800
003800
003000
C03000
F03000
7C6000
1F6000
07E000
01F000
00FC00
00DF00
018380
018780
019F00
037C00
03E000
0F8000
7E0000
F60000
C60000
0E0000
0C0000
0C0000
0C0000
180000
ENDCHAR
STARTCHAR uni2270
ENCODING 8816
SWIDTH 606 0
DWIDTH 20 0
BBX 17 28 1 -7
BITMAP
000C00
001C00
001800
001800
003980
003780
003F00
007C00
01F000
07E000
1F6000
7CC000
E0C000
F0C000
7D8000
1F8000
03E000
03F800
031F00
030780
060180
060000
FFFF80
FFFF80
0C0000
0C0000
0C0000
180000
ENDCHAR
STARTCHAR uni2271
ENCODING 8817
SWIDTH 606 0
DWIDTH 20 0
BBX 17 28 2 -7
BITMAP
000C00
001C00
001800
001800
C03800
F03000
7C3000
1F3000
07E000
01F000
007C00
00DF00
00C380
00C780
019F00
01FC00
03E000
0F8000
7F0000
F30000
C60000
060000
FFFF80
FFFF80
0C0000
0C0000
0C0000
180000
ENDCHAR
STARTCHAR fi
ENCODING -1
SWIDTH 611 0
DWIDTH 19 0
BBX 20 31 -2 -6
BITMAP
000FC0
001CE0
0030F0
0070E0
00E000
00C000
01C000
01C000
038060
1FFFE0
0381C0
0301C0
0701C0
070380
070380
060380
0E0700
0E0700
0E0700
0C0710
1C0E30
1C0E60
1C0EE0
380FC0
380700
380000
700000
700000
700000
F00000
E00000
ENDCHAR
STARTCHAR fl
ENCODING -1
SWIDTH 611 0
DWIDTH 19 0
BBX 21 31 -2 -6
BITMAP
000FF8
003C78
007078
007070
00E070
01C070
01C070
01C0E0
0380E0
1FF8E0
0381C0
0301C0
0701C0
070380
070380
060380
0E0380
0E0700
0E0700
0C0710
1C0E30
1C0E60
1C0E60
380FC0
380700
780000
700000
700000
F00000
F00000
E00000
ENDCHAR
ENDFONT
